M48
; DRILL file {KiCad (6.0.4)} date Wed Feb  1 13:33:50 2023
; FORMAT={-:-/ absolute / inch / decimal}
; #@! TF.CreationDate,2023-02-01T13:33:50+08:00
; #@! TF.GenerationSoftware,Kicad,Pcbnew,(6.0.4)
; #@! TF.FileFunction,Plated,1,6,PTH
FMAT,2
INCH
; #@! TA.AperFunction,Plated,PTH,ViaDrill
T1C0.0118
; #@! TA.AperFunction,Plated,PTH,ViaDrill
T2C0.0138
%
G90
G05
T1
X1.4709Y-3.187
X1.476Y-2.8183
X1.4791Y-2.2693
X1.4823Y-2.4843
X1.4823Y-2.5138
X1.4823Y-2.5433
X1.4823Y-2.5728
X1.4823Y-2.6024
X1.4823Y-2.6319
X1.5047Y-2.9449
X1.5051Y-2.8276
X1.5118Y-2.4843
X1.5118Y-2.5138
X1.5118Y-2.5433
X1.5118Y-2.5728
X1.5118Y-2.6024
X1.5118Y-2.6319
X1.5136Y-2.4528
X1.5333Y-2.4528
X1.5413Y-2.4843
X1.5413Y-2.5138
X1.5413Y-2.5433
X1.5413Y-2.5728
X1.5413Y-2.6024
X1.5413Y-2.6319
X1.5709Y-2.4843
X1.5709Y-2.5138
X1.5709Y-2.5433
X1.5709Y-2.5728
X1.5709Y-2.6024
X1.5709Y-2.6319
X1.5819Y-2.2693
X1.585Y-2.8705
X1.6004Y-2.4843
X1.6004Y-2.5138
X1.6004Y-2.5433
X1.6004Y-2.5728
X1.6004Y-2.6024
X1.6004Y-2.6319
X1.6287Y-2.4008
X1.6299Y-2.4843
X1.6299Y-2.5138
X1.6299Y-2.5433
X1.6299Y-2.5728
X1.6299Y-2.6024
X1.6299Y-2.6319
X1.6299Y-2.4481
X1.635Y-2.3346
X1.6496Y-2.4008
X1.6594Y-2.4843
X1.6594Y-2.5138
X1.6594Y-2.5433
X1.6594Y-2.5728
X1.6594Y-2.6024
X1.6594Y-2.6319
X1.6693Y-2.4008
X1.689Y-2.4843
X1.689Y-2.5138
X1.689Y-2.5433
X1.689Y-2.5728
X1.689Y-2.6024
X1.689Y-2.6319
X1.6898Y-2.4008
X1.6914Y-2.4489
X1.7114Y-2.4008
X1.715Y-2.5579
X1.718Y-2.6448
X1.7292Y-2.5911
X1.7311Y-2.4008
X1.7335Y-2.4487
X1.737Y-2.6397
X1.7417Y-2.9232
X1.7429Y-2.7937
X1.751Y-2.401
X1.7532Y-2.4482
X1.7656Y-2.4635
X1.7728Y-2.4861
X1.7825Y-2.5087
X1.7873Y-2.4323
X1.7922Y-2.4892
X1.7964Y-2.5226
X1.8031Y-2.7296
X1.8031Y-2.7571
X1.8087Y-2.4785
X1.8098Y-2.872
X1.811Y-2.4351
X1.8176Y-2.7709
X1.8184Y-2.7434
X1.8184Y-2.6962
X1.8187Y-2.7158
X1.8253Y-2.489
X1.8276Y-2.2697
X1.8504Y-2.9736
X1.8504Y-3.011
X1.8504Y-3.0862
X1.8531Y-2.5413
X1.8571Y-2.5122
X1.8646Y-2.3469
X1.9567Y-2.8996
X1.9583Y-2.9807
X1.9583Y-3.0004
X1.9713Y-2.5465
X1.9713Y-2.5701
X1.9756Y-2.3146
X1.9791Y-2.215
X1.9827Y-2.7189
X1.9962Y-2.315
X2.0059Y-3.0591
X2.0075Y-2.726
X2.0159Y-2.3156
X2.0287Y-3.0638
X2.0315Y-3.1681
X2.0355Y-2.3162
X2.0482Y-3.0608
X2.0552Y-2.3161
X2.0583Y-3.1681
X2.075Y-2.3212
X2.0776Y-3.0598
X2.0946Y-2.329
X2.0966Y-2.3522
X2.1073Y-2.5054
X2.1075Y-2.5329
X2.1075Y-2.5605
X2.1154Y-3.0594
X2.1163Y-2.3522
X2.1264Y-2.5192
X2.1269Y-2.5467
X2.1598Y-2.0627
X2.1674Y-3.039
X2.1732Y-2.8
X2.1741Y-2.5243
X2.1746Y-2.5543
X2.185Y-3.0666
X2.187Y-2.8157
X2.1872Y-2.5694
X2.1878Y-2.5383
X2.1913Y-2.0627
X2.2051Y-3.0756
X2.215Y-2.5701
X2.2228Y-2.0627
X2.2228Y-3.156
X2.2228Y-3.3251
X2.2248Y-3.0563
X2.2441Y-3.0752
X2.2445Y-2.172
X2.2543Y-2.0627
X2.2543Y-3.3251
X2.2638Y-3.0618
X2.2646Y-2.1732
X2.2693Y-3.0398
X2.2858Y-2.0628
X2.2858Y-3.3251
X2.2969Y-3.0035
X2.3071Y-3.074
X2.3112Y-3.0198
X2.3173Y-2.0628
X2.3173Y-3.3251
X2.325Y-3.004
X2.3374Y-2.3304
X2.3379Y-2.3503
X2.3387Y-3.0187
X2.3488Y-2.0628
X2.3488Y-3.3251
X2.3525Y-3.0035
X2.3652Y-2.3296
X2.3663Y-3.0175
X2.3803Y-3.0037
X2.3803Y-2.0628
X2.3803Y-3.3251
X2.3849Y-2.3294
X2.394Y-3.018
X2.4078Y-3.0039
X2.4118Y-2.0628
X2.4118Y-3.3251
X2.4201Y-2.3173
X2.4216Y-3.0181
X2.4315Y-3.2161
X2.4355Y-3.0021
X2.4397Y-2.3168
X2.4433Y-2.0628
X2.4433Y-3.3251
X2.4598Y-2.1728
X2.4748Y-2.0628
X2.4748Y-3.3251
X2.4843Y-2.174
X2.4909Y-2.3291
X2.5063Y-2.0628
X2.5063Y-3.3251
X2.5186Y-3.0663
X2.5189Y-2.3153
X2.5378Y-2.0628
X2.5378Y-3.3251
X2.5382Y-3.0642
X2.5394Y-2.3291
X2.5591Y-3.0657
X2.5591Y-2.3295
X2.5693Y-2.0628
X2.5693Y-3.3251
X2.5787Y-2.3303
X2.5791Y-3.0654
X2.5994Y-2.3307
X2.6008Y-2.0628
X2.6157Y-3.0665
X2.6636Y-2.0628
X2.6658Y-2.6867
X2.6691Y-2.499
X2.6819Y-2.585
X2.6823Y-2.6071
X2.6887Y-2.5058
X2.6917Y-2.6747
X2.6996Y-3.0035
X2.6996Y-3.0413
X2.7071Y-2.7409
X2.7076Y-2.5637
X2.7079Y-2.7697
X2.7087Y-2.7047
X2.7088Y-2.5426
X2.7091Y-2.3504
X2.7091Y-2.6457
X2.7091Y-2.6654
X2.7091Y-2.685
X2.7094Y-2.6071
X2.7099Y-2.5855
X2.7102Y-2.4882
X2.7102Y-2.5079
X2.7107Y-2.4685
X2.8126Y-2.3894
X2.8173Y-2.4312
X2.828Y-3.2898
X2.8323Y-2.4185
X2.8461Y-2.4591
X2.861Y-2.4463
X2.9264Y-2.885
X2.9268Y-2.9232
X2.9287Y-3.022
X2.9937Y-3.2902
X3.0205Y-2.1547
X3.0449Y-2.4539
X3.0614Y-3.0996
X3.063Y-2.8067
X3.0831Y-3.0205
X3.0949Y-2.1732
X3.0992Y-3.0079
X3.0996Y-3.1382
X3.1134Y-3.289
X3.1941Y-2.1728
X3.2Y-2.6248
X3.2Y-2.6413
X3.2Y-2.6579
X3.2Y-2.6744
X3.2Y-2.6909
X3.2Y-2.7075
X3.2Y-2.724
X3.2Y-2.7406
X3.2Y-2.7571
X3.2Y-2.7902
X3.2Y-2.8232
X3.2Y-2.8563
X3.2Y-2.8728
X3.2142Y-2.9051
X3.2295Y-2.3335
X3.2319Y-2.9051
X3.2497Y-2.9051
X3.2674Y-2.9051
X3.2681Y-2.5228
X3.2807Y-3.2898
X3.2851Y-2.9051
X3.3029Y-2.9051
X3.3206Y-2.9051
X3.3384Y-2.9051
X3.3449Y-2.4854
X3.3561Y-2.9051
X3.3739Y-2.9051
T2
X1.4669Y-2.8949
X1.4669Y-2.9457
X1.7031Y-2.8449
X1.7189Y-3.276
X1.7567Y-3.2394
X1.8319Y-3.2378
X1.8323Y-3.2756
X2.9063Y-2.1547
X2.9067Y-2.1169
X2.9827Y-2.1535
X3.0205Y-2.1169
T0
M30
