%TF.GenerationSoftware,KiCad,Pcbnew,(6.0.4)*%
%TF.CreationDate,2023-02-01T13:33:48+08:00*%
%TF.ProjectId,Core_M4,436f7265-5f4d-4342-9e6b-696361645f70,rev?*%
%TF.SameCoordinates,Original*%
%TF.FileFunction,Soldermask,Top*%
%TF.FilePolarity,Negative*%
%FSLAX46Y46*%
G04 Gerber Fmt 4.6, Leading zero omitted, Abs format (unit mm)*
G04 Created by KiCad (PCBNEW (6.0.4)) date 2023-02-01 13:33:48*
%MOMM*%
%LPD*%
G01*
G04 APERTURE LIST*
G04 Aperture macros list*
%AMRoundRect*
0 Rectangle with rounded corners*
0 $1 Rounding radius*
0 $2 $3 $4 $5 $6 $7 $8 $9 X,Y pos of 4 corners*
0 Add a 4 corners polygon primitive as box body*
4,1,4,$2,$3,$4,$5,$6,$7,$8,$9,$2,$3,0*
0 Add four circle primitives for the rounded corners*
1,1,$1+$1,$2,$3*
1,1,$1+$1,$4,$5*
1,1,$1+$1,$6,$7*
1,1,$1+$1,$8,$9*
0 Add four rect primitives between the rounded corners*
20,1,$1+$1,$2,$3,$4,$5,0*
20,1,$1+$1,$4,$5,$6,$7,0*
20,1,$1+$1,$6,$7,$8,$9,0*
20,1,$1+$1,$8,$9,$2,$3,0*%
%AMFreePoly0*
4,1,22,0.550000,-0.750000,0.000000,-0.750000,0.000000,-0.745033,-0.079941,-0.743568,-0.215256,-0.701293,-0.333266,-0.622738,-0.424486,-0.514219,-0.481581,-0.384460,-0.499164,-0.250000,-0.500000,-0.250000,-0.500000,0.250000,-0.499164,0.250000,-0.499963,0.256109,-0.478152,0.396186,-0.417904,0.524511,-0.324060,0.630769,-0.204165,0.706417,-0.067858,0.745374,0.000000,0.744959,0.000000,0.750000,
0.550000,0.750000,0.550000,-0.750000,0.550000,-0.750000,$1*%
%AMFreePoly1*
4,1,20,0.000000,0.744959,0.073905,0.744508,0.209726,0.703889,0.328688,0.626782,0.421226,0.519385,0.479903,0.390333,0.500000,0.250000,0.500000,-0.250000,0.499851,-0.262216,0.476331,-0.402017,0.414519,-0.529596,0.319384,-0.634700,0.198574,-0.708877,0.061801,-0.746166,0.000000,-0.745033,0.000000,-0.750000,-0.550000,-0.750000,-0.550000,0.750000,0.000000,0.750000,0.000000,0.744959,
0.000000,0.744959,$1*%
G04 Aperture macros list end*
%ADD10C,0.100000*%
%ADD11RoundRect,0.135000X0.185000X-0.135000X0.185000X0.135000X-0.185000X0.135000X-0.185000X-0.135000X0*%
%ADD12R,0.400000X1.900000*%
%ADD13RoundRect,0.075000X0.075000X-0.662500X0.075000X0.662500X-0.075000X0.662500X-0.075000X-0.662500X0*%
%ADD14RoundRect,0.075000X0.662500X-0.075000X0.662500X0.075000X-0.662500X0.075000X-0.662500X-0.075000X0*%
%ADD15RoundRect,0.140000X-0.170000X0.140000X-0.170000X-0.140000X0.170000X-0.140000X0.170000X0.140000X0*%
%ADD16RoundRect,0.140000X0.170000X-0.140000X0.170000X0.140000X-0.170000X0.140000X-0.170000X-0.140000X0*%
%ADD17RoundRect,0.140000X-0.140000X-0.170000X0.140000X-0.170000X0.140000X0.170000X-0.140000X0.170000X0*%
%ADD18RoundRect,0.147500X-0.147500X-0.172500X0.147500X-0.172500X0.147500X0.172500X-0.147500X0.172500X0*%
%ADD19C,0.400000*%
%ADD20R,1.000000X1.500000*%
%ADD21RoundRect,0.062500X0.337500X0.062500X-0.337500X0.062500X-0.337500X-0.062500X0.337500X-0.062500X0*%
%ADD22RoundRect,0.062500X0.062500X0.337500X-0.062500X0.337500X-0.062500X-0.337500X0.062500X-0.337500X0*%
%ADD23R,5.300000X5.300000*%
%ADD24RoundRect,0.075000X0.350000X0.075000X-0.350000X0.075000X-0.350000X-0.075000X0.350000X-0.075000X0*%
%ADD25RoundRect,0.075000X-0.075000X0.350000X-0.075000X-0.350000X0.075000X-0.350000X0.075000X0.350000X0*%
%ADD26FreePoly0,180.000000*%
%ADD27FreePoly1,180.000000*%
%ADD28RoundRect,0.140000X0.140000X0.170000X-0.140000X0.170000X-0.140000X-0.170000X0.140000X-0.170000X0*%
%ADD29RoundRect,0.135000X0.135000X0.185000X-0.135000X0.185000X-0.135000X-0.185000X0.135000X-0.185000X0*%
%ADD30R,1.000000X1.800000*%
%ADD31R,0.800000X2.000000*%
%ADD32RoundRect,0.250000X-0.850000X0.350000X-0.850000X-0.350000X0.850000X-0.350000X0.850000X0.350000X0*%
%ADD33RoundRect,0.135000X-0.185000X0.135000X-0.185000X-0.135000X0.185000X-0.135000X0.185000X0.135000X0*%
%ADD34RoundRect,0.150000X-0.512500X-0.150000X0.512500X-0.150000X0.512500X0.150000X-0.512500X0.150000X0*%
%ADD35RoundRect,0.150000X0.512500X0.150000X-0.512500X0.150000X-0.512500X-0.150000X0.512500X-0.150000X0*%
%ADD36O,1.276000X0.581000*%
%ADD37R,3.400000X4.300000*%
%ADD38C,0.650000*%
G04 APERTURE END LIST*
D10*
X38037142Y-52864285D02*
X38008571Y-52892857D01*
X37922857Y-52921428D01*
X37865714Y-52921428D01*
X37780000Y-52892857D01*
X37722857Y-52835714D01*
X37694285Y-52778571D01*
X37665714Y-52664285D01*
X37665714Y-52578571D01*
X37694285Y-52464285D01*
X37722857Y-52407142D01*
X37780000Y-52350000D01*
X37865714Y-52321428D01*
X37922857Y-52321428D01*
X38008571Y-52350000D01*
X38037142Y-52378571D01*
X38380000Y-52921428D02*
X38322857Y-52892857D01*
X38294285Y-52864285D01*
X38265714Y-52807142D01*
X38265714Y-52635714D01*
X38294285Y-52578571D01*
X38322857Y-52550000D01*
X38380000Y-52521428D01*
X38465714Y-52521428D01*
X38522857Y-52550000D01*
X38551428Y-52578571D01*
X38580000Y-52635714D01*
X38580000Y-52807142D01*
X38551428Y-52864285D01*
X38522857Y-52892857D01*
X38465714Y-52921428D01*
X38380000Y-52921428D01*
X38837142Y-52921428D02*
X38837142Y-52521428D01*
X38837142Y-52635714D02*
X38865714Y-52578571D01*
X38894285Y-52550000D01*
X38951428Y-52521428D01*
X39008571Y-52521428D01*
X39437142Y-52892857D02*
X39380000Y-52921428D01*
X39265714Y-52921428D01*
X39208571Y-52892857D01*
X39180000Y-52835714D01*
X39180000Y-52607142D01*
X39208571Y-52550000D01*
X39265714Y-52521428D01*
X39380000Y-52521428D01*
X39437142Y-52550000D01*
X39465714Y-52607142D01*
X39465714Y-52664285D01*
X39180000Y-52721428D01*
X39722857Y-52692857D02*
X40180000Y-52692857D01*
X40665714Y-52607142D02*
X40465714Y-52607142D01*
X40465714Y-52921428D02*
X40465714Y-52321428D01*
X40751428Y-52321428D01*
X41237142Y-52521428D02*
X41237142Y-52921428D01*
X41094285Y-52292857D02*
X40951428Y-52721428D01*
X41322857Y-52721428D01*
X37694285Y-53881428D02*
X37694285Y-53281428D01*
X37837142Y-53281428D01*
X37922857Y-53310000D01*
X37979999Y-53367142D01*
X38008571Y-53424285D01*
X38037142Y-53538571D01*
X38037142Y-53624285D01*
X38008571Y-53738571D01*
X37979999Y-53795714D01*
X37922857Y-53852857D01*
X37837142Y-53881428D01*
X37694285Y-53881428D01*
X38522857Y-53852857D02*
X38465714Y-53881428D01*
X38351428Y-53881428D01*
X38294285Y-53852857D01*
X38265714Y-53795714D01*
X38265714Y-53567142D01*
X38294285Y-53510000D01*
X38351428Y-53481428D01*
X38465714Y-53481428D01*
X38522857Y-53510000D01*
X38551428Y-53567142D01*
X38551428Y-53624285D01*
X38265714Y-53681428D01*
X38779999Y-53852857D02*
X38837142Y-53881428D01*
X38951428Y-53881428D01*
X39008571Y-53852857D01*
X39037142Y-53795714D01*
X39037142Y-53767142D01*
X39008571Y-53710000D01*
X38951428Y-53681428D01*
X38865714Y-53681428D01*
X38808571Y-53652857D01*
X38779999Y-53595714D01*
X38779999Y-53567142D01*
X38808571Y-53510000D01*
X38865714Y-53481428D01*
X38951428Y-53481428D01*
X39008571Y-53510000D01*
X39294285Y-53881428D02*
X39294285Y-53481428D01*
X39294285Y-53281428D02*
X39265714Y-53310000D01*
X39294285Y-53338571D01*
X39322857Y-53310000D01*
X39294285Y-53281428D01*
X39294285Y-53338571D01*
X39837142Y-53481428D02*
X39837142Y-53967142D01*
X39808571Y-54024285D01*
X39779999Y-54052857D01*
X39722857Y-54081428D01*
X39637142Y-54081428D01*
X39579999Y-54052857D01*
X39837142Y-53852857D02*
X39779999Y-53881428D01*
X39665714Y-53881428D01*
X39608571Y-53852857D01*
X39579999Y-53824285D01*
X39551428Y-53767142D01*
X39551428Y-53595714D01*
X39579999Y-53538571D01*
X39608571Y-53510000D01*
X39665714Y-53481428D01*
X39779999Y-53481428D01*
X39837142Y-53510000D01*
X40122857Y-53481428D02*
X40122857Y-53881428D01*
X40122857Y-53538571D02*
X40151428Y-53510000D01*
X40208571Y-53481428D01*
X40294285Y-53481428D01*
X40351428Y-53510000D01*
X40379999Y-53567142D01*
X40379999Y-53881428D01*
X40894285Y-53852857D02*
X40837142Y-53881428D01*
X40722857Y-53881428D01*
X40665714Y-53852857D01*
X40637142Y-53795714D01*
X40637142Y-53567142D01*
X40665714Y-53510000D01*
X40722857Y-53481428D01*
X40837142Y-53481428D01*
X40894285Y-53510000D01*
X40922857Y-53567142D01*
X40922857Y-53624285D01*
X40637142Y-53681428D01*
X41437142Y-53881428D02*
X41437142Y-53281428D01*
X41437142Y-53852857D02*
X41379999Y-53881428D01*
X41265714Y-53881428D01*
X41208571Y-53852857D01*
X41179999Y-53824285D01*
X41151428Y-53767142D01*
X41151428Y-53595714D01*
X41179999Y-53538571D01*
X41208571Y-53510000D01*
X41265714Y-53481428D01*
X41379999Y-53481428D01*
X41437142Y-53510000D01*
X42179999Y-53881428D02*
X42179999Y-53281428D01*
X42179999Y-53510000D02*
X42237142Y-53481428D01*
X42351428Y-53481428D01*
X42408571Y-53510000D01*
X42437142Y-53538571D01*
X42465714Y-53595714D01*
X42465714Y-53767142D01*
X42437142Y-53824285D01*
X42408571Y-53852857D01*
X42351428Y-53881428D01*
X42237142Y-53881428D01*
X42179999Y-53852857D01*
X42665714Y-53481428D02*
X42808571Y-53881428D01*
X42951428Y-53481428D02*
X42808571Y-53881428D01*
X42751428Y-54024285D01*
X42722857Y-54052857D01*
X42665714Y-54081428D01*
X43637142Y-53881428D02*
X43637142Y-53281428D01*
X43837142Y-53710000D01*
X44037142Y-53281428D01*
X44037142Y-53881428D01*
X44551428Y-53852857D02*
X44494285Y-53881428D01*
X44379999Y-53881428D01*
X44322857Y-53852857D01*
X44294285Y-53795714D01*
X44294285Y-53567142D01*
X44322857Y-53510000D01*
X44379999Y-53481428D01*
X44494285Y-53481428D01*
X44551428Y-53510000D01*
X44579999Y-53567142D01*
X44579999Y-53624285D01*
X44294285Y-53681428D01*
X44837142Y-53481428D02*
X44837142Y-53881428D01*
X44837142Y-53538571D02*
X44865714Y-53510000D01*
X44922857Y-53481428D01*
X45008571Y-53481428D01*
X45065714Y-53510000D01*
X45094285Y-53567142D01*
X45094285Y-53881428D01*
X45637142Y-53481428D02*
X45637142Y-53967142D01*
X45608571Y-54024285D01*
X45579999Y-54052857D01*
X45522857Y-54081428D01*
X45437142Y-54081428D01*
X45379999Y-54052857D01*
X45637142Y-53852857D02*
X45579999Y-53881428D01*
X45465714Y-53881428D01*
X45408571Y-53852857D01*
X45379999Y-53824285D01*
X45351428Y-53767142D01*
X45351428Y-53595714D01*
X45379999Y-53538571D01*
X45408571Y-53510000D01*
X45465714Y-53481428D01*
X45579999Y-53481428D01*
X45637142Y-53510000D01*
X46122857Y-53567142D02*
X46208571Y-53595714D01*
X46237142Y-53624285D01*
X46265714Y-53681428D01*
X46265714Y-53767142D01*
X46237142Y-53824285D01*
X46208571Y-53852857D01*
X46151428Y-53881428D01*
X45922857Y-53881428D01*
X45922857Y-53281428D01*
X46122857Y-53281428D01*
X46179999Y-53310000D01*
X46208571Y-53338571D01*
X46237142Y-53395714D01*
X46237142Y-53452857D01*
X46208571Y-53510000D01*
X46179999Y-53538571D01*
X46122857Y-53567142D01*
X45922857Y-53567142D01*
X46608571Y-53881428D02*
X46551428Y-53852857D01*
X46522857Y-53824285D01*
X46494285Y-53767142D01*
X46494285Y-53595714D01*
X46522857Y-53538571D01*
X46551428Y-53510000D01*
X46608571Y-53481428D01*
X46694285Y-53481428D01*
X46751428Y-53510000D01*
X46779999Y-53538571D01*
X46808571Y-53595714D01*
X46808571Y-53767142D01*
X46779999Y-53824285D01*
X46751428Y-53852857D01*
X46694285Y-53881428D01*
X46608571Y-53881428D01*
X47008571Y-53481428D02*
X47122857Y-53881428D01*
X47237142Y-53595714D01*
X47351428Y-53881428D01*
X47465714Y-53481428D01*
X47922857Y-53852857D02*
X47865714Y-53881428D01*
X47751428Y-53881428D01*
X47694285Y-53852857D01*
X47665714Y-53795714D01*
X47665714Y-53567142D01*
X47694285Y-53510000D01*
X47751428Y-53481428D01*
X47865714Y-53481428D01*
X47922857Y-53510000D01*
X47951428Y-53567142D01*
X47951428Y-53624285D01*
X47665714Y-53681428D01*
X48208571Y-53481428D02*
X48208571Y-53881428D01*
X48208571Y-53538571D02*
X48237142Y-53510000D01*
X48294285Y-53481428D01*
X48380000Y-53481428D01*
X48437142Y-53510000D01*
X48465714Y-53567142D01*
X48465714Y-53881428D01*
X37665714Y-54418571D02*
X37694285Y-54390000D01*
X37751428Y-54361428D01*
X37894285Y-54361428D01*
X37951428Y-54390000D01*
X37980000Y-54418571D01*
X38008571Y-54475714D01*
X38008571Y-54532857D01*
X37980000Y-54618571D01*
X37637142Y-54961428D01*
X38008571Y-54961428D01*
X38380000Y-54361428D02*
X38437142Y-54361428D01*
X38494285Y-54390000D01*
X38522857Y-54418571D01*
X38551428Y-54475714D01*
X38580000Y-54590000D01*
X38580000Y-54732857D01*
X38551428Y-54847142D01*
X38522857Y-54904285D01*
X38494285Y-54932857D01*
X38437142Y-54961428D01*
X38380000Y-54961428D01*
X38322857Y-54932857D01*
X38294285Y-54904285D01*
X38265714Y-54847142D01*
X38237142Y-54732857D01*
X38237142Y-54590000D01*
X38265714Y-54475714D01*
X38294285Y-54418571D01*
X38322857Y-54390000D01*
X38380000Y-54361428D01*
X38808571Y-54418571D02*
X38837142Y-54390000D01*
X38894285Y-54361428D01*
X39037142Y-54361428D01*
X39094285Y-54390000D01*
X39122857Y-54418571D01*
X39151428Y-54475714D01*
X39151428Y-54532857D01*
X39122857Y-54618571D01*
X38780000Y-54961428D01*
X39151428Y-54961428D01*
X39351428Y-54361428D02*
X39722857Y-54361428D01*
X39522857Y-54590000D01*
X39608571Y-54590000D01*
X39665714Y-54618571D01*
X39694285Y-54647142D01*
X39722857Y-54704285D01*
X39722857Y-54847142D01*
X39694285Y-54904285D01*
X39665714Y-54932857D01*
X39608571Y-54961428D01*
X39437142Y-54961428D01*
X39380000Y-54932857D01*
X39351428Y-54904285D01*
X40408571Y-54332857D02*
X39894285Y-55104285D01*
X40922857Y-54961428D02*
X40580000Y-54961428D01*
X40751428Y-54961428D02*
X40751428Y-54361428D01*
X40694285Y-54447142D01*
X40637142Y-54504285D01*
X40580000Y-54532857D01*
X41608571Y-54332857D02*
X41094285Y-55104285D01*
X41751428Y-54361428D02*
X42122857Y-54361428D01*
X41922857Y-54590000D01*
X42008571Y-54590000D01*
X42065714Y-54618571D01*
X42094285Y-54647142D01*
X42122857Y-54704285D01*
X42122857Y-54847142D01*
X42094285Y-54904285D01*
X42065714Y-54932857D01*
X42008571Y-54961428D01*
X41837142Y-54961428D01*
X41780000Y-54932857D01*
X41751428Y-54904285D01*
X42494285Y-54361428D02*
X42551428Y-54361428D01*
X42608571Y-54390000D01*
X42637142Y-54418571D01*
X42665714Y-54475714D01*
X42694285Y-54590000D01*
X42694285Y-54732857D01*
X42665714Y-54847142D01*
X42637142Y-54904285D01*
X42608571Y-54932857D01*
X42551428Y-54961428D01*
X42494285Y-54961428D01*
X42437142Y-54932857D01*
X42408571Y-54904285D01*
X42380000Y-54847142D01*
X42351428Y-54732857D01*
X42351428Y-54590000D01*
X42380000Y-54475714D01*
X42408571Y-54418571D01*
X42437142Y-54390000D01*
X42494285Y-54361428D01*
D11*
%TO.C,R7*%
X78730000Y-79710000D03*
X78730000Y-78690000D03*
%TD*%
D12*
%TO.C,Y1*%
X60560000Y-81690000D03*
X61760000Y-81690000D03*
X62960000Y-81690000D03*
%TD*%
D13*
%TO.C,U1*%
X50500000Y-79112500D03*
X51000000Y-79112500D03*
X51500000Y-79112500D03*
X52000000Y-79112500D03*
X52500000Y-79112500D03*
X53000000Y-79112500D03*
X53500000Y-79112500D03*
X54000000Y-79112500D03*
X54500000Y-79112500D03*
X55000000Y-79112500D03*
X55500000Y-79112500D03*
X56000000Y-79112500D03*
X56500000Y-79112500D03*
X57000000Y-79112500D03*
X57500000Y-79112500D03*
X58000000Y-79112500D03*
X58500000Y-79112500D03*
X59000000Y-79112500D03*
X59500000Y-79112500D03*
X60000000Y-79112500D03*
X60500000Y-79112500D03*
X61000000Y-79112500D03*
X61500000Y-79112500D03*
X62000000Y-79112500D03*
X62500000Y-79112500D03*
X63000000Y-79112500D03*
X63500000Y-79112500D03*
X64000000Y-79112500D03*
X64500000Y-79112500D03*
X65000000Y-79112500D03*
X65500000Y-79112500D03*
X66000000Y-79112500D03*
X66500000Y-79112500D03*
X67000000Y-79112500D03*
X67500000Y-79112500D03*
X68000000Y-79112500D03*
D14*
X69912500Y-77200000D03*
X69912500Y-76700000D03*
X69912500Y-76200000D03*
X69912500Y-75700000D03*
X69912500Y-75200000D03*
X69912500Y-74700000D03*
X69912500Y-74200000D03*
X69912500Y-73700000D03*
X69912500Y-73200000D03*
X69912500Y-72700000D03*
X69912500Y-72200000D03*
X69912500Y-71700000D03*
X69912500Y-71200000D03*
X69912500Y-70700000D03*
X69912500Y-70200000D03*
X69912500Y-69700000D03*
X69912500Y-69200000D03*
X69912500Y-68700000D03*
X69912500Y-68200000D03*
X69912500Y-67700000D03*
X69912500Y-67200000D03*
X69912500Y-66700000D03*
X69912500Y-66200000D03*
X69912500Y-65700000D03*
X69912500Y-65200000D03*
X69912500Y-64700000D03*
X69912500Y-64200000D03*
X69912500Y-63700000D03*
X69912500Y-63200000D03*
X69912500Y-62700000D03*
X69912500Y-62200000D03*
X69912500Y-61700000D03*
X69912500Y-61200000D03*
X69912500Y-60700000D03*
X69912500Y-60200000D03*
X69912500Y-59700000D03*
D13*
X68000000Y-57787500D03*
X67500000Y-57787500D03*
X67000000Y-57787500D03*
X66500000Y-57787500D03*
X66000000Y-57787500D03*
X65500000Y-57787500D03*
X65000000Y-57787500D03*
X64500000Y-57787500D03*
X64000000Y-57787500D03*
X63500000Y-57787500D03*
X63000000Y-57787500D03*
X62500000Y-57787500D03*
X62000000Y-57787500D03*
X61500000Y-57787500D03*
X61000000Y-57787500D03*
X60500000Y-57787500D03*
X60000000Y-57787500D03*
X59500000Y-57787500D03*
X59000000Y-57787500D03*
X58500000Y-57787500D03*
X58000000Y-57787500D03*
X57500000Y-57787500D03*
X57000000Y-57787500D03*
X56500000Y-57787500D03*
X56000000Y-57787500D03*
X55500000Y-57787500D03*
X55000000Y-57787500D03*
X54500000Y-57787500D03*
X54000000Y-57787500D03*
X53500000Y-57787500D03*
X53000000Y-57787500D03*
X52500000Y-57787500D03*
X52000000Y-57787500D03*
X51500000Y-57787500D03*
X51000000Y-57787500D03*
X50500000Y-57787500D03*
D14*
X48587500Y-59700000D03*
X48587500Y-60200000D03*
X48587500Y-60700000D03*
X48587500Y-61200000D03*
X48587500Y-61700000D03*
X48587500Y-62200000D03*
X48587500Y-62700000D03*
X48587500Y-63200000D03*
X48587500Y-63700000D03*
X48587500Y-64200000D03*
X48587500Y-64700000D03*
X48587500Y-65200000D03*
X48587500Y-65700000D03*
X48587500Y-66200000D03*
X48587500Y-66700000D03*
X48587500Y-67200000D03*
X48587500Y-67700000D03*
X48587500Y-68200000D03*
X48587500Y-68700000D03*
X48587500Y-69200000D03*
X48587500Y-69700000D03*
X48587500Y-70200000D03*
X48587500Y-70700000D03*
X48587500Y-71200000D03*
X48587500Y-71700000D03*
X48587500Y-72200000D03*
X48587500Y-72700000D03*
X48587500Y-73200000D03*
X48587500Y-73700000D03*
X48587500Y-74200000D03*
X48587500Y-74700000D03*
X48587500Y-75200000D03*
X48587500Y-75700000D03*
X48587500Y-76200000D03*
X48587500Y-76700000D03*
X48587500Y-77200000D03*
%TD*%
D15*
%TO.C,C23*%
X66690000Y-80650000D03*
X66690000Y-81610000D03*
%TD*%
D16*
%TO.C,C41*%
X84970000Y-64080000D03*
X84970000Y-63120000D03*
%TD*%
D17*
%TO.C,C3*%
X56760000Y-56260000D03*
X57720000Y-56260000D03*
%TD*%
D15*
%TO.C,C12*%
X67680000Y-80650000D03*
X67680000Y-81610000D03*
%TD*%
D18*
%TO.C,D1*%
X37360000Y-82940000D03*
X38330000Y-82940000D03*
%TD*%
%TO.C,L1*%
X83995000Y-65050000D03*
X84965000Y-65050000D03*
%TD*%
D15*
%TO.C,C18*%
X71440000Y-69470000D03*
X71440000Y-70430000D03*
%TD*%
D19*
%TO.C,U2*%
X37655000Y-66845000D03*
X37655000Y-66095000D03*
X37655000Y-65345000D03*
X37655000Y-64595000D03*
X37655000Y-63845000D03*
X37655000Y-63095000D03*
X38405000Y-66845000D03*
X38405000Y-66095000D03*
X38405000Y-65345000D03*
X38405000Y-64595000D03*
X38405000Y-63845000D03*
X38405000Y-63095000D03*
X39155000Y-66845000D03*
X39155000Y-66095000D03*
X39155000Y-65345000D03*
X39155000Y-64595000D03*
X39155000Y-63845000D03*
X39155000Y-63095000D03*
X39905000Y-66845000D03*
X39905000Y-66095000D03*
X39905000Y-65345000D03*
X39905000Y-64595000D03*
X39905000Y-63845000D03*
X39905000Y-63095000D03*
X40655000Y-66845000D03*
X40655000Y-66095000D03*
X40655000Y-65345000D03*
X40655000Y-64595000D03*
X40655000Y-63845000D03*
X40655000Y-63095000D03*
X41405000Y-66845000D03*
X41405000Y-66095000D03*
X41405000Y-65345000D03*
X41405000Y-64595000D03*
X41405000Y-63845000D03*
X41405000Y-63095000D03*
X42155000Y-66845000D03*
X42155000Y-66095000D03*
X42155000Y-65345000D03*
X42155000Y-64595000D03*
X42155000Y-63845000D03*
X42155000Y-63095000D03*
X42905000Y-66845000D03*
X42905000Y-66095000D03*
X42905000Y-65345000D03*
X42905000Y-64595000D03*
X42905000Y-63845000D03*
X42905000Y-63095000D03*
%TD*%
D15*
%TO.C,C21*%
X72440000Y-59730000D03*
X72440000Y-60690000D03*
%TD*%
%TO.C,C16*%
X55210000Y-83130000D03*
X55210000Y-84090000D03*
%TD*%
D17*
%TO.C,C32*%
X76800000Y-78730000D03*
X77760000Y-78730000D03*
%TD*%
D16*
%TO.C,C38*%
X83010000Y-64080000D03*
X83010000Y-63120000D03*
%TD*%
D20*
%TO.C,SWD*%
X46410000Y-57640000D03*
X45110000Y-57640000D03*
X43810000Y-57640000D03*
%TD*%
D17*
%TO.C,C1*%
X62270000Y-56270000D03*
X63230000Y-56270000D03*
%TD*%
D16*
%TO.C,C6*%
X47050000Y-70930000D03*
X47050000Y-69970000D03*
%TD*%
%TO.C,C5*%
X47070000Y-66180000D03*
X47070000Y-65220000D03*
%TD*%
D17*
%TO.C,C14*%
X64770000Y-81620000D03*
X65730000Y-81620000D03*
%TD*%
D15*
%TO.C,C15*%
X53250000Y-83130000D03*
X53250000Y-84090000D03*
%TD*%
D16*
%TO.C,C33*%
X76750000Y-72250000D03*
X76750000Y-71290000D03*
%TD*%
D21*
%TO.C,U7*%
X80780000Y-65050000D03*
X80780000Y-64550000D03*
X80780000Y-64050000D03*
X80780000Y-63550000D03*
X80780000Y-63050000D03*
X80780000Y-62550000D03*
X80780000Y-62050000D03*
X80780000Y-61550000D03*
X80780000Y-61050000D03*
X80780000Y-60550000D03*
X80780000Y-60050000D03*
X80780000Y-59550000D03*
D22*
X80080000Y-58850000D03*
X79580000Y-58850000D03*
X79080000Y-58850000D03*
X78580000Y-58850000D03*
X78080000Y-58850000D03*
X77580000Y-58850000D03*
X77080000Y-58850000D03*
X76580000Y-58850000D03*
X76080000Y-58850000D03*
X75580000Y-58850000D03*
X75080000Y-58850000D03*
X74580000Y-58850000D03*
D21*
X73880000Y-59550000D03*
X73880000Y-60050000D03*
X73880000Y-60550000D03*
X73880000Y-61050000D03*
X73880000Y-61550000D03*
X73880000Y-62050000D03*
X73880000Y-62550000D03*
X73880000Y-63050000D03*
X73880000Y-63550000D03*
X73880000Y-64050000D03*
X73880000Y-64550000D03*
X73880000Y-65050000D03*
D22*
X74580000Y-65750000D03*
X75080000Y-65750000D03*
X75580000Y-65750000D03*
X76080000Y-65750000D03*
X76580000Y-65750000D03*
X77080000Y-65750000D03*
X77580000Y-65750000D03*
X78080000Y-65750000D03*
X78580000Y-65750000D03*
X79080000Y-65750000D03*
X79580000Y-65750000D03*
X80080000Y-65750000D03*
D23*
X77330000Y-62300000D03*
%TD*%
D24*
%TO.C,U4*%
X79500000Y-76750000D03*
X79500000Y-76250000D03*
X79500000Y-75750000D03*
X79500000Y-75250000D03*
X79500000Y-74750000D03*
X79500000Y-74250000D03*
D25*
X78800000Y-73550000D03*
X78300000Y-73550000D03*
X77800000Y-73550000D03*
X77300000Y-73550000D03*
X76800000Y-73550000D03*
X76300000Y-73550000D03*
D24*
X75600000Y-74250000D03*
X75600000Y-74750000D03*
X75600000Y-75250000D03*
X75600000Y-75750000D03*
X75600000Y-76250000D03*
X75600000Y-76750000D03*
D25*
X76300000Y-77450000D03*
X76800000Y-77450000D03*
X77300000Y-77450000D03*
X77800000Y-77450000D03*
X78300000Y-77450000D03*
X78800000Y-77450000D03*
%TD*%
D26*
%TO.C,J1*%
X81160000Y-55180000D03*
D20*
X79860000Y-55180000D03*
D27*
X78560000Y-55180000D03*
%TD*%
D16*
%TO.C,C40*%
X83990000Y-64080000D03*
X83990000Y-63120000D03*
%TD*%
D18*
%TO.C,D2*%
X37360000Y-80950000D03*
X38330000Y-80950000D03*
%TD*%
D28*
%TO.C,C22*%
X51230000Y-55260000D03*
X50270000Y-55260000D03*
%TD*%
D15*
%TO.C,C19*%
X71450000Y-64480000D03*
X71450000Y-65440000D03*
%TD*%
D29*
%TO.C,R2*%
X41260000Y-80950000D03*
X40240000Y-80950000D03*
%TD*%
D15*
%TO.C,C20*%
X71440000Y-59730000D03*
X71440000Y-60690000D03*
%TD*%
D16*
%TO.C,C37*%
X82030000Y-62180000D03*
X82030000Y-61220000D03*
%TD*%
D15*
%TO.C,C7*%
X47000000Y-77430000D03*
X47000000Y-78390000D03*
%TD*%
D20*
%TO.C,BOOT*%
X37570000Y-57640000D03*
X38870000Y-57640000D03*
X40170000Y-57640000D03*
%TD*%
D30*
%TO.C,Y2*%
X53000000Y-81650000D03*
X55500000Y-81650000D03*
%TD*%
D11*
%TO.C,R6*%
X77800000Y-72300000D03*
X77800000Y-71280000D03*
%TD*%
D16*
%TO.C,C11*%
X47000000Y-76480000D03*
X47000000Y-75520000D03*
%TD*%
D15*
%TO.C,C28*%
X78850000Y-71290000D03*
X78850000Y-72250000D03*
%TD*%
D31*
%TO.C,S2*%
X76024340Y-83560000D03*
X71824340Y-83560000D03*
%TD*%
D28*
%TO.C,C8*%
X58340000Y-80630000D03*
X57380000Y-80630000D03*
%TD*%
D32*
%TO.C,AE1*%
X84310000Y-67087500D03*
X84310000Y-72787500D03*
%TD*%
D17*
%TO.C,C4*%
X50270000Y-56260000D03*
X51230000Y-56260000D03*
%TD*%
D33*
%TO.C,R8*%
X82030000Y-59270000D03*
X82030000Y-60290000D03*
%TD*%
D11*
%TO.C,R5*%
X79740000Y-79710000D03*
X79740000Y-78690000D03*
%TD*%
D16*
%TO.C,C39*%
X82030000Y-64080000D03*
X82030000Y-63120000D03*
%TD*%
D29*
%TO.C,R1*%
X41260000Y-82940000D03*
X40240000Y-82940000D03*
%TD*%
D17*
%TO.C,C11*%
X64770000Y-80630000D03*
X65730000Y-80630000D03*
%TD*%
D31*
%TO.C,S1*%
X83320000Y-83560000D03*
X79120000Y-83560000D03*
%TD*%
D34*
%TO.C,U6*%
X74132500Y-53780000D03*
X74132500Y-54730000D03*
X74132500Y-55680000D03*
X76407500Y-55680000D03*
X76407500Y-53780000D03*
%TD*%
D15*
%TO.C,C30*%
X74330000Y-73280000D03*
X74330000Y-74240000D03*
%TD*%
D35*
%TO.C,U3*%
X46317500Y-83220000D03*
X46317500Y-82270000D03*
X46317500Y-81320000D03*
X44042500Y-81320000D03*
X44042500Y-83220000D03*
%TD*%
D36*
%TO.C,U5*%
X43273000Y-74805000D03*
X43273000Y-73535000D03*
X43273000Y-72265000D03*
X43273000Y-70995000D03*
X37247000Y-70995000D03*
X37247000Y-72265000D03*
X37247000Y-73535000D03*
X37247000Y-74805000D03*
D37*
X40260000Y-72900000D03*
%TD*%
D38*
%TO.C,CN2*%
X69360000Y-55790000D03*
X52360000Y-55790000D03*
%TD*%
%TO.C,CN1*%
X69360000Y-83560000D03*
X52360000Y-83560000D03*
%TD*%
M02*
