%TF.GenerationSoftware,KiCad,Pcbnew,(6.0.4)*%
%TF.CreationDate,2023-02-01T13:33:48+08:00*%
%TF.ProjectId,Core_M4,436f7265-5f4d-4342-9e6b-696361645f70,rev?*%
%TF.SameCoordinates,Original*%
%TF.FileFunction,Soldermask,Bot*%
%TF.FilePolarity,Negative*%
%FSLAX46Y46*%
G04 Gerber Fmt 4.6, Leading zero omitted, Abs format (unit mm)*
G04 Created by KiCad (PCBNEW (6.0.4)) date 2023-02-01 13:33:48*
%MOMM*%
%LPD*%
G01*
G04 APERTURE LIST*
G04 Aperture macros list*
%AMRoundRect*
0 Rectangle with rounded corners*
0 $1 Rounding radius*
0 $2 $3 $4 $5 $6 $7 $8 $9 X,Y pos of 4 corners*
0 Add a 4 corners polygon primitive as box body*
4,1,4,$2,$3,$4,$5,$6,$7,$8,$9,$2,$3,0*
0 Add four circle primitives for the rounded corners*
1,1,$1+$1,$2,$3*
1,1,$1+$1,$4,$5*
1,1,$1+$1,$6,$7*
1,1,$1+$1,$8,$9*
0 Add four rect primitives between the rounded corners*
20,1,$1+$1,$2,$3,$4,$5,0*
20,1,$1+$1,$4,$5,$6,$7,0*
20,1,$1+$1,$6,$7,$8,$9,0*
20,1,$1+$1,$8,$9,$2,$3,0*%
G04 Aperture macros list end*
%ADD10RoundRect,0.140000X-0.140000X-0.170000X0.140000X-0.170000X0.140000X0.170000X-0.140000X0.170000X0*%
%ADD11RoundRect,0.140000X0.170000X-0.140000X0.170000X0.140000X-0.170000X0.140000X-0.170000X-0.140000X0*%
%ADD12RoundRect,0.135000X0.135000X0.185000X-0.135000X0.185000X-0.135000X-0.185000X0.135000X-0.185000X0*%
%ADD13RoundRect,0.135000X-0.135000X-0.185000X0.135000X-0.185000X0.135000X0.185000X-0.135000X0.185000X0*%
%ADD14RoundRect,0.140000X-0.170000X0.140000X-0.170000X-0.140000X0.170000X-0.140000X0.170000X0.140000X0*%
%ADD15RoundRect,0.140000X0.140000X0.170000X-0.140000X0.170000X-0.140000X-0.170000X0.140000X-0.170000X0*%
%ADD16C,0.650000*%
%ADD17R,0.400000X1.945000*%
G04 APERTURE END LIST*
D10*
%TO.C,C29*%
X37260000Y-73520000D03*
X38220000Y-73520000D03*
%TD*%
D11*
%TO.C,C9*%
X43670000Y-83210000D03*
X43670000Y-82250000D03*
%TD*%
D10*
%TO.C,C24*%
X80820000Y-84030000D03*
X81780000Y-84030000D03*
%TD*%
D12*
%TO.C,R4*%
X81810000Y-83030000D03*
X80790000Y-83030000D03*
%TD*%
D13*
%TO.C,R3*%
X73410000Y-83110000D03*
X74430000Y-83110000D03*
%TD*%
D10*
%TO.C,C27*%
X39800000Y-62090000D03*
X40760000Y-62090000D03*
%TD*%
D14*
%TO.C,C17*%
X68570000Y-76290000D03*
X68570000Y-77250000D03*
%TD*%
D15*
%TO.C,C26*%
X40760000Y-67660000D03*
X39800000Y-67660000D03*
%TD*%
D10*
%TO.C,C31*%
X37260000Y-74800000D03*
X38220000Y-74800000D03*
%TD*%
D11*
%TO.C,C2*%
X46540000Y-83200000D03*
X46540000Y-82240000D03*
%TD*%
D16*
%TO.C,CN2*%
X69360000Y-55790000D03*
X52360000Y-55790000D03*
D17*
X68460000Y-56688000D03*
X68460000Y-52394000D03*
X67660000Y-56688000D03*
X67660000Y-52394000D03*
X66860000Y-56688000D03*
X66860000Y-52394000D03*
X66060000Y-56688000D03*
X66060000Y-52394000D03*
X65260000Y-56688000D03*
X65260000Y-52394000D03*
X64460000Y-56688000D03*
X64460000Y-52394000D03*
X63660000Y-56688000D03*
X63660000Y-52394000D03*
X62860000Y-56688000D03*
X62860000Y-52394000D03*
X62060000Y-56688000D03*
X62060000Y-52394000D03*
X61260000Y-56688000D03*
X61260000Y-52394000D03*
X60460000Y-56688000D03*
X60460000Y-52394000D03*
X59660000Y-56688000D03*
X59660000Y-52394000D03*
X58860000Y-56688000D03*
X58860000Y-52394000D03*
X58060000Y-56688000D03*
X58060000Y-52394000D03*
X57260000Y-56688000D03*
X57260000Y-52392000D03*
X56460000Y-56688000D03*
X56460000Y-52392000D03*
X55660000Y-56688000D03*
X55660000Y-52392000D03*
X54860000Y-56688000D03*
X54860000Y-52392000D03*
X54060000Y-56688000D03*
X54060000Y-52392000D03*
X53260000Y-56688000D03*
X53260000Y-52392000D03*
%TD*%
D10*
%TO.C,C10*%
X44620000Y-82280000D03*
X45580000Y-82280000D03*
%TD*%
%TO.C,C13*%
X52770000Y-77720000D03*
X53730000Y-77720000D03*
%TD*%
D16*
%TO.C,CN1*%
X69360000Y-83560000D03*
X52360000Y-83560000D03*
D17*
X68460000Y-84458000D03*
X68460000Y-80164000D03*
X67660000Y-84458000D03*
X67660000Y-80164000D03*
X66860000Y-84458000D03*
X66860000Y-80164000D03*
X66060000Y-84458000D03*
X66060000Y-80164000D03*
X65260000Y-84458000D03*
X65260000Y-80164000D03*
X64460000Y-84458000D03*
X64460000Y-80164000D03*
X63660000Y-84458000D03*
X63660000Y-80164000D03*
X62860000Y-84458000D03*
X62860000Y-80164000D03*
X62060000Y-84458000D03*
X62060000Y-80164000D03*
X61260000Y-84458000D03*
X61260000Y-80164000D03*
X60460000Y-84458000D03*
X60460000Y-80164000D03*
X59660000Y-84458000D03*
X59660000Y-80164000D03*
X58860000Y-84458000D03*
X58860000Y-80164000D03*
X58060000Y-84458000D03*
X58060000Y-80164000D03*
X57260000Y-84458000D03*
X57260000Y-80162000D03*
X56460000Y-84458000D03*
X56460000Y-80162000D03*
X55660000Y-84458000D03*
X55660000Y-80162000D03*
X54860000Y-84458000D03*
X54860000Y-80162000D03*
X54060000Y-84458000D03*
X54060000Y-80162000D03*
X53260000Y-84458000D03*
X53260000Y-80162000D03*
%TD*%
D10*
%TO.C,C25*%
X73430000Y-84120000D03*
X74390000Y-84120000D03*
%TD*%
D15*
%TO.C,C36*%
X75755000Y-54700000D03*
X74795000Y-54700000D03*
%TD*%
D14*
%TO.C,C34*%
X73830000Y-53770000D03*
X73830000Y-54730000D03*
%TD*%
%TO.C,C35*%
X76720000Y-53770000D03*
X76720000Y-54730000D03*
%TD*%
M02*
