%TF.GenerationSoftware,KiCad,Pcbnew,(6.0.4)*%
%TF.CreationDate,2023-02-01T13:33:48+08:00*%
%TF.ProjectId,Core_M4,436f7265-5f4d-4342-9e6b-696361645f70,rev?*%
%TF.SameCoordinates,Original*%
%TF.FileFunction,Paste,Top*%
%TF.FilePolarity,Positive*%
%FSLAX46Y46*%
G04 Gerber Fmt 4.6, Leading zero omitted, Abs format (unit mm)*
G04 Created by KiCad (PCBNEW (6.0.4)) date 2023-02-01 13:33:48*
%MOMM*%
%LPD*%
G01*
G04 APERTURE LIST*
G04 Aperture macros list*
%AMRoundRect*
0 Rectangle with rounded corners*
0 $1 Rounding radius*
0 $2 $3 $4 $5 $6 $7 $8 $9 X,Y pos of 4 corners*
0 Add a 4 corners polygon primitive as box body*
4,1,4,$2,$3,$4,$5,$6,$7,$8,$9,$2,$3,0*
0 Add four circle primitives for the rounded corners*
1,1,$1+$1,$2,$3*
1,1,$1+$1,$4,$5*
1,1,$1+$1,$6,$7*
1,1,$1+$1,$8,$9*
0 Add four rect primitives between the rounded corners*
20,1,$1+$1,$2,$3,$4,$5,0*
20,1,$1+$1,$4,$5,$6,$7,0*
20,1,$1+$1,$6,$7,$8,$9,0*
20,1,$1+$1,$8,$9,$2,$3,0*%
G04 Aperture macros list end*
%ADD10C,0.120000*%
%ADD11RoundRect,0.135000X0.185000X-0.135000X0.185000X0.135000X-0.185000X0.135000X-0.185000X-0.135000X0*%
%ADD12R,0.400000X1.900000*%
%ADD13RoundRect,0.075000X0.075000X-0.662500X0.075000X0.662500X-0.075000X0.662500X-0.075000X-0.662500X0*%
%ADD14RoundRect,0.075000X0.662500X-0.075000X0.662500X0.075000X-0.662500X0.075000X-0.662500X-0.075000X0*%
%ADD15RoundRect,0.140000X-0.170000X0.140000X-0.170000X-0.140000X0.170000X-0.140000X0.170000X0.140000X0*%
%ADD16RoundRect,0.140000X0.170000X-0.140000X0.170000X0.140000X-0.170000X0.140000X-0.170000X-0.140000X0*%
%ADD17RoundRect,0.140000X-0.140000X-0.170000X0.140000X-0.170000X0.140000X0.170000X-0.140000X0.170000X0*%
%ADD18RoundRect,0.147500X-0.147500X-0.172500X0.147500X-0.172500X0.147500X0.172500X-0.147500X0.172500X0*%
%ADD19C,0.400000*%
%ADD20RoundRect,0.250000X0.285000X0.285000X-0.285000X0.285000X-0.285000X-0.285000X0.285000X-0.285000X0*%
%ADD21RoundRect,0.062500X0.337500X0.062500X-0.337500X0.062500X-0.337500X-0.062500X0.337500X-0.062500X0*%
%ADD22RoundRect,0.062500X0.062500X0.337500X-0.062500X0.337500X-0.062500X-0.337500X0.062500X-0.337500X0*%
%ADD23RoundRect,0.075000X0.350000X0.075000X-0.350000X0.075000X-0.350000X-0.075000X0.350000X-0.075000X0*%
%ADD24RoundRect,0.075000X-0.075000X0.350000X-0.075000X-0.350000X0.075000X-0.350000X0.075000X0.350000X0*%
%ADD25RoundRect,0.140000X0.140000X0.170000X-0.140000X0.170000X-0.140000X-0.170000X0.140000X-0.170000X0*%
%ADD26RoundRect,0.135000X0.135000X0.185000X-0.135000X0.185000X-0.135000X-0.185000X0.135000X-0.185000X0*%
%ADD27R,1.000000X1.800000*%
%ADD28R,0.800000X2.000000*%
%ADD29RoundRect,0.250000X-0.850000X0.350000X-0.850000X-0.350000X0.850000X-0.350000X0.850000X0.350000X0*%
%ADD30RoundRect,0.135000X-0.185000X0.135000X-0.185000X-0.135000X0.185000X-0.135000X0.185000X0.135000X0*%
%ADD31RoundRect,0.150000X-0.512500X-0.150000X0.512500X-0.150000X0.512500X0.150000X-0.512500X0.150000X0*%
%ADD32RoundRect,0.150000X0.512500X0.150000X-0.512500X0.150000X-0.512500X-0.150000X0.512500X-0.150000X0*%
%ADD33O,1.276000X0.581000*%
%ADD34R,3.400000X4.300000*%
G04 APERTURE END LIST*
%TO.C,U2*%
G36*
X42295000Y-64483000D02*
G01*
X42295000Y-64707000D01*
X42267000Y-64735000D01*
X42043000Y-64735000D01*
X42015000Y-64707000D01*
X42015000Y-64483000D01*
X42043000Y-64455000D01*
X42267000Y-64455000D01*
X42295000Y-64483000D01*
G37*
D10*
X42295000Y-64483000D02*
X42295000Y-64707000D01*
X42267000Y-64735000D01*
X42043000Y-64735000D01*
X42015000Y-64707000D01*
X42015000Y-64483000D01*
X42043000Y-64455000D01*
X42267000Y-64455000D01*
X42295000Y-64483000D01*
G36*
X38545000Y-65233000D02*
G01*
X38545000Y-65457000D01*
X38517000Y-65485000D01*
X38293000Y-65485000D01*
X38265000Y-65457000D01*
X38265000Y-65233000D01*
X38293000Y-65205000D01*
X38517000Y-65205000D01*
X38545000Y-65233000D01*
G37*
X38545000Y-65233000D02*
X38545000Y-65457000D01*
X38517000Y-65485000D01*
X38293000Y-65485000D01*
X38265000Y-65457000D01*
X38265000Y-65233000D01*
X38293000Y-65205000D01*
X38517000Y-65205000D01*
X38545000Y-65233000D01*
G36*
X40045000Y-65233000D02*
G01*
X40045000Y-65457000D01*
X40017000Y-65485000D01*
X39793000Y-65485000D01*
X39765000Y-65457000D01*
X39765000Y-65233000D01*
X39793000Y-65205000D01*
X40017000Y-65205000D01*
X40045000Y-65233000D01*
G37*
X40045000Y-65233000D02*
X40045000Y-65457000D01*
X40017000Y-65485000D01*
X39793000Y-65485000D01*
X39765000Y-65457000D01*
X39765000Y-65233000D01*
X39793000Y-65205000D01*
X40017000Y-65205000D01*
X40045000Y-65233000D01*
G36*
X39295000Y-64483000D02*
G01*
X39295000Y-64707000D01*
X39267000Y-64735000D01*
X39043000Y-64735000D01*
X39015000Y-64707000D01*
X39015000Y-64483000D01*
X39043000Y-64455000D01*
X39267000Y-64455000D01*
X39295000Y-64483000D01*
G37*
X39295000Y-64483000D02*
X39295000Y-64707000D01*
X39267000Y-64735000D01*
X39043000Y-64735000D01*
X39015000Y-64707000D01*
X39015000Y-64483000D01*
X39043000Y-64455000D01*
X39267000Y-64455000D01*
X39295000Y-64483000D01*
G36*
X42295000Y-66733000D02*
G01*
X42295000Y-66957000D01*
X42267000Y-66985000D01*
X42043000Y-66985000D01*
X42015000Y-66957000D01*
X42015000Y-66733000D01*
X42043000Y-66705000D01*
X42267000Y-66705000D01*
X42295000Y-66733000D01*
G37*
X42295000Y-66733000D02*
X42295000Y-66957000D01*
X42267000Y-66985000D01*
X42043000Y-66985000D01*
X42015000Y-66957000D01*
X42015000Y-66733000D01*
X42043000Y-66705000D01*
X42267000Y-66705000D01*
X42295000Y-66733000D01*
G36*
X43045000Y-62983000D02*
G01*
X43045000Y-63207000D01*
X43017000Y-63235000D01*
X42793000Y-63235000D01*
X42765000Y-63207000D01*
X42765000Y-62983000D01*
X42793000Y-62955000D01*
X43017000Y-62955000D01*
X43045000Y-62983000D01*
G37*
X43045000Y-62983000D02*
X43045000Y-63207000D01*
X43017000Y-63235000D01*
X42793000Y-63235000D01*
X42765000Y-63207000D01*
X42765000Y-62983000D01*
X42793000Y-62955000D01*
X43017000Y-62955000D01*
X43045000Y-62983000D01*
G36*
X41545000Y-63733000D02*
G01*
X41545000Y-63957000D01*
X41517000Y-63985000D01*
X41293000Y-63985000D01*
X41265000Y-63957000D01*
X41265000Y-63733000D01*
X41293000Y-63705000D01*
X41517000Y-63705000D01*
X41545000Y-63733000D01*
G37*
X41545000Y-63733000D02*
X41545000Y-63957000D01*
X41517000Y-63985000D01*
X41293000Y-63985000D01*
X41265000Y-63957000D01*
X41265000Y-63733000D01*
X41293000Y-63705000D01*
X41517000Y-63705000D01*
X41545000Y-63733000D01*
G36*
X41545000Y-66733000D02*
G01*
X41545000Y-66957000D01*
X41517000Y-66985000D01*
X41293000Y-66985000D01*
X41265000Y-66957000D01*
X41265000Y-66733000D01*
X41293000Y-66705000D01*
X41517000Y-66705000D01*
X41545000Y-66733000D01*
G37*
X41545000Y-66733000D02*
X41545000Y-66957000D01*
X41517000Y-66985000D01*
X41293000Y-66985000D01*
X41265000Y-66957000D01*
X41265000Y-66733000D01*
X41293000Y-66705000D01*
X41517000Y-66705000D01*
X41545000Y-66733000D01*
G36*
X39295000Y-65233000D02*
G01*
X39295000Y-65457000D01*
X39267000Y-65485000D01*
X39043000Y-65485000D01*
X39015000Y-65457000D01*
X39015000Y-65233000D01*
X39043000Y-65205000D01*
X39267000Y-65205000D01*
X39295000Y-65233000D01*
G37*
X39295000Y-65233000D02*
X39295000Y-65457000D01*
X39267000Y-65485000D01*
X39043000Y-65485000D01*
X39015000Y-65457000D01*
X39015000Y-65233000D01*
X39043000Y-65205000D01*
X39267000Y-65205000D01*
X39295000Y-65233000D01*
G36*
X42295000Y-62983000D02*
G01*
X42295000Y-63207000D01*
X42267000Y-63235000D01*
X42043000Y-63235000D01*
X42015000Y-63207000D01*
X42015000Y-62983000D01*
X42043000Y-62955000D01*
X42267000Y-62955000D01*
X42295000Y-62983000D01*
G37*
X42295000Y-62983000D02*
X42295000Y-63207000D01*
X42267000Y-63235000D01*
X42043000Y-63235000D01*
X42015000Y-63207000D01*
X42015000Y-62983000D01*
X42043000Y-62955000D01*
X42267000Y-62955000D01*
X42295000Y-62983000D01*
G36*
X40045000Y-64483000D02*
G01*
X40045000Y-64707000D01*
X40017000Y-64735000D01*
X39793000Y-64735000D01*
X39765000Y-64707000D01*
X39765000Y-64483000D01*
X39793000Y-64455000D01*
X40017000Y-64455000D01*
X40045000Y-64483000D01*
G37*
X40045000Y-64483000D02*
X40045000Y-64707000D01*
X40017000Y-64735000D01*
X39793000Y-64735000D01*
X39765000Y-64707000D01*
X39765000Y-64483000D01*
X39793000Y-64455000D01*
X40017000Y-64455000D01*
X40045000Y-64483000D01*
G36*
X42295000Y-63733000D02*
G01*
X42295000Y-63957000D01*
X42267000Y-63985000D01*
X42043000Y-63985000D01*
X42015000Y-63957000D01*
X42015000Y-63733000D01*
X42043000Y-63705000D01*
X42267000Y-63705000D01*
X42295000Y-63733000D01*
G37*
X42295000Y-63733000D02*
X42295000Y-63957000D01*
X42267000Y-63985000D01*
X42043000Y-63985000D01*
X42015000Y-63957000D01*
X42015000Y-63733000D01*
X42043000Y-63705000D01*
X42267000Y-63705000D01*
X42295000Y-63733000D01*
G36*
X37795000Y-65233000D02*
G01*
X37795000Y-65457000D01*
X37767000Y-65485000D01*
X37543000Y-65485000D01*
X37515000Y-65457000D01*
X37515000Y-65233000D01*
X37543000Y-65205000D01*
X37767000Y-65205000D01*
X37795000Y-65233000D01*
G37*
X37795000Y-65233000D02*
X37795000Y-65457000D01*
X37767000Y-65485000D01*
X37543000Y-65485000D01*
X37515000Y-65457000D01*
X37515000Y-65233000D01*
X37543000Y-65205000D01*
X37767000Y-65205000D01*
X37795000Y-65233000D01*
G36*
X43045000Y-65233000D02*
G01*
X43045000Y-65457000D01*
X43017000Y-65485000D01*
X42793000Y-65485000D01*
X42765000Y-65457000D01*
X42765000Y-65233000D01*
X42793000Y-65205000D01*
X43017000Y-65205000D01*
X43045000Y-65233000D01*
G37*
X43045000Y-65233000D02*
X43045000Y-65457000D01*
X43017000Y-65485000D01*
X42793000Y-65485000D01*
X42765000Y-65457000D01*
X42765000Y-65233000D01*
X42793000Y-65205000D01*
X43017000Y-65205000D01*
X43045000Y-65233000D01*
G36*
X39295000Y-63733000D02*
G01*
X39295000Y-63957000D01*
X39267000Y-63985000D01*
X39043000Y-63985000D01*
X39015000Y-63957000D01*
X39015000Y-63733000D01*
X39043000Y-63705000D01*
X39267000Y-63705000D01*
X39295000Y-63733000D01*
G37*
X39295000Y-63733000D02*
X39295000Y-63957000D01*
X39267000Y-63985000D01*
X39043000Y-63985000D01*
X39015000Y-63957000D01*
X39015000Y-63733000D01*
X39043000Y-63705000D01*
X39267000Y-63705000D01*
X39295000Y-63733000D01*
G36*
X40795000Y-66733000D02*
G01*
X40795000Y-66957000D01*
X40767000Y-66985000D01*
X40543000Y-66985000D01*
X40515000Y-66957000D01*
X40515000Y-66733000D01*
X40543000Y-66705000D01*
X40767000Y-66705000D01*
X40795000Y-66733000D01*
G37*
X40795000Y-66733000D02*
X40795000Y-66957000D01*
X40767000Y-66985000D01*
X40543000Y-66985000D01*
X40515000Y-66957000D01*
X40515000Y-66733000D01*
X40543000Y-66705000D01*
X40767000Y-66705000D01*
X40795000Y-66733000D01*
G36*
X43045000Y-64483000D02*
G01*
X43045000Y-64707000D01*
X43017000Y-64735000D01*
X42793000Y-64735000D01*
X42765000Y-64707000D01*
X42765000Y-64483000D01*
X42793000Y-64455000D01*
X43017000Y-64455000D01*
X43045000Y-64483000D01*
G37*
X43045000Y-64483000D02*
X43045000Y-64707000D01*
X43017000Y-64735000D01*
X42793000Y-64735000D01*
X42765000Y-64707000D01*
X42765000Y-64483000D01*
X42793000Y-64455000D01*
X43017000Y-64455000D01*
X43045000Y-64483000D01*
G36*
X40795000Y-65233000D02*
G01*
X40795000Y-65457000D01*
X40767000Y-65485000D01*
X40543000Y-65485000D01*
X40515000Y-65457000D01*
X40515000Y-65233000D01*
X40543000Y-65205000D01*
X40767000Y-65205000D01*
X40795000Y-65233000D01*
G37*
X40795000Y-65233000D02*
X40795000Y-65457000D01*
X40767000Y-65485000D01*
X40543000Y-65485000D01*
X40515000Y-65457000D01*
X40515000Y-65233000D01*
X40543000Y-65205000D01*
X40767000Y-65205000D01*
X40795000Y-65233000D01*
G36*
X38545000Y-64483000D02*
G01*
X38545000Y-64707000D01*
X38517000Y-64735000D01*
X38293000Y-64735000D01*
X38265000Y-64707000D01*
X38265000Y-64483000D01*
X38293000Y-64455000D01*
X38517000Y-64455000D01*
X38545000Y-64483000D01*
G37*
X38545000Y-64483000D02*
X38545000Y-64707000D01*
X38517000Y-64735000D01*
X38293000Y-64735000D01*
X38265000Y-64707000D01*
X38265000Y-64483000D01*
X38293000Y-64455000D01*
X38517000Y-64455000D01*
X38545000Y-64483000D01*
G36*
X41545000Y-62983000D02*
G01*
X41545000Y-63207000D01*
X41517000Y-63235000D01*
X41293000Y-63235000D01*
X41265000Y-63207000D01*
X41265000Y-62983000D01*
X41293000Y-62955000D01*
X41517000Y-62955000D01*
X41545000Y-62983000D01*
G37*
X41545000Y-62983000D02*
X41545000Y-63207000D01*
X41517000Y-63235000D01*
X41293000Y-63235000D01*
X41265000Y-63207000D01*
X41265000Y-62983000D01*
X41293000Y-62955000D01*
X41517000Y-62955000D01*
X41545000Y-62983000D01*
G36*
X42295000Y-65233000D02*
G01*
X42295000Y-65457000D01*
X42267000Y-65485000D01*
X42043000Y-65485000D01*
X42015000Y-65457000D01*
X42015000Y-65233000D01*
X42043000Y-65205000D01*
X42267000Y-65205000D01*
X42295000Y-65233000D01*
G37*
X42295000Y-65233000D02*
X42295000Y-65457000D01*
X42267000Y-65485000D01*
X42043000Y-65485000D01*
X42015000Y-65457000D01*
X42015000Y-65233000D01*
X42043000Y-65205000D01*
X42267000Y-65205000D01*
X42295000Y-65233000D01*
G36*
X40045000Y-65983000D02*
G01*
X40045000Y-66207000D01*
X40017000Y-66235000D01*
X39793000Y-66235000D01*
X39765000Y-66207000D01*
X39765000Y-65983000D01*
X39793000Y-65955000D01*
X40017000Y-65955000D01*
X40045000Y-65983000D01*
G37*
X40045000Y-65983000D02*
X40045000Y-66207000D01*
X40017000Y-66235000D01*
X39793000Y-66235000D01*
X39765000Y-66207000D01*
X39765000Y-65983000D01*
X39793000Y-65955000D01*
X40017000Y-65955000D01*
X40045000Y-65983000D01*
G36*
X39295000Y-65983000D02*
G01*
X39295000Y-66207000D01*
X39267000Y-66235000D01*
X39043000Y-66235000D01*
X39015000Y-66207000D01*
X39015000Y-65983000D01*
X39043000Y-65955000D01*
X39267000Y-65955000D01*
X39295000Y-65983000D01*
G37*
X39295000Y-65983000D02*
X39295000Y-66207000D01*
X39267000Y-66235000D01*
X39043000Y-66235000D01*
X39015000Y-66207000D01*
X39015000Y-65983000D01*
X39043000Y-65955000D01*
X39267000Y-65955000D01*
X39295000Y-65983000D01*
G36*
X40045000Y-66733000D02*
G01*
X40045000Y-66957000D01*
X40017000Y-66985000D01*
X39793000Y-66985000D01*
X39765000Y-66957000D01*
X39765000Y-66733000D01*
X39793000Y-66705000D01*
X40017000Y-66705000D01*
X40045000Y-66733000D01*
G37*
X40045000Y-66733000D02*
X40045000Y-66957000D01*
X40017000Y-66985000D01*
X39793000Y-66985000D01*
X39765000Y-66957000D01*
X39765000Y-66733000D01*
X39793000Y-66705000D01*
X40017000Y-66705000D01*
X40045000Y-66733000D01*
G36*
X38545000Y-66733000D02*
G01*
X38545000Y-66957000D01*
X38517000Y-66985000D01*
X38293000Y-66985000D01*
X38265000Y-66957000D01*
X38265000Y-66733000D01*
X38293000Y-66705000D01*
X38517000Y-66705000D01*
X38545000Y-66733000D01*
G37*
X38545000Y-66733000D02*
X38545000Y-66957000D01*
X38517000Y-66985000D01*
X38293000Y-66985000D01*
X38265000Y-66957000D01*
X38265000Y-66733000D01*
X38293000Y-66705000D01*
X38517000Y-66705000D01*
X38545000Y-66733000D01*
G36*
X40045000Y-62983000D02*
G01*
X40045000Y-63207000D01*
X40017000Y-63235000D01*
X39793000Y-63235000D01*
X39765000Y-63207000D01*
X39765000Y-62983000D01*
X39793000Y-62955000D01*
X40017000Y-62955000D01*
X40045000Y-62983000D01*
G37*
X40045000Y-62983000D02*
X40045000Y-63207000D01*
X40017000Y-63235000D01*
X39793000Y-63235000D01*
X39765000Y-63207000D01*
X39765000Y-62983000D01*
X39793000Y-62955000D01*
X40017000Y-62955000D01*
X40045000Y-62983000D01*
G36*
X38545000Y-63733000D02*
G01*
X38545000Y-63957000D01*
X38517000Y-63985000D01*
X38293000Y-63985000D01*
X38265000Y-63957000D01*
X38265000Y-63733000D01*
X38293000Y-63705000D01*
X38517000Y-63705000D01*
X38545000Y-63733000D01*
G37*
X38545000Y-63733000D02*
X38545000Y-63957000D01*
X38517000Y-63985000D01*
X38293000Y-63985000D01*
X38265000Y-63957000D01*
X38265000Y-63733000D01*
X38293000Y-63705000D01*
X38517000Y-63705000D01*
X38545000Y-63733000D01*
G36*
X39295000Y-62983000D02*
G01*
X39295000Y-63207000D01*
X39267000Y-63235000D01*
X39043000Y-63235000D01*
X39015000Y-63207000D01*
X39015000Y-62983000D01*
X39043000Y-62955000D01*
X39267000Y-62955000D01*
X39295000Y-62983000D01*
G37*
X39295000Y-62983000D02*
X39295000Y-63207000D01*
X39267000Y-63235000D01*
X39043000Y-63235000D01*
X39015000Y-63207000D01*
X39015000Y-62983000D01*
X39043000Y-62955000D01*
X39267000Y-62955000D01*
X39295000Y-62983000D01*
G36*
X37795000Y-62983000D02*
G01*
X37795000Y-63207000D01*
X37767000Y-63235000D01*
X37543000Y-63235000D01*
X37515000Y-63207000D01*
X37515000Y-62983000D01*
X37543000Y-62955000D01*
X37767000Y-62955000D01*
X37795000Y-62983000D01*
G37*
X37795000Y-62983000D02*
X37795000Y-63207000D01*
X37767000Y-63235000D01*
X37543000Y-63235000D01*
X37515000Y-63207000D01*
X37515000Y-62983000D01*
X37543000Y-62955000D01*
X37767000Y-62955000D01*
X37795000Y-62983000D01*
G36*
X38545000Y-62983000D02*
G01*
X38545000Y-63207000D01*
X38517000Y-63235000D01*
X38293000Y-63235000D01*
X38265000Y-63207000D01*
X38265000Y-62983000D01*
X38293000Y-62955000D01*
X38517000Y-62955000D01*
X38545000Y-62983000D01*
G37*
X38545000Y-62983000D02*
X38545000Y-63207000D01*
X38517000Y-63235000D01*
X38293000Y-63235000D01*
X38265000Y-63207000D01*
X38265000Y-62983000D01*
X38293000Y-62955000D01*
X38517000Y-62955000D01*
X38545000Y-62983000D01*
G36*
X41545000Y-64483000D02*
G01*
X41545000Y-64707000D01*
X41517000Y-64735000D01*
X41293000Y-64735000D01*
X41265000Y-64707000D01*
X41265000Y-64483000D01*
X41293000Y-64455000D01*
X41517000Y-64455000D01*
X41545000Y-64483000D01*
G37*
X41545000Y-64483000D02*
X41545000Y-64707000D01*
X41517000Y-64735000D01*
X41293000Y-64735000D01*
X41265000Y-64707000D01*
X41265000Y-64483000D01*
X41293000Y-64455000D01*
X41517000Y-64455000D01*
X41545000Y-64483000D01*
G36*
X37795000Y-63733000D02*
G01*
X37795000Y-63957000D01*
X37767000Y-63985000D01*
X37543000Y-63985000D01*
X37515000Y-63957000D01*
X37515000Y-63733000D01*
X37543000Y-63705000D01*
X37767000Y-63705000D01*
X37795000Y-63733000D01*
G37*
X37795000Y-63733000D02*
X37795000Y-63957000D01*
X37767000Y-63985000D01*
X37543000Y-63985000D01*
X37515000Y-63957000D01*
X37515000Y-63733000D01*
X37543000Y-63705000D01*
X37767000Y-63705000D01*
X37795000Y-63733000D01*
G36*
X37795000Y-64483000D02*
G01*
X37795000Y-64707000D01*
X37767000Y-64735000D01*
X37543000Y-64735000D01*
X37515000Y-64707000D01*
X37515000Y-64483000D01*
X37543000Y-64455000D01*
X37767000Y-64455000D01*
X37795000Y-64483000D01*
G37*
X37795000Y-64483000D02*
X37795000Y-64707000D01*
X37767000Y-64735000D01*
X37543000Y-64735000D01*
X37515000Y-64707000D01*
X37515000Y-64483000D01*
X37543000Y-64455000D01*
X37767000Y-64455000D01*
X37795000Y-64483000D01*
G36*
X43045000Y-65983000D02*
G01*
X43045000Y-66207000D01*
X43017000Y-66235000D01*
X42793000Y-66235000D01*
X42765000Y-66207000D01*
X42765000Y-65983000D01*
X42793000Y-65955000D01*
X43017000Y-65955000D01*
X43045000Y-65983000D01*
G37*
X43045000Y-65983000D02*
X43045000Y-66207000D01*
X43017000Y-66235000D01*
X42793000Y-66235000D01*
X42765000Y-66207000D01*
X42765000Y-65983000D01*
X42793000Y-65955000D01*
X43017000Y-65955000D01*
X43045000Y-65983000D01*
G36*
X37795000Y-66733000D02*
G01*
X37795000Y-66957000D01*
X37767000Y-66985000D01*
X37543000Y-66985000D01*
X37515000Y-66957000D01*
X37515000Y-66733000D01*
X37543000Y-66705000D01*
X37767000Y-66705000D01*
X37795000Y-66733000D01*
G37*
X37795000Y-66733000D02*
X37795000Y-66957000D01*
X37767000Y-66985000D01*
X37543000Y-66985000D01*
X37515000Y-66957000D01*
X37515000Y-66733000D01*
X37543000Y-66705000D01*
X37767000Y-66705000D01*
X37795000Y-66733000D01*
G36*
X42295000Y-65983000D02*
G01*
X42295000Y-66207000D01*
X42267000Y-66235000D01*
X42043000Y-66235000D01*
X42015000Y-66207000D01*
X42015000Y-65983000D01*
X42043000Y-65955000D01*
X42267000Y-65955000D01*
X42295000Y-65983000D01*
G37*
X42295000Y-65983000D02*
X42295000Y-66207000D01*
X42267000Y-66235000D01*
X42043000Y-66235000D01*
X42015000Y-66207000D01*
X42015000Y-65983000D01*
X42043000Y-65955000D01*
X42267000Y-65955000D01*
X42295000Y-65983000D01*
G36*
X38545000Y-65983000D02*
G01*
X38545000Y-66207000D01*
X38517000Y-66235000D01*
X38293000Y-66235000D01*
X38265000Y-66207000D01*
X38265000Y-65983000D01*
X38293000Y-65955000D01*
X38517000Y-65955000D01*
X38545000Y-65983000D01*
G37*
X38545000Y-65983000D02*
X38545000Y-66207000D01*
X38517000Y-66235000D01*
X38293000Y-66235000D01*
X38265000Y-66207000D01*
X38265000Y-65983000D01*
X38293000Y-65955000D01*
X38517000Y-65955000D01*
X38545000Y-65983000D01*
G36*
X41545000Y-65233000D02*
G01*
X41545000Y-65457000D01*
X41517000Y-65485000D01*
X41293000Y-65485000D01*
X41265000Y-65457000D01*
X41265000Y-65233000D01*
X41293000Y-65205000D01*
X41517000Y-65205000D01*
X41545000Y-65233000D01*
G37*
X41545000Y-65233000D02*
X41545000Y-65457000D01*
X41517000Y-65485000D01*
X41293000Y-65485000D01*
X41265000Y-65457000D01*
X41265000Y-65233000D01*
X41293000Y-65205000D01*
X41517000Y-65205000D01*
X41545000Y-65233000D01*
G36*
X41545000Y-65983000D02*
G01*
X41545000Y-66207000D01*
X41517000Y-66235000D01*
X41293000Y-66235000D01*
X41265000Y-66207000D01*
X41265000Y-65983000D01*
X41293000Y-65955000D01*
X41517000Y-65955000D01*
X41545000Y-65983000D01*
G37*
X41545000Y-65983000D02*
X41545000Y-66207000D01*
X41517000Y-66235000D01*
X41293000Y-66235000D01*
X41265000Y-66207000D01*
X41265000Y-65983000D01*
X41293000Y-65955000D01*
X41517000Y-65955000D01*
X41545000Y-65983000D01*
G36*
X40045000Y-63733000D02*
G01*
X40045000Y-63957000D01*
X40017000Y-63985000D01*
X39793000Y-63985000D01*
X39765000Y-63957000D01*
X39765000Y-63733000D01*
X39793000Y-63705000D01*
X40017000Y-63705000D01*
X40045000Y-63733000D01*
G37*
X40045000Y-63733000D02*
X40045000Y-63957000D01*
X40017000Y-63985000D01*
X39793000Y-63985000D01*
X39765000Y-63957000D01*
X39765000Y-63733000D01*
X39793000Y-63705000D01*
X40017000Y-63705000D01*
X40045000Y-63733000D01*
G36*
X40795000Y-64483000D02*
G01*
X40795000Y-64707000D01*
X40767000Y-64735000D01*
X40543000Y-64735000D01*
X40515000Y-64707000D01*
X40515000Y-64483000D01*
X40543000Y-64455000D01*
X40767000Y-64455000D01*
X40795000Y-64483000D01*
G37*
X40795000Y-64483000D02*
X40795000Y-64707000D01*
X40767000Y-64735000D01*
X40543000Y-64735000D01*
X40515000Y-64707000D01*
X40515000Y-64483000D01*
X40543000Y-64455000D01*
X40767000Y-64455000D01*
X40795000Y-64483000D01*
G36*
X39295000Y-66733000D02*
G01*
X39295000Y-66957000D01*
X39267000Y-66985000D01*
X39043000Y-66985000D01*
X39015000Y-66957000D01*
X39015000Y-66733000D01*
X39043000Y-66705000D01*
X39267000Y-66705000D01*
X39295000Y-66733000D01*
G37*
X39295000Y-66733000D02*
X39295000Y-66957000D01*
X39267000Y-66985000D01*
X39043000Y-66985000D01*
X39015000Y-66957000D01*
X39015000Y-66733000D01*
X39043000Y-66705000D01*
X39267000Y-66705000D01*
X39295000Y-66733000D01*
G36*
X37795000Y-65983000D02*
G01*
X37795000Y-66207000D01*
X37767000Y-66235000D01*
X37543000Y-66235000D01*
X37515000Y-66207000D01*
X37515000Y-65983000D01*
X37543000Y-65955000D01*
X37767000Y-65955000D01*
X37795000Y-65983000D01*
G37*
X37795000Y-65983000D02*
X37795000Y-66207000D01*
X37767000Y-66235000D01*
X37543000Y-66235000D01*
X37515000Y-66207000D01*
X37515000Y-65983000D01*
X37543000Y-65955000D01*
X37767000Y-65955000D01*
X37795000Y-65983000D01*
G36*
X43045000Y-66733000D02*
G01*
X43045000Y-66957000D01*
X43017000Y-66985000D01*
X42793000Y-66985000D01*
X42765000Y-66957000D01*
X42765000Y-66733000D01*
X42793000Y-66705000D01*
X43017000Y-66705000D01*
X43045000Y-66733000D01*
G37*
X43045000Y-66733000D02*
X43045000Y-66957000D01*
X43017000Y-66985000D01*
X42793000Y-66985000D01*
X42765000Y-66957000D01*
X42765000Y-66733000D01*
X42793000Y-66705000D01*
X43017000Y-66705000D01*
X43045000Y-66733000D01*
G36*
X40795000Y-63733000D02*
G01*
X40795000Y-63957000D01*
X40767000Y-63985000D01*
X40543000Y-63985000D01*
X40515000Y-63957000D01*
X40515000Y-63733000D01*
X40543000Y-63705000D01*
X40767000Y-63705000D01*
X40795000Y-63733000D01*
G37*
X40795000Y-63733000D02*
X40795000Y-63957000D01*
X40767000Y-63985000D01*
X40543000Y-63985000D01*
X40515000Y-63957000D01*
X40515000Y-63733000D01*
X40543000Y-63705000D01*
X40767000Y-63705000D01*
X40795000Y-63733000D01*
G36*
X40795000Y-62983000D02*
G01*
X40795000Y-63207000D01*
X40767000Y-63235000D01*
X40543000Y-63235000D01*
X40515000Y-63207000D01*
X40515000Y-62983000D01*
X40543000Y-62955000D01*
X40767000Y-62955000D01*
X40795000Y-62983000D01*
G37*
X40795000Y-62983000D02*
X40795000Y-63207000D01*
X40767000Y-63235000D01*
X40543000Y-63235000D01*
X40515000Y-63207000D01*
X40515000Y-62983000D01*
X40543000Y-62955000D01*
X40767000Y-62955000D01*
X40795000Y-62983000D01*
G36*
X43045000Y-63733000D02*
G01*
X43045000Y-63957000D01*
X43017000Y-63985000D01*
X42793000Y-63985000D01*
X42765000Y-63957000D01*
X42765000Y-63733000D01*
X42793000Y-63705000D01*
X43017000Y-63705000D01*
X43045000Y-63733000D01*
G37*
X43045000Y-63733000D02*
X43045000Y-63957000D01*
X43017000Y-63985000D01*
X42793000Y-63985000D01*
X42765000Y-63957000D01*
X42765000Y-63733000D01*
X42793000Y-63705000D01*
X43017000Y-63705000D01*
X43045000Y-63733000D01*
G36*
X40795000Y-65983000D02*
G01*
X40795000Y-66207000D01*
X40767000Y-66235000D01*
X40543000Y-66235000D01*
X40515000Y-66207000D01*
X40515000Y-65983000D01*
X40543000Y-65955000D01*
X40767000Y-65955000D01*
X40795000Y-65983000D01*
G37*
X40795000Y-65983000D02*
X40795000Y-66207000D01*
X40767000Y-66235000D01*
X40543000Y-66235000D01*
X40515000Y-66207000D01*
X40515000Y-65983000D01*
X40543000Y-65955000D01*
X40767000Y-65955000D01*
X40795000Y-65983000D01*
%TD*%
D11*
%TO.C,R7*%
X78730000Y-79710000D03*
X78730000Y-78690000D03*
%TD*%
D12*
%TO.C,Y1*%
X60560000Y-81690000D03*
X61760000Y-81690000D03*
X62960000Y-81690000D03*
%TD*%
D13*
%TO.C,U1*%
X50500000Y-79112500D03*
X51000000Y-79112500D03*
X51500000Y-79112500D03*
X52000000Y-79112500D03*
X52500000Y-79112500D03*
X53000000Y-79112500D03*
X53500000Y-79112500D03*
X54000000Y-79112500D03*
X54500000Y-79112500D03*
X55000000Y-79112500D03*
X55500000Y-79112500D03*
X56000000Y-79112500D03*
X56500000Y-79112500D03*
X57000000Y-79112500D03*
X57500000Y-79112500D03*
X58000000Y-79112500D03*
X58500000Y-79112500D03*
X59000000Y-79112500D03*
X59500000Y-79112500D03*
X60000000Y-79112500D03*
X60500000Y-79112500D03*
X61000000Y-79112500D03*
X61500000Y-79112500D03*
X62000000Y-79112500D03*
X62500000Y-79112500D03*
X63000000Y-79112500D03*
X63500000Y-79112500D03*
X64000000Y-79112500D03*
X64500000Y-79112500D03*
X65000000Y-79112500D03*
X65500000Y-79112500D03*
X66000000Y-79112500D03*
X66500000Y-79112500D03*
X67000000Y-79112500D03*
X67500000Y-79112500D03*
X68000000Y-79112500D03*
D14*
X69912500Y-77200000D03*
X69912500Y-76700000D03*
X69912500Y-76200000D03*
X69912500Y-75700000D03*
X69912500Y-75200000D03*
X69912500Y-74700000D03*
X69912500Y-74200000D03*
X69912500Y-73700000D03*
X69912500Y-73200000D03*
X69912500Y-72700000D03*
X69912500Y-72200000D03*
X69912500Y-71700000D03*
X69912500Y-71200000D03*
X69912500Y-70700000D03*
X69912500Y-70200000D03*
X69912500Y-69700000D03*
X69912500Y-69200000D03*
X69912500Y-68700000D03*
X69912500Y-68200000D03*
X69912500Y-67700000D03*
X69912500Y-67200000D03*
X69912500Y-66700000D03*
X69912500Y-66200000D03*
X69912500Y-65700000D03*
X69912500Y-65200000D03*
X69912500Y-64700000D03*
X69912500Y-64200000D03*
X69912500Y-63700000D03*
X69912500Y-63200000D03*
X69912500Y-62700000D03*
X69912500Y-62200000D03*
X69912500Y-61700000D03*
X69912500Y-61200000D03*
X69912500Y-60700000D03*
X69912500Y-60200000D03*
X69912500Y-59700000D03*
D13*
X68000000Y-57787500D03*
X67500000Y-57787500D03*
X67000000Y-57787500D03*
X66500000Y-57787500D03*
X66000000Y-57787500D03*
X65500000Y-57787500D03*
X65000000Y-57787500D03*
X64500000Y-57787500D03*
X64000000Y-57787500D03*
X63500000Y-57787500D03*
X63000000Y-57787500D03*
X62500000Y-57787500D03*
X62000000Y-57787500D03*
X61500000Y-57787500D03*
X61000000Y-57787500D03*
X60500000Y-57787500D03*
X60000000Y-57787500D03*
X59500000Y-57787500D03*
X59000000Y-57787500D03*
X58500000Y-57787500D03*
X58000000Y-57787500D03*
X57500000Y-57787500D03*
X57000000Y-57787500D03*
X56500000Y-57787500D03*
X56000000Y-57787500D03*
X55500000Y-57787500D03*
X55000000Y-57787500D03*
X54500000Y-57787500D03*
X54000000Y-57787500D03*
X53500000Y-57787500D03*
X53000000Y-57787500D03*
X52500000Y-57787500D03*
X52000000Y-57787500D03*
X51500000Y-57787500D03*
X51000000Y-57787500D03*
X50500000Y-57787500D03*
D14*
X48587500Y-59700000D03*
X48587500Y-60200000D03*
X48587500Y-60700000D03*
X48587500Y-61200000D03*
X48587500Y-61700000D03*
X48587500Y-62200000D03*
X48587500Y-62700000D03*
X48587500Y-63200000D03*
X48587500Y-63700000D03*
X48587500Y-64200000D03*
X48587500Y-64700000D03*
X48587500Y-65200000D03*
X48587500Y-65700000D03*
X48587500Y-66200000D03*
X48587500Y-66700000D03*
X48587500Y-67200000D03*
X48587500Y-67700000D03*
X48587500Y-68200000D03*
X48587500Y-68700000D03*
X48587500Y-69200000D03*
X48587500Y-69700000D03*
X48587500Y-70200000D03*
X48587500Y-70700000D03*
X48587500Y-71200000D03*
X48587500Y-71700000D03*
X48587500Y-72200000D03*
X48587500Y-72700000D03*
X48587500Y-73200000D03*
X48587500Y-73700000D03*
X48587500Y-74200000D03*
X48587500Y-74700000D03*
X48587500Y-75200000D03*
X48587500Y-75700000D03*
X48587500Y-76200000D03*
X48587500Y-76700000D03*
X48587500Y-77200000D03*
%TD*%
D15*
%TO.C,C23*%
X66690000Y-80650000D03*
X66690000Y-81610000D03*
%TD*%
D16*
%TO.C,C41*%
X84970000Y-64080000D03*
X84970000Y-63120000D03*
%TD*%
D17*
%TO.C,C3*%
X56760000Y-56260000D03*
X57720000Y-56260000D03*
%TD*%
D15*
%TO.C,C12*%
X67680000Y-80650000D03*
X67680000Y-81610000D03*
%TD*%
D18*
%TO.C,D1*%
X37360000Y-82940000D03*
X38330000Y-82940000D03*
%TD*%
%TO.C,L1*%
X83995000Y-65050000D03*
X84965000Y-65050000D03*
%TD*%
D15*
%TO.C,C18*%
X71440000Y-69470000D03*
X71440000Y-70430000D03*
%TD*%
D19*
%TO.C,U2*%
X37655000Y-66845000D03*
X37655000Y-66095000D03*
X37655000Y-65345000D03*
X37655000Y-64595000D03*
X37655000Y-63845000D03*
X37655000Y-63095000D03*
X38405000Y-66845000D03*
X38405000Y-66095000D03*
X38405000Y-65345000D03*
X38405000Y-64595000D03*
X38405000Y-63845000D03*
X38405000Y-63095000D03*
X39155000Y-66845000D03*
X39155000Y-66095000D03*
X39155000Y-65345000D03*
X39155000Y-64595000D03*
X39155000Y-63845000D03*
X39155000Y-63095000D03*
X39905000Y-66845000D03*
X39905000Y-66095000D03*
X39905000Y-65345000D03*
X39905000Y-64595000D03*
X39905000Y-63845000D03*
X39905000Y-63095000D03*
X40655000Y-66845000D03*
X40655000Y-66095000D03*
X40655000Y-65345000D03*
X40655000Y-64595000D03*
X40655000Y-63845000D03*
X40655000Y-63095000D03*
X41405000Y-66845000D03*
X41405000Y-66095000D03*
X41405000Y-65345000D03*
X41405000Y-64595000D03*
X41405000Y-63845000D03*
X41405000Y-63095000D03*
X42155000Y-66845000D03*
X42155000Y-66095000D03*
X42155000Y-65345000D03*
X42155000Y-64595000D03*
X42155000Y-63845000D03*
X42155000Y-63095000D03*
X42905000Y-66845000D03*
X42905000Y-66095000D03*
X42905000Y-65345000D03*
X42905000Y-64595000D03*
X42905000Y-63845000D03*
X42905000Y-63095000D03*
%TD*%
D15*
%TO.C,C21*%
X72440000Y-59730000D03*
X72440000Y-60690000D03*
%TD*%
%TO.C,C16*%
X55210000Y-83130000D03*
X55210000Y-84090000D03*
%TD*%
D17*
%TO.C,C32*%
X76800000Y-78730000D03*
X77760000Y-78730000D03*
%TD*%
D16*
%TO.C,C38*%
X83010000Y-64080000D03*
X83010000Y-63120000D03*
%TD*%
D17*
%TO.C,C1*%
X62270000Y-56270000D03*
X63230000Y-56270000D03*
%TD*%
D16*
%TO.C,C6*%
X47050000Y-70930000D03*
X47050000Y-69970000D03*
%TD*%
%TO.C,C5*%
X47070000Y-66180000D03*
X47070000Y-65220000D03*
%TD*%
D17*
%TO.C,C14*%
X64770000Y-81620000D03*
X65730000Y-81620000D03*
%TD*%
D15*
%TO.C,C15*%
X53250000Y-83130000D03*
X53250000Y-84090000D03*
%TD*%
D16*
%TO.C,C33*%
X76750000Y-72250000D03*
X76750000Y-71290000D03*
%TD*%
D20*
%TO.C,U7*%
X77990000Y-64280000D03*
X75350000Y-64280000D03*
X77990000Y-62960000D03*
X76670000Y-61640000D03*
X75350000Y-60320000D03*
X76670000Y-60320000D03*
X77990000Y-61640000D03*
X76670000Y-62960000D03*
X76670000Y-64280000D03*
X77990000Y-60320000D03*
X79310000Y-62960000D03*
X79310000Y-64280000D03*
X75350000Y-61640000D03*
X75350000Y-62960000D03*
X79310000Y-60320000D03*
X79310000Y-61640000D03*
D21*
X80780000Y-65050000D03*
X80780000Y-64550000D03*
X80780000Y-64050000D03*
X80780000Y-63550000D03*
X80780000Y-63050000D03*
X80780000Y-62550000D03*
X80780000Y-62050000D03*
X80780000Y-61550000D03*
X80780000Y-61050000D03*
X80780000Y-60550000D03*
X80780000Y-60050000D03*
X80780000Y-59550000D03*
D22*
X80080000Y-58850000D03*
X79580000Y-58850000D03*
X79080000Y-58850000D03*
X78580000Y-58850000D03*
X78080000Y-58850000D03*
X77580000Y-58850000D03*
X77080000Y-58850000D03*
X76580000Y-58850000D03*
X76080000Y-58850000D03*
X75580000Y-58850000D03*
X75080000Y-58850000D03*
X74580000Y-58850000D03*
D21*
X73880000Y-59550000D03*
X73880000Y-60050000D03*
X73880000Y-60550000D03*
X73880000Y-61050000D03*
X73880000Y-61550000D03*
X73880000Y-62050000D03*
X73880000Y-62550000D03*
X73880000Y-63050000D03*
X73880000Y-63550000D03*
X73880000Y-64050000D03*
X73880000Y-64550000D03*
X73880000Y-65050000D03*
D22*
X74580000Y-65750000D03*
X75080000Y-65750000D03*
X75580000Y-65750000D03*
X76080000Y-65750000D03*
X76580000Y-65750000D03*
X77080000Y-65750000D03*
X77580000Y-65750000D03*
X78080000Y-65750000D03*
X78580000Y-65750000D03*
X79080000Y-65750000D03*
X79580000Y-65750000D03*
X80080000Y-65750000D03*
%TD*%
D23*
%TO.C,U4*%
X79500000Y-76750000D03*
X79500000Y-76250000D03*
X79500000Y-75750000D03*
X79500000Y-75250000D03*
X79500000Y-74750000D03*
X79500000Y-74250000D03*
D24*
X78800000Y-73550000D03*
X78300000Y-73550000D03*
X77800000Y-73550000D03*
X77300000Y-73550000D03*
X76800000Y-73550000D03*
X76300000Y-73550000D03*
D23*
X75600000Y-74250000D03*
X75600000Y-74750000D03*
X75600000Y-75250000D03*
X75600000Y-75750000D03*
X75600000Y-76250000D03*
X75600000Y-76750000D03*
D24*
X76300000Y-77450000D03*
X76800000Y-77450000D03*
X77300000Y-77450000D03*
X77800000Y-77450000D03*
X78300000Y-77450000D03*
X78800000Y-77450000D03*
%TD*%
D16*
%TO.C,C40*%
X83990000Y-64080000D03*
X83990000Y-63120000D03*
%TD*%
D18*
%TO.C,D2*%
X37360000Y-80950000D03*
X38330000Y-80950000D03*
%TD*%
D25*
%TO.C,C22*%
X51230000Y-55260000D03*
X50270000Y-55260000D03*
%TD*%
D15*
%TO.C,C19*%
X71450000Y-64480000D03*
X71450000Y-65440000D03*
%TD*%
D26*
%TO.C,R2*%
X41260000Y-80950000D03*
X40240000Y-80950000D03*
%TD*%
D15*
%TO.C,C20*%
X71440000Y-59730000D03*
X71440000Y-60690000D03*
%TD*%
D16*
%TO.C,C37*%
X82030000Y-62180000D03*
X82030000Y-61220000D03*
%TD*%
D15*
%TO.C,C7*%
X47000000Y-77430000D03*
X47000000Y-78390000D03*
%TD*%
D27*
%TO.C,Y2*%
X53000000Y-81650000D03*
X55500000Y-81650000D03*
%TD*%
D11*
%TO.C,R6*%
X77800000Y-72300000D03*
X77800000Y-71280000D03*
%TD*%
D16*
%TO.C,C11*%
X47000000Y-76480000D03*
X47000000Y-75520000D03*
%TD*%
D15*
%TO.C,C28*%
X78850000Y-71290000D03*
X78850000Y-72250000D03*
%TD*%
D28*
%TO.C,S2*%
X76024340Y-83560000D03*
X71824340Y-83560000D03*
%TD*%
D25*
%TO.C,C8*%
X58340000Y-80630000D03*
X57380000Y-80630000D03*
%TD*%
D29*
%TO.C,AE1*%
X84310000Y-67087500D03*
X84310000Y-72787500D03*
%TD*%
D17*
%TO.C,C4*%
X50270000Y-56260000D03*
X51230000Y-56260000D03*
%TD*%
D30*
%TO.C,R8*%
X82030000Y-59270000D03*
X82030000Y-60290000D03*
%TD*%
D11*
%TO.C,R5*%
X79740000Y-79710000D03*
X79740000Y-78690000D03*
%TD*%
D16*
%TO.C,C39*%
X82030000Y-64080000D03*
X82030000Y-63120000D03*
%TD*%
D26*
%TO.C,R1*%
X41260000Y-82940000D03*
X40240000Y-82940000D03*
%TD*%
D17*
%TO.C,C11*%
X64770000Y-80630000D03*
X65730000Y-80630000D03*
%TD*%
D28*
%TO.C,S1*%
X83320000Y-83560000D03*
X79120000Y-83560000D03*
%TD*%
D31*
%TO.C,U6*%
X74132500Y-53780000D03*
X74132500Y-54730000D03*
X74132500Y-55680000D03*
X76407500Y-55680000D03*
X76407500Y-53780000D03*
%TD*%
D15*
%TO.C,C30*%
X74330000Y-73280000D03*
X74330000Y-74240000D03*
%TD*%
D32*
%TO.C,U3*%
X46317500Y-83220000D03*
X46317500Y-82270000D03*
X46317500Y-81320000D03*
X44042500Y-81320000D03*
X44042500Y-83220000D03*
%TD*%
D33*
%TO.C,U5*%
X43273000Y-74805000D03*
X43273000Y-73535000D03*
X43273000Y-72265000D03*
X43273000Y-70995000D03*
X37247000Y-70995000D03*
X37247000Y-72265000D03*
X37247000Y-73535000D03*
X37247000Y-74805000D03*
D34*
X40260000Y-72900000D03*
%TD*%
M02*
