%FSLAX45Y45*%
G04 Gerber Fmt 4.5, Leading zero omitted, Abs format (unit mm)*
G04 Created by KiCad (PCBNEW (6.0.4)) date 2023-02-01 13:33:51*
%MOMM*%
%LPD*%
G01*
G04 APERTURE LIST*
%TA.AperFunction,Profile*%
%ADD10C,0.150000*%
%TD*%
%ADD11C,0.200000*%
%ADD12C,0.065000*%
G04 APERTURE END LIST*
D10*
X8369000Y-5119000D02*
X3795000Y-5119000D01*
X8599365Y-8335365D02*
X8599365Y-5349000D01*
X3565000Y-5350000D02*
X3565000Y-8334000D01*
X3565002Y-8334000D02*
G75*
G03*
X3796000Y-8564000I230898J900D01*
G01*
X3796000Y-8564000D02*
X8369365Y-8564000D01*
X3795000Y-5119002D02*
G75*
G03*
X3565000Y-5350000I900J-230898D01*
G01*
X8599360Y-5349000D02*
G75*
G03*
X8369000Y-5119000I-230380J-380D01*
G01*
X8369365Y-8563995D02*
G75*
G03*
X8599365Y-8334000I5J229995D01*
G01*
D11*
D12*
X5203500Y-5546500D02*
X5268500Y-5611500D01*
X5268500Y-5546500D02*
X5203500Y-5611500D01*
X5203500Y-8323500D02*
X5268500Y-8388500D01*
X5268500Y-8323500D02*
X5203500Y-8388500D01*
X6903500Y-5546500D02*
X6968500Y-5611500D01*
X6968500Y-5546500D02*
X6903500Y-5611500D01*
X6903500Y-8323500D02*
X6968500Y-8388500D01*
X6968500Y-8323500D02*
X6903500Y-8388500D01*
D11*
X3815119Y-8881976D02*
X3815119Y-8681976D01*
X3862738Y-8681976D01*
X3891309Y-8691500D01*
X3910357Y-8710548D01*
X3919881Y-8729595D01*
X3929405Y-8767690D01*
X3929405Y-8796262D01*
X3919881Y-8834357D01*
X3910357Y-8853405D01*
X3891309Y-8872452D01*
X3862738Y-8881976D01*
X3815119Y-8881976D01*
X4015119Y-8881976D02*
X4015119Y-8748643D01*
X4015119Y-8786738D02*
X4024643Y-8767690D01*
X4034167Y-8758167D01*
X4053214Y-8748643D01*
X4072262Y-8748643D01*
X4138928Y-8881976D02*
X4138928Y-8748643D01*
X4138928Y-8681976D02*
X4129405Y-8691500D01*
X4138928Y-8701024D01*
X4148452Y-8691500D01*
X4138928Y-8681976D01*
X4138928Y-8701024D01*
X4262738Y-8881976D02*
X4243690Y-8872452D01*
X4234167Y-8853405D01*
X4234167Y-8681976D01*
X4367500Y-8881976D02*
X4348452Y-8872452D01*
X4338929Y-8853405D01*
X4338929Y-8681976D01*
X4596071Y-8881976D02*
X4596071Y-8681976D01*
X4662738Y-8824833D01*
X4729405Y-8681976D01*
X4729405Y-8881976D01*
X4910357Y-8881976D02*
X4910357Y-8777214D01*
X4900833Y-8758167D01*
X4881786Y-8748643D01*
X4843690Y-8748643D01*
X4824643Y-8758167D01*
X4910357Y-8872452D02*
X4891310Y-8881976D01*
X4843690Y-8881976D01*
X4824643Y-8872452D01*
X4815119Y-8853405D01*
X4815119Y-8834357D01*
X4824643Y-8815310D01*
X4843690Y-8805786D01*
X4891310Y-8805786D01*
X4910357Y-8796262D01*
X5005595Y-8748643D02*
X5005595Y-8948643D01*
X5005595Y-8758167D02*
X5024643Y-8748643D01*
X5062738Y-8748643D01*
X5081786Y-8758167D01*
X5091310Y-8767690D01*
X5100833Y-8786738D01*
X5100833Y-8843881D01*
X5091310Y-8862929D01*
X5081786Y-8872452D01*
X5062738Y-8881976D01*
X5024643Y-8881976D01*
X5005595Y-8872452D01*
X5186548Y-8862929D02*
X5196071Y-8872452D01*
X5186548Y-8881976D01*
X5177024Y-8872452D01*
X5186548Y-8862929D01*
X5186548Y-8881976D01*
X5186548Y-8758167D02*
X5196071Y-8767690D01*
X5186548Y-8777214D01*
X5177024Y-8767690D01*
X5186548Y-8758167D01*
X5186548Y-8777214D01*
D12*
X3492500Y-9179000D02*
X3557500Y-9244000D01*
X3557500Y-9179000D02*
X3492500Y-9244000D01*
D11*
X3853214Y-9101976D02*
X3872262Y-9101976D01*
X3891309Y-9111500D01*
X3900833Y-9121024D01*
X3910357Y-9140071D01*
X3919881Y-9178167D01*
X3919881Y-9225786D01*
X3910357Y-9263881D01*
X3900833Y-9282929D01*
X3891309Y-9292452D01*
X3872262Y-9301976D01*
X3853214Y-9301976D01*
X3834167Y-9292452D01*
X3824643Y-9282929D01*
X3815119Y-9263881D01*
X3805595Y-9225786D01*
X3805595Y-9178167D01*
X3815119Y-9140071D01*
X3824643Y-9121024D01*
X3834167Y-9111500D01*
X3853214Y-9101976D01*
X4005595Y-9282929D02*
X4015119Y-9292452D01*
X4005595Y-9301976D01*
X3996071Y-9292452D01*
X4005595Y-9282929D01*
X4005595Y-9301976D01*
X4186548Y-9101976D02*
X4148452Y-9101976D01*
X4129405Y-9111500D01*
X4119881Y-9121024D01*
X4100833Y-9149595D01*
X4091309Y-9187690D01*
X4091309Y-9263881D01*
X4100833Y-9282929D01*
X4110357Y-9292452D01*
X4129405Y-9301976D01*
X4167500Y-9301976D01*
X4186548Y-9292452D01*
X4196071Y-9282929D01*
X4205595Y-9263881D01*
X4205595Y-9216262D01*
X4196071Y-9197214D01*
X4186548Y-9187690D01*
X4167500Y-9178167D01*
X4129405Y-9178167D01*
X4110357Y-9187690D01*
X4100833Y-9197214D01*
X4091309Y-9216262D01*
X4386548Y-9101976D02*
X4291310Y-9101976D01*
X4281786Y-9197214D01*
X4291310Y-9187690D01*
X4310357Y-9178167D01*
X4357976Y-9178167D01*
X4377024Y-9187690D01*
X4386548Y-9197214D01*
X4396071Y-9216262D01*
X4396071Y-9263881D01*
X4386548Y-9282929D01*
X4377024Y-9292452D01*
X4357976Y-9301976D01*
X4310357Y-9301976D01*
X4291310Y-9292452D01*
X4281786Y-9282929D01*
X4519881Y-9101976D02*
X4538929Y-9101976D01*
X4557976Y-9111500D01*
X4567500Y-9121024D01*
X4577024Y-9140071D01*
X4586548Y-9178167D01*
X4586548Y-9225786D01*
X4577024Y-9263881D01*
X4567500Y-9282929D01*
X4557976Y-9292452D01*
X4538929Y-9301976D01*
X4519881Y-9301976D01*
X4500833Y-9292452D01*
X4491310Y-9282929D01*
X4481786Y-9263881D01*
X4472262Y-9225786D01*
X4472262Y-9178167D01*
X4481786Y-9140071D01*
X4491310Y-9121024D01*
X4500833Y-9111500D01*
X4519881Y-9101976D01*
X4672262Y-9301976D02*
X4672262Y-9168643D01*
X4672262Y-9187690D02*
X4681786Y-9178167D01*
X4700833Y-9168643D01*
X4729405Y-9168643D01*
X4748452Y-9178167D01*
X4757976Y-9197214D01*
X4757976Y-9301976D01*
X4757976Y-9197214D02*
X4767500Y-9178167D01*
X4786548Y-9168643D01*
X4815119Y-9168643D01*
X4834167Y-9178167D01*
X4843690Y-9197214D01*
X4843690Y-9301976D01*
X4938929Y-9301976D02*
X4938929Y-9168643D01*
X4938929Y-9187690D02*
X4948452Y-9178167D01*
X4967500Y-9168643D01*
X4996071Y-9168643D01*
X5015119Y-9178167D01*
X5024643Y-9197214D01*
X5024643Y-9301976D01*
X5024643Y-9197214D02*
X5034167Y-9178167D01*
X5053214Y-9168643D01*
X5081786Y-9168643D01*
X5100833Y-9178167D01*
X5110357Y-9197214D01*
X5110357Y-9301976D01*
X5500833Y-9092452D02*
X5329405Y-9349595D01*
X5757976Y-9101976D02*
X5777024Y-9101976D01*
X5796071Y-9111500D01*
X5805595Y-9121024D01*
X5815119Y-9140071D01*
X5824643Y-9178167D01*
X5824643Y-9225786D01*
X5815119Y-9263881D01*
X5805595Y-9282929D01*
X5796071Y-9292452D01*
X5777024Y-9301976D01*
X5757976Y-9301976D01*
X5738928Y-9292452D01*
X5729405Y-9282929D01*
X5719881Y-9263881D01*
X5710357Y-9225786D01*
X5710357Y-9178167D01*
X5719881Y-9140071D01*
X5729405Y-9121024D01*
X5738928Y-9111500D01*
X5757976Y-9101976D01*
X5910357Y-9282929D02*
X5919881Y-9292452D01*
X5910357Y-9301976D01*
X5900833Y-9292452D01*
X5910357Y-9282929D01*
X5910357Y-9301976D01*
X6043690Y-9101976D02*
X6062738Y-9101976D01*
X6081786Y-9111500D01*
X6091309Y-9121024D01*
X6100833Y-9140071D01*
X6110357Y-9178167D01*
X6110357Y-9225786D01*
X6100833Y-9263881D01*
X6091309Y-9282929D01*
X6081786Y-9292452D01*
X6062738Y-9301976D01*
X6043690Y-9301976D01*
X6024643Y-9292452D01*
X6015119Y-9282929D01*
X6005595Y-9263881D01*
X5996071Y-9225786D01*
X5996071Y-9178167D01*
X6005595Y-9140071D01*
X6015119Y-9121024D01*
X6024643Y-9111500D01*
X6043690Y-9101976D01*
X6186548Y-9121024D02*
X6196071Y-9111500D01*
X6215119Y-9101976D01*
X6262738Y-9101976D01*
X6281786Y-9111500D01*
X6291309Y-9121024D01*
X6300833Y-9140071D01*
X6300833Y-9159119D01*
X6291309Y-9187690D01*
X6177024Y-9301976D01*
X6300833Y-9301976D01*
X6481786Y-9101976D02*
X6386548Y-9101976D01*
X6377024Y-9197214D01*
X6386548Y-9187690D01*
X6405595Y-9178167D01*
X6453214Y-9178167D01*
X6472262Y-9187690D01*
X6481786Y-9197214D01*
X6491309Y-9216262D01*
X6491309Y-9263881D01*
X6481786Y-9282929D01*
X6472262Y-9292452D01*
X6453214Y-9301976D01*
X6405595Y-9301976D01*
X6386548Y-9292452D01*
X6377024Y-9282929D01*
X6662738Y-9101976D02*
X6624643Y-9101976D01*
X6605595Y-9111500D01*
X6596071Y-9121024D01*
X6577024Y-9149595D01*
X6567500Y-9187690D01*
X6567500Y-9263881D01*
X6577024Y-9282929D01*
X6586548Y-9292452D01*
X6605595Y-9301976D01*
X6643690Y-9301976D01*
X6662738Y-9292452D01*
X6672262Y-9282929D01*
X6681786Y-9263881D01*
X6681786Y-9216262D01*
X6672262Y-9197214D01*
X6662738Y-9187690D01*
X6643690Y-9178167D01*
X6605595Y-9178167D01*
X6586548Y-9187690D01*
X6577024Y-9197214D01*
X6567500Y-9216262D01*
X6757976Y-9101976D02*
X6757976Y-9140071D01*
X6834167Y-9101976D02*
X6834167Y-9140071D01*
X7129405Y-9378167D02*
X7119881Y-9368643D01*
X7100833Y-9340071D01*
X7091309Y-9321024D01*
X7081786Y-9292452D01*
X7072262Y-9244833D01*
X7072262Y-9206738D01*
X7081786Y-9159119D01*
X7091309Y-9130548D01*
X7100833Y-9111500D01*
X7119881Y-9082929D01*
X7129405Y-9073405D01*
X7291309Y-9168643D02*
X7291309Y-9301976D01*
X7243690Y-9092452D02*
X7196071Y-9235310D01*
X7319881Y-9235310D01*
X7548452Y-9301976D02*
X7548452Y-9101976D01*
X7634167Y-9301976D02*
X7634167Y-9197214D01*
X7624643Y-9178167D01*
X7605595Y-9168643D01*
X7577024Y-9168643D01*
X7557976Y-9178167D01*
X7548452Y-9187690D01*
X7757976Y-9301976D02*
X7738928Y-9292452D01*
X7729405Y-9282929D01*
X7719881Y-9263881D01*
X7719881Y-9206738D01*
X7729405Y-9187690D01*
X7738928Y-9178167D01*
X7757976Y-9168643D01*
X7786548Y-9168643D01*
X7805595Y-9178167D01*
X7815119Y-9187690D01*
X7824643Y-9206738D01*
X7824643Y-9263881D01*
X7815119Y-9282929D01*
X7805595Y-9292452D01*
X7786548Y-9301976D01*
X7757976Y-9301976D01*
X7938928Y-9301976D02*
X7919881Y-9292452D01*
X7910357Y-9273405D01*
X7910357Y-9101976D01*
X8091309Y-9292452D02*
X8072262Y-9301976D01*
X8034167Y-9301976D01*
X8015119Y-9292452D01*
X8005595Y-9273405D01*
X8005595Y-9197214D01*
X8015119Y-9178167D01*
X8034167Y-9168643D01*
X8072262Y-9168643D01*
X8091309Y-9178167D01*
X8100833Y-9197214D01*
X8100833Y-9216262D01*
X8005595Y-9235310D01*
X8177024Y-9292452D02*
X8196071Y-9301976D01*
X8234167Y-9301976D01*
X8253214Y-9292452D01*
X8262738Y-9273405D01*
X8262738Y-9263881D01*
X8253214Y-9244833D01*
X8234167Y-9235310D01*
X8205595Y-9235310D01*
X8186548Y-9225786D01*
X8177024Y-9206738D01*
X8177024Y-9197214D01*
X8186548Y-9178167D01*
X8205595Y-9168643D01*
X8234167Y-9168643D01*
X8253214Y-9178167D01*
X8329405Y-9378167D02*
X8338928Y-9368643D01*
X8357976Y-9340071D01*
X8367500Y-9321024D01*
X8377024Y-9292452D01*
X8386548Y-9244833D01*
X8386548Y-9206738D01*
X8377024Y-9159119D01*
X8367500Y-9130548D01*
X8357976Y-9111500D01*
X8338928Y-9082929D01*
X8329405Y-9073405D01*
X8691310Y-9378167D02*
X8681786Y-9368643D01*
X8662738Y-9340071D01*
X8653214Y-9321024D01*
X8643690Y-9292452D01*
X8634167Y-9244833D01*
X8634167Y-9206738D01*
X8643690Y-9159119D01*
X8653214Y-9130548D01*
X8662738Y-9111500D01*
X8681786Y-9082929D01*
X8691310Y-9073405D01*
X8767500Y-9168643D02*
X8767500Y-9301976D01*
X8767500Y-9187690D02*
X8777024Y-9178167D01*
X8796071Y-9168643D01*
X8824643Y-9168643D01*
X8843690Y-9178167D01*
X8853214Y-9197214D01*
X8853214Y-9301976D01*
X8977024Y-9301976D02*
X8957976Y-9292452D01*
X8948452Y-9282929D01*
X8938929Y-9263881D01*
X8938929Y-9206738D01*
X8948452Y-9187690D01*
X8957976Y-9178167D01*
X8977024Y-9168643D01*
X9005595Y-9168643D01*
X9024643Y-9178167D01*
X9034167Y-9187690D01*
X9043690Y-9206738D01*
X9043690Y-9263881D01*
X9034167Y-9282929D01*
X9024643Y-9292452D01*
X9005595Y-9301976D01*
X8977024Y-9301976D01*
X9100833Y-9168643D02*
X9177024Y-9168643D01*
X9129405Y-9101976D02*
X9129405Y-9273405D01*
X9138929Y-9292452D01*
X9157976Y-9301976D01*
X9177024Y-9301976D01*
X9396071Y-9168643D02*
X9396071Y-9368643D01*
X9396071Y-9178167D02*
X9415119Y-9168643D01*
X9453214Y-9168643D01*
X9472262Y-9178167D01*
X9481786Y-9187690D01*
X9491310Y-9206738D01*
X9491310Y-9263881D01*
X9481786Y-9282929D01*
X9472262Y-9292452D01*
X9453214Y-9301976D01*
X9415119Y-9301976D01*
X9396071Y-9292452D01*
X9605595Y-9301976D02*
X9586548Y-9292452D01*
X9577024Y-9273405D01*
X9577024Y-9101976D01*
X9767500Y-9301976D02*
X9767500Y-9197214D01*
X9757976Y-9178167D01*
X9738929Y-9168643D01*
X9700833Y-9168643D01*
X9681786Y-9178167D01*
X9767500Y-9292452D02*
X9748452Y-9301976D01*
X9700833Y-9301976D01*
X9681786Y-9292452D01*
X9672262Y-9273405D01*
X9672262Y-9254357D01*
X9681786Y-9235310D01*
X9700833Y-9225786D01*
X9748452Y-9225786D01*
X9767500Y-9216262D01*
X9834167Y-9168643D02*
X9910357Y-9168643D01*
X9862738Y-9101976D02*
X9862738Y-9273405D01*
X9872262Y-9292452D01*
X9891310Y-9301976D01*
X9910357Y-9301976D01*
X10053214Y-9292452D02*
X10034167Y-9301976D01*
X9996071Y-9301976D01*
X9977024Y-9292452D01*
X9967500Y-9273405D01*
X9967500Y-9197214D01*
X9977024Y-9178167D01*
X9996071Y-9168643D01*
X10034167Y-9168643D01*
X10053214Y-9178167D01*
X10062738Y-9197214D01*
X10062738Y-9216262D01*
X9967500Y-9235310D01*
X10234167Y-9301976D02*
X10234167Y-9101976D01*
X10234167Y-9292452D02*
X10215119Y-9301976D01*
X10177024Y-9301976D01*
X10157976Y-9292452D01*
X10148452Y-9282929D01*
X10138929Y-9263881D01*
X10138929Y-9206738D01*
X10148452Y-9187690D01*
X10157976Y-9178167D01*
X10177024Y-9168643D01*
X10215119Y-9168643D01*
X10234167Y-9178167D01*
X10310357Y-9378167D02*
X10319881Y-9368643D01*
X10338929Y-9340071D01*
X10348452Y-9321024D01*
X10357976Y-9292452D01*
X10367500Y-9244833D01*
X10367500Y-9206738D01*
X10357976Y-9159119D01*
X10348452Y-9130548D01*
X10338929Y-9111500D01*
X10319881Y-9082929D01*
X10310357Y-9073405D01*
M02*
