%TF.GenerationSoftware,KiCad,Pcbnew,(6.0.4)*%
%TF.CreationDate,2023-02-01T13:33:48+08:00*%
%TF.ProjectId,Core_M4,436f7265-5f4d-4342-9e6b-696361645f70,rev?*%
%TF.SameCoordinates,Original*%
%TF.FileFunction,Legend,Top*%
%TF.FilePolarity,Positive*%
%FSLAX46Y46*%
G04 Gerber Fmt 4.6, Leading zero omitted, Abs format (unit mm)*
G04 Created by KiCad (PCBNEW (6.0.4)) date 2023-02-01 13:33:48*
%MOMM*%
%LPD*%
G01*
G04 APERTURE LIST*
%ADD10C,0.150000*%
%ADD11C,0.120000*%
%ADD12C,0.127000*%
%ADD13C,0.200000*%
%ADD14C,0.100000*%
%ADD15C,0.152000*%
G04 APERTURE END LIST*
D10*
%TO.C,D1*%
X37833333Y-82276666D02*
X37833333Y-81576666D01*
X38000000Y-81576666D01*
X38100000Y-81610000D01*
X38166666Y-81676666D01*
X38200000Y-81743333D01*
X38233333Y-81876666D01*
X38233333Y-81976666D01*
X38200000Y-82110000D01*
X38166666Y-82176666D01*
X38100000Y-82243333D01*
X38000000Y-82276666D01*
X37833333Y-82276666D01*
X38900000Y-82276666D02*
X38500000Y-82276666D01*
X38700000Y-82276666D02*
X38700000Y-81576666D01*
X38633333Y-81676666D01*
X38566666Y-81743333D01*
X38500000Y-81776666D01*
%TO.C,SWD*%
X43752857Y-60024761D02*
X43895714Y-60072380D01*
X44133809Y-60072380D01*
X44229047Y-60024761D01*
X44276666Y-59977142D01*
X44324285Y-59881904D01*
X44324285Y-59786666D01*
X44276666Y-59691428D01*
X44229047Y-59643809D01*
X44133809Y-59596190D01*
X43943333Y-59548571D01*
X43848095Y-59500952D01*
X43800476Y-59453333D01*
X43752857Y-59358095D01*
X43752857Y-59262857D01*
X43800476Y-59167619D01*
X43848095Y-59120000D01*
X43943333Y-59072380D01*
X44181428Y-59072380D01*
X44324285Y-59120000D01*
X44657619Y-59072380D02*
X44895714Y-60072380D01*
X45086190Y-59358095D01*
X45276666Y-60072380D01*
X45514761Y-59072380D01*
X45895714Y-60072380D02*
X45895714Y-59072380D01*
X46133809Y-59072380D01*
X46276666Y-59120000D01*
X46371904Y-59215238D01*
X46419523Y-59310476D01*
X46467142Y-59500952D01*
X46467142Y-59643809D01*
X46419523Y-59834285D01*
X46371904Y-59929523D01*
X46276666Y-60024761D01*
X46133809Y-60072380D01*
X45895714Y-60072380D01*
X42795714Y-58092380D02*
X42224285Y-58092380D01*
X42510000Y-58092380D02*
X42510000Y-57092380D01*
X42414761Y-57235238D01*
X42319523Y-57330476D01*
X42224285Y-57378095D01*
%TO.C,J1*%
X79526666Y-56432380D02*
X79526666Y-57146666D01*
X79479047Y-57289523D01*
X79383809Y-57384761D01*
X79240952Y-57432380D01*
X79145714Y-57432380D01*
X80526666Y-57432380D02*
X79955238Y-57432380D01*
X80240952Y-57432380D02*
X80240952Y-56432380D01*
X80145714Y-56575238D01*
X80050476Y-56670476D01*
X79955238Y-56718095D01*
%TO.C,D2*%
X37233333Y-80296666D02*
X37233333Y-79596666D01*
X37400000Y-79596666D01*
X37500000Y-79630000D01*
X37566666Y-79696666D01*
X37600000Y-79763333D01*
X37633333Y-79896666D01*
X37633333Y-79996666D01*
X37600000Y-80130000D01*
X37566666Y-80196666D01*
X37500000Y-80263333D01*
X37400000Y-80296666D01*
X37233333Y-80296666D01*
X37900000Y-79663333D02*
X37933333Y-79630000D01*
X38000000Y-79596666D01*
X38166666Y-79596666D01*
X38233333Y-79630000D01*
X38266666Y-79663333D01*
X38300000Y-79730000D01*
X38300000Y-79796666D01*
X38266666Y-79896666D01*
X37866666Y-80296666D01*
X38300000Y-80296666D01*
%TO.C,BOOT*%
X37542857Y-59518571D02*
X37685714Y-59566190D01*
X37733333Y-59613809D01*
X37780952Y-59709047D01*
X37780952Y-59851904D01*
X37733333Y-59947142D01*
X37685714Y-59994761D01*
X37590476Y-60042380D01*
X37209523Y-60042380D01*
X37209523Y-59042380D01*
X37542857Y-59042380D01*
X37638095Y-59090000D01*
X37685714Y-59137619D01*
X37733333Y-59232857D01*
X37733333Y-59328095D01*
X37685714Y-59423333D01*
X37638095Y-59470952D01*
X37542857Y-59518571D01*
X37209523Y-59518571D01*
X38400000Y-59042380D02*
X38590476Y-59042380D01*
X38685714Y-59090000D01*
X38780952Y-59185238D01*
X38828571Y-59375714D01*
X38828571Y-59709047D01*
X38780952Y-59899523D01*
X38685714Y-59994761D01*
X38590476Y-60042380D01*
X38400000Y-60042380D01*
X38304761Y-59994761D01*
X38209523Y-59899523D01*
X38161904Y-59709047D01*
X38161904Y-59375714D01*
X38209523Y-59185238D01*
X38304761Y-59090000D01*
X38400000Y-59042380D01*
X39447619Y-59042380D02*
X39638095Y-59042380D01*
X39733333Y-59090000D01*
X39828571Y-59185238D01*
X39876190Y-59375714D01*
X39876190Y-59709047D01*
X39828571Y-59899523D01*
X39733333Y-59994761D01*
X39638095Y-60042380D01*
X39447619Y-60042380D01*
X39352380Y-59994761D01*
X39257142Y-59899523D01*
X39209523Y-59709047D01*
X39209523Y-59375714D01*
X39257142Y-59185238D01*
X39352380Y-59090000D01*
X39447619Y-59042380D01*
X40161904Y-59042380D02*
X40733333Y-59042380D01*
X40447619Y-60042380D02*
X40447619Y-59042380D01*
X36555714Y-58092380D02*
X35984285Y-58092380D01*
X36270000Y-58092380D02*
X36270000Y-57092380D01*
X36174761Y-57235238D01*
X36079523Y-57330476D01*
X35984285Y-57378095D01*
%TO.C,S2*%
X73166001Y-81315874D02*
X73309251Y-81363624D01*
X73548000Y-81363624D01*
X73643500Y-81315874D01*
X73691250Y-81268124D01*
X73739000Y-81172624D01*
X73739000Y-81077124D01*
X73691250Y-80981624D01*
X73643500Y-80933874D01*
X73548000Y-80886125D01*
X73357001Y-80838375D01*
X73261501Y-80790625D01*
X73213751Y-80742875D01*
X73166001Y-80647375D01*
X73166001Y-80551875D01*
X73213751Y-80456375D01*
X73261501Y-80408626D01*
X73357001Y-80360876D01*
X73595750Y-80360876D01*
X73739000Y-80408626D01*
X74120999Y-80456375D02*
X74168749Y-80408626D01*
X74264249Y-80360876D01*
X74502998Y-80360876D01*
X74598498Y-80408626D01*
X74646248Y-80456375D01*
X74693998Y-80551875D01*
X74693998Y-80647375D01*
X74646248Y-80790625D01*
X74073249Y-81363624D01*
X74693998Y-81363624D01*
%TO.C,S1*%
X80466001Y-81325874D02*
X80609251Y-81373624D01*
X80848000Y-81373624D01*
X80943500Y-81325874D01*
X80991250Y-81278124D01*
X81039000Y-81182624D01*
X81039000Y-81087124D01*
X80991250Y-80991624D01*
X80943500Y-80943874D01*
X80848000Y-80896125D01*
X80657001Y-80848375D01*
X80561501Y-80800625D01*
X80513751Y-80752875D01*
X80466001Y-80657375D01*
X80466001Y-80561875D01*
X80513751Y-80466375D01*
X80561501Y-80418626D01*
X80657001Y-80370876D01*
X80895750Y-80370876D01*
X81039000Y-80418626D01*
X81993998Y-81373624D02*
X81420999Y-81373624D01*
X81707499Y-81373624D02*
X81707499Y-80370876D01*
X81611999Y-80514125D01*
X81516499Y-80609625D01*
X81420999Y-80657375D01*
D11*
%TO.C,R7*%
X79110000Y-79353641D02*
X79110000Y-79046359D01*
X78350000Y-79353641D02*
X78350000Y-79046359D01*
D12*
%TO.C,Y1*%
X60040000Y-82340000D02*
X60040000Y-81040000D01*
X63480000Y-82340000D02*
X63480000Y-81040000D01*
D13*
X59760000Y-81690000D02*
G75*
G03*
X59760000Y-81690000I-100000J0D01*
G01*
D11*
%TO.C,U1*%
X69360000Y-78560000D02*
X68410000Y-78560000D01*
X49140000Y-77610000D02*
X49140000Y-78560000D01*
X49140000Y-58340000D02*
X50090000Y-58340000D01*
X69360000Y-77610000D02*
X69360000Y-78560000D01*
X49140000Y-78560000D02*
X50090000Y-78560000D01*
X49140000Y-59290000D02*
X49140000Y-58340000D01*
X50090000Y-78560000D02*
X50090000Y-79850000D01*
X69360000Y-59290000D02*
X69360000Y-58340000D01*
X69360000Y-58340000D02*
X68410000Y-58340000D01*
%TO.C,C23*%
X67050000Y-81022164D02*
X67050000Y-81237836D01*
X66330000Y-81022164D02*
X66330000Y-81237836D01*
%TO.C,G\u002A\u002A\u002A*%
G36*
X59584843Y-65169498D02*
G01*
X59655429Y-65170187D01*
X59712724Y-65171721D01*
X59760676Y-65174334D01*
X59803234Y-65178256D01*
X59844349Y-65183719D01*
X59887968Y-65190955D01*
X59899666Y-65193058D01*
X59959198Y-65204534D01*
X60024611Y-65218243D01*
X60091822Y-65233213D01*
X60156753Y-65248471D01*
X60215322Y-65263043D01*
X60263449Y-65275957D01*
X60297053Y-65286240D01*
X60307655Y-65290325D01*
X60331516Y-65299624D01*
X60363786Y-65310445D01*
X60371235Y-65312734D01*
X60421588Y-65329700D01*
X60484697Y-65353660D01*
X60554394Y-65382064D01*
X60624512Y-65412364D01*
X60688884Y-65442008D01*
X60715758Y-65455169D01*
X60760035Y-65476946D01*
X60790824Y-65490202D01*
X60813368Y-65496333D01*
X60832906Y-65496738D01*
X60854683Y-65492811D01*
X60855955Y-65492519D01*
X60923064Y-65483452D01*
X61000586Y-65483461D01*
X61079788Y-65492531D01*
X61081908Y-65492909D01*
X61223218Y-65529018D01*
X61359500Y-65585235D01*
X61489794Y-65660868D01*
X61613143Y-65755225D01*
X61728586Y-65867615D01*
X61835166Y-65997347D01*
X61889111Y-66075002D01*
X61954289Y-66174379D01*
X62008185Y-66256194D01*
X62050977Y-66320714D01*
X62082843Y-66368204D01*
X62103959Y-66398931D01*
X62114504Y-66413161D01*
X62115409Y-66414092D01*
X62123978Y-66424570D01*
X62141634Y-66448207D01*
X62165281Y-66480819D01*
X62178156Y-66498865D01*
X62267938Y-66619925D01*
X62369852Y-66747963D01*
X62479764Y-66878261D01*
X62593541Y-67006101D01*
X62707050Y-67126768D01*
X62816159Y-67235544D01*
X62858938Y-67275865D01*
X62958845Y-67365723D01*
X63050338Y-67441927D01*
X63138052Y-67507526D01*
X63226619Y-67565569D01*
X63320672Y-67619104D01*
X63424845Y-67671180D01*
X63536447Y-67721661D01*
X63654736Y-67774733D01*
X63755106Y-67823335D01*
X63839992Y-67868910D01*
X63911824Y-67912905D01*
X63973036Y-67956764D01*
X64026061Y-68001931D01*
X64053546Y-68028808D01*
X64102436Y-68083725D01*
X64133534Y-68129694D01*
X64146515Y-68166194D01*
X64146523Y-68178315D01*
X64137076Y-68198105D01*
X64117442Y-68200248D01*
X64088821Y-68184973D01*
X64062196Y-68162241D01*
X63964887Y-68080876D01*
X63851141Y-68008373D01*
X63719547Y-67943903D01*
X63631605Y-67908792D01*
X63564436Y-67883435D01*
X63493019Y-67855637D01*
X63421529Y-67827099D01*
X63354138Y-67799526D01*
X63295020Y-67774620D01*
X63248348Y-67754083D01*
X63223350Y-67742233D01*
X63194197Y-67726185D01*
X63154495Y-67702542D01*
X63108738Y-67674185D01*
X63061418Y-67643997D01*
X63017030Y-67614860D01*
X62980066Y-67589657D01*
X62955021Y-67571271D01*
X62949356Y-67566478D01*
X62933227Y-67552767D01*
X62907109Y-67531763D01*
X62887661Y-67516550D01*
X62850944Y-67487261D01*
X62813163Y-67455091D01*
X62771755Y-67417649D01*
X62724154Y-67372541D01*
X62667797Y-67317376D01*
X62600120Y-67249763D01*
X62581236Y-67230741D01*
X62398096Y-67034877D01*
X62220389Y-66822957D01*
X62052063Y-66600068D01*
X61897064Y-66371294D01*
X61828289Y-66260442D01*
X61752982Y-66140707D01*
X61681027Y-66038260D01*
X61609860Y-65950035D01*
X61536921Y-65872970D01*
X61459646Y-65803999D01*
X61421251Y-65773621D01*
X61320999Y-65706202D01*
X61212543Y-65649429D01*
X61101465Y-65605759D01*
X60993346Y-65577649D01*
X60965742Y-65573097D01*
X60924454Y-65567195D01*
X60986935Y-65613057D01*
X61037468Y-65652186D01*
X61071179Y-65683568D01*
X61089970Y-65709385D01*
X61095742Y-65731822D01*
X61095324Y-65737523D01*
X61087155Y-65757189D01*
X61068794Y-65764546D01*
X61038526Y-65759377D01*
X60994636Y-65741463D01*
X60951202Y-65719240D01*
X60840346Y-65660118D01*
X60743594Y-65610437D01*
X60657018Y-65568496D01*
X60576690Y-65532597D01*
X60498685Y-65501042D01*
X60419073Y-65472132D01*
X60333929Y-65444169D01*
X60269644Y-65424462D01*
X60039047Y-65364774D01*
X59813781Y-65325537D01*
X59593691Y-65306734D01*
X59378621Y-65308346D01*
X59332770Y-65311377D01*
X59108379Y-65335979D01*
X58887677Y-65374683D01*
X58674442Y-65426584D01*
X58472451Y-65490778D01*
X58306557Y-65556917D01*
X58229663Y-65592367D01*
X58161398Y-65627505D01*
X58096358Y-65665592D01*
X58029139Y-65709893D01*
X57954339Y-65763671D01*
X57913565Y-65794255D01*
X57842019Y-65847518D01*
X57784887Y-65887639D01*
X57740565Y-65915357D01*
X57707450Y-65931409D01*
X57683940Y-65936534D01*
X57668433Y-65931469D01*
X57659324Y-65916953D01*
X57657871Y-65911981D01*
X57659171Y-65874941D01*
X57679090Y-65831354D01*
X57716551Y-65782505D01*
X57770481Y-65729678D01*
X57839803Y-65674155D01*
X57882103Y-65644287D01*
X57973548Y-65582261D01*
X57914292Y-65579090D01*
X57837832Y-65584096D01*
X57753498Y-65605656D01*
X57664233Y-65642101D01*
X57572980Y-65691760D01*
X57482682Y-65752964D01*
X57396284Y-65824043D01*
X57316728Y-65903326D01*
X57291068Y-65932676D01*
X57268545Y-65959927D01*
X57247614Y-65986634D01*
X57226721Y-66015200D01*
X57204310Y-66048027D01*
X57178826Y-66087516D01*
X57148713Y-66136068D01*
X57112418Y-66196087D01*
X57068383Y-66269972D01*
X57023155Y-66346407D01*
X56887723Y-66567189D01*
X56750053Y-66774963D01*
X56611190Y-66968381D01*
X56472179Y-67146098D01*
X56334064Y-67306768D01*
X56197889Y-67449044D01*
X56088495Y-67550963D01*
X56025037Y-67605697D01*
X55969432Y-67650819D01*
X55917048Y-67689359D01*
X55863257Y-67724347D01*
X55803427Y-67758811D01*
X55732927Y-67795783D01*
X55655757Y-67834081D01*
X55538035Y-67893732D01*
X55436663Y-67950218D01*
X55347632Y-68006268D01*
X55266933Y-68064609D01*
X55190560Y-68127969D01*
X55114503Y-68199076D01*
X55103652Y-68209804D01*
X55039499Y-68274909D01*
X54988203Y-68330464D01*
X54946518Y-68380696D01*
X54911198Y-68429833D01*
X54878996Y-68482100D01*
X54846665Y-68541724D01*
X54842551Y-68549713D01*
X54802399Y-68635242D01*
X54774963Y-68713055D01*
X54758378Y-68790814D01*
X54750777Y-68876182D01*
X54749750Y-68930780D01*
X54757760Y-69057051D01*
X54782538Y-69171883D01*
X54825202Y-69278130D01*
X54886874Y-69378646D01*
X54960215Y-69467282D01*
X55053684Y-69557426D01*
X55151288Y-69629607D01*
X55257885Y-69686834D01*
X55378333Y-69732114D01*
X55397219Y-69737862D01*
X55438121Y-69749435D01*
X55473237Y-69757523D01*
X55508017Y-69762732D01*
X55547909Y-69765664D01*
X55598362Y-69766926D01*
X55661055Y-69767126D01*
X55749349Y-69765385D01*
X55825598Y-69759639D01*
X55896315Y-69748668D01*
X55968018Y-69731247D01*
X56047221Y-69706155D01*
X56113874Y-69682159D01*
X56170327Y-69659425D01*
X56233928Y-69631043D01*
X56299735Y-69599491D01*
X56362808Y-69567251D01*
X56418205Y-69536801D01*
X56460986Y-69510622D01*
X56474347Y-69501239D01*
X56506189Y-69480293D01*
X56538998Y-69463281D01*
X56567092Y-69452679D01*
X56584789Y-69450963D01*
X56586910Y-69452199D01*
X56593725Y-69468758D01*
X56585187Y-69491158D01*
X56560292Y-69520951D01*
X56518037Y-69559688D01*
X56516729Y-69560802D01*
X56387345Y-69659938D01*
X56250504Y-69744435D01*
X56108580Y-69813471D01*
X55963945Y-69866223D01*
X55818971Y-69901868D01*
X55676031Y-69919585D01*
X55537497Y-69918550D01*
X55496808Y-69914418D01*
X55355031Y-69886698D01*
X55218888Y-69840449D01*
X55090484Y-69777162D01*
X54971924Y-69698330D01*
X54865315Y-69605445D01*
X54772763Y-69500001D01*
X54696373Y-69383489D01*
X54667129Y-69326350D01*
X54641565Y-69270234D01*
X54622299Y-69222573D01*
X54608529Y-69178817D01*
X54599447Y-69134416D01*
X54594250Y-69084820D01*
X54592132Y-69025478D01*
X54592288Y-68951841D01*
X54592984Y-68907306D01*
X54594884Y-68825693D01*
X54598000Y-68760527D01*
X54603406Y-68707063D01*
X54612177Y-68660553D01*
X54625386Y-68616254D01*
X54644107Y-68569420D01*
X54669413Y-68515304D01*
X54691983Y-68469829D01*
X54765547Y-68343957D01*
X54857812Y-68220406D01*
X54966287Y-68101411D01*
X55088480Y-67989203D01*
X55221901Y-67886018D01*
X55364058Y-67794089D01*
X55512459Y-67715651D01*
X55554419Y-67696572D01*
X55651801Y-67651754D01*
X55736060Y-67607671D01*
X55812309Y-67560888D01*
X55885663Y-67507968D01*
X55961238Y-67445477D01*
X56044146Y-67369980D01*
X56052827Y-67361782D01*
X56218694Y-67194370D01*
X56381492Y-67009031D01*
X56541761Y-66805059D01*
X56700037Y-66581746D01*
X56856861Y-66338382D01*
X56951045Y-66181483D01*
X57013391Y-66077903D01*
X57069962Y-65990634D01*
X57123122Y-65916420D01*
X57175237Y-65852003D01*
X57228668Y-65794128D01*
X57241665Y-65781132D01*
X57328315Y-65701169D01*
X57411310Y-65637044D01*
X57496064Y-65585436D01*
X57587990Y-65543029D01*
X57686792Y-65508272D01*
X57730070Y-65495499D01*
X57765587Y-65487548D01*
X57800538Y-65483613D01*
X57842116Y-65482894D01*
X57897515Y-65484586D01*
X57898581Y-65484629D01*
X57951814Y-65487845D01*
X58001622Y-65492695D01*
X58041562Y-65498454D01*
X58061293Y-65502973D01*
X58082305Y-65508755D01*
X58100495Y-65509982D01*
X58121281Y-65505456D01*
X58150081Y-65493979D01*
X58192312Y-65474350D01*
X58193750Y-65473667D01*
X58428868Y-65373047D01*
X58673391Y-65290282D01*
X58928701Y-65224939D01*
X59090374Y-65193443D01*
X59137834Y-65185742D01*
X59182384Y-65179863D01*
X59228084Y-65175567D01*
X59278996Y-65172614D01*
X59339181Y-65170764D01*
X59412701Y-65169777D01*
X59497017Y-65169423D01*
X59584843Y-65169498D01*
G37*
G36*
X57255556Y-66640901D02*
G01*
X57276839Y-66654522D01*
X57282386Y-66676044D01*
X57272383Y-66695432D01*
X57263001Y-66709801D01*
X57246780Y-66739504D01*
X57225654Y-66780581D01*
X57201554Y-66829074D01*
X57176414Y-66881022D01*
X57152164Y-66932466D01*
X57130738Y-66979446D01*
X57114067Y-67018004D01*
X57109746Y-67028694D01*
X57092576Y-67075881D01*
X57073278Y-67134620D01*
X57053435Y-67199444D01*
X57034630Y-67264882D01*
X57018447Y-67325467D01*
X57006468Y-67375729D01*
X57001107Y-67403948D01*
X56997368Y-67434619D01*
X56998773Y-67448822D01*
X57006116Y-67450830D01*
X57009589Y-67449696D01*
X57046058Y-67439390D01*
X57094195Y-67430460D01*
X57144477Y-67424278D01*
X57187379Y-67422217D01*
X57197559Y-67422620D01*
X57227721Y-67426469D01*
X57241888Y-67434003D01*
X57245244Y-67446808D01*
X57240759Y-67459265D01*
X57224980Y-67471308D01*
X57194415Y-67485075D01*
X57165115Y-67495909D01*
X57100074Y-67520339D01*
X57050479Y-67542919D01*
X57011146Y-67566665D01*
X56976896Y-67594599D01*
X56950777Y-67620807D01*
X56901781Y-67686752D01*
X56872386Y-67759184D01*
X56862528Y-67838641D01*
X56872143Y-67925663D01*
X56901167Y-68020786D01*
X56902733Y-68024772D01*
X56950455Y-68119745D01*
X57017258Y-68211324D01*
X57103635Y-68300003D01*
X57210081Y-68386279D01*
X57337089Y-68470645D01*
X57364202Y-68486862D01*
X57408221Y-68511679D01*
X57456774Y-68537295D01*
X57505588Y-68561662D01*
X57550390Y-68582732D01*
X57586908Y-68598455D01*
X57610869Y-68606783D01*
X57615985Y-68607584D01*
X57618184Y-68597919D01*
X57618157Y-68572405D01*
X57615939Y-68536267D01*
X57615465Y-68530759D01*
X57614487Y-68472145D01*
X57620157Y-68406888D01*
X57631277Y-68342509D01*
X57646653Y-68286526D01*
X57659043Y-68256867D01*
X57702553Y-68192358D01*
X57757706Y-68145255D01*
X57825252Y-68115087D01*
X57905945Y-68101383D01*
X57908016Y-68101255D01*
X58004118Y-68105558D01*
X58106255Y-68129159D01*
X58213095Y-68171482D01*
X58323304Y-68231954D01*
X58435552Y-68310000D01*
X58486355Y-68350686D01*
X58560139Y-68422190D01*
X58628817Y-68507636D01*
X58688647Y-68601270D01*
X58735889Y-68697336D01*
X58763465Y-68777018D01*
X58782007Y-68845784D01*
X58854761Y-68858970D01*
X58905199Y-68870095D01*
X58937134Y-68882428D01*
X58953258Y-68897346D01*
X58956591Y-68911111D01*
X58949565Y-68925029D01*
X58927062Y-68937438D01*
X58886948Y-68949259D01*
X58849278Y-68957283D01*
X58789649Y-68968830D01*
X58782565Y-69022227D01*
X58761277Y-69112670D01*
X58722249Y-69192449D01*
X58675754Y-69252169D01*
X58604084Y-69315252D01*
X58524490Y-69359078D01*
X58438338Y-69383437D01*
X58346990Y-69388124D01*
X58251811Y-69372929D01*
X58154164Y-69337645D01*
X58144501Y-69333093D01*
X58107483Y-69315849D01*
X58077565Y-69302948D01*
X58060041Y-69296644D01*
X58058230Y-69296362D01*
X58050613Y-69305707D01*
X58036681Y-69331632D01*
X58017813Y-69370967D01*
X57995388Y-69420545D01*
X57970786Y-69477198D01*
X57945385Y-69537758D01*
X57920566Y-69599056D01*
X57897706Y-69657924D01*
X57880618Y-69704330D01*
X57861299Y-69761610D01*
X57840165Y-69829145D01*
X57820393Y-69896595D01*
X57810654Y-69932157D01*
X57796636Y-69982427D01*
X57782866Y-70027012D01*
X57771007Y-70060798D01*
X57763269Y-70077860D01*
X57739974Y-70097261D01*
X57709680Y-70099614D01*
X57682353Y-70086951D01*
X57668685Y-70063712D01*
X57664096Y-70022291D01*
X57668535Y-69963633D01*
X57681952Y-69888683D01*
X57696007Y-69829556D01*
X57724800Y-69726112D01*
X57757087Y-69628053D01*
X57795119Y-69529488D01*
X57841144Y-69424525D01*
X57888728Y-69324866D01*
X57973070Y-69153308D01*
X57960996Y-69098851D01*
X57954325Y-69049947D01*
X57957630Y-69012191D01*
X57970419Y-68989017D01*
X57977371Y-68984859D01*
X57995900Y-68987983D01*
X58021236Y-69005221D01*
X58049188Y-69032574D01*
X58075565Y-69066041D01*
X58093130Y-69095342D01*
X58126392Y-69146569D01*
X58169899Y-69185555D01*
X58228473Y-69216368D01*
X58243806Y-69222434D01*
X58323082Y-69242873D01*
X58399713Y-69244678D01*
X58471049Y-69228948D01*
X58534438Y-69196784D01*
X58587230Y-69149286D01*
X58626773Y-69087554D01*
X58638435Y-69058692D01*
X58656813Y-68974822D01*
X58656380Y-68883823D01*
X58638101Y-68787903D01*
X58598069Y-68679315D01*
X58538953Y-68576456D01*
X58462506Y-68481189D01*
X58370482Y-68395378D01*
X58264633Y-68320884D01*
X58146715Y-68259572D01*
X58136794Y-68255284D01*
X58086238Y-68236151D01*
X58041368Y-68225962D01*
X57990077Y-68222148D01*
X57979657Y-68221946D01*
X57937872Y-68221851D01*
X57910625Y-68224317D01*
X57891267Y-68231327D01*
X57873153Y-68244863D01*
X57859110Y-68257897D01*
X57815865Y-68312998D01*
X57785340Y-68382043D01*
X57767820Y-68461819D01*
X57763587Y-68549113D01*
X57772923Y-68640709D01*
X57796113Y-68733394D01*
X57813193Y-68779634D01*
X57829511Y-68817451D01*
X57843956Y-68847840D01*
X57853839Y-68865207D01*
X57855012Y-68866605D01*
X57864430Y-68887391D01*
X57862382Y-68911586D01*
X57850149Y-68928676D01*
X57847289Y-68930066D01*
X57832092Y-68928163D01*
X57808164Y-68912761D01*
X57773584Y-68882531D01*
X57759867Y-68869421D01*
X57710848Y-68825927D01*
X57664553Y-68794830D01*
X57616124Y-68771864D01*
X57568974Y-68752018D01*
X57519831Y-68730179D01*
X57483667Y-68713163D01*
X57435751Y-68690584D01*
X57403747Y-68678095D01*
X57385298Y-68675049D01*
X57378046Y-68680795D01*
X57377701Y-68683974D01*
X57372435Y-68704185D01*
X57358046Y-68738424D01*
X57336649Y-68782752D01*
X57310360Y-68833227D01*
X57281293Y-68885910D01*
X57251563Y-68936861D01*
X57223284Y-68982139D01*
X57198573Y-69017805D01*
X57198375Y-69018068D01*
X57149204Y-69078665D01*
X57093354Y-69139660D01*
X57033274Y-69199073D01*
X56971414Y-69254925D01*
X56910223Y-69305234D01*
X56852153Y-69348022D01*
X56799652Y-69381308D01*
X56755170Y-69403113D01*
X56721157Y-69411457D01*
X56712346Y-69410863D01*
X56694727Y-69402162D01*
X56691386Y-69384623D01*
X56702814Y-69357038D01*
X56729506Y-69318197D01*
X56770059Y-69269065D01*
X56803963Y-69230285D01*
X56834107Y-69196280D01*
X56857031Y-69170922D01*
X56868722Y-69158606D01*
X56886101Y-69140330D01*
X56913154Y-69110122D01*
X56946079Y-69072403D01*
X56981071Y-69031597D01*
X57014328Y-68992126D01*
X57042047Y-68958413D01*
X57055528Y-68941377D01*
X57082794Y-68903245D01*
X57112932Y-68856664D01*
X57144026Y-68805152D01*
X57174157Y-68752227D01*
X57201407Y-68701406D01*
X57223858Y-68656209D01*
X57239591Y-68620153D01*
X57246689Y-68596755D01*
X57246496Y-68591131D01*
X57236236Y-68580012D01*
X57212566Y-68560268D01*
X57179584Y-68535210D01*
X57158740Y-68520209D01*
X57057386Y-68440661D01*
X56966600Y-68353422D01*
X56889123Y-68261647D01*
X56827695Y-68168488D01*
X56794497Y-68101262D01*
X56777801Y-68054979D01*
X56761454Y-67998960D01*
X56748702Y-67944463D01*
X56747577Y-67938612D01*
X56737408Y-67844027D01*
X56744782Y-67756215D01*
X56770508Y-67669081D01*
X56788798Y-67627401D01*
X56813467Y-67567054D01*
X56826959Y-67508376D01*
X56830803Y-67473750D01*
X56848528Y-67343525D01*
X56880080Y-67206888D01*
X56923297Y-67071338D01*
X56976015Y-66944371D01*
X56994149Y-66907535D01*
X57034931Y-66835685D01*
X57078670Y-66771919D01*
X57123309Y-66718336D01*
X57166793Y-66677034D01*
X57207063Y-66650111D01*
X57242062Y-66639664D01*
X57255556Y-66640901D01*
G37*
G36*
X59026379Y-67733654D02*
G01*
X59019326Y-67727279D01*
X58999420Y-67706829D01*
X58990453Y-67688745D01*
X58989591Y-67664163D01*
X58991912Y-67641543D01*
X59001954Y-67600154D01*
X59019621Y-67565724D01*
X59041784Y-67541487D01*
X59065311Y-67530678D01*
X59087074Y-67536529D01*
X59090573Y-67539611D01*
X59099137Y-67552259D01*
X59098256Y-67568901D01*
X59088869Y-67594406D01*
X59078708Y-67630813D01*
X59080699Y-67658508D01*
X59094135Y-67673470D01*
X59103008Y-67674989D01*
X59120319Y-67672702D01*
X59153113Y-67666595D01*
X59196236Y-67657674D01*
X59232102Y-67649778D01*
X59346407Y-67626073D01*
X59444873Y-67610598D01*
X59531138Y-67603223D01*
X59608838Y-67603819D01*
X59681611Y-67612255D01*
X59753094Y-67628403D01*
X59761931Y-67630903D01*
X59828972Y-67648110D01*
X59886336Y-67658576D01*
X59930494Y-67661787D01*
X59953897Y-67658801D01*
X59966546Y-67652601D01*
X59971940Y-67640719D01*
X59971481Y-67617294D01*
X59969018Y-67595569D01*
X59966545Y-67556200D01*
X59972328Y-67535352D01*
X59987753Y-67531499D01*
X60014206Y-67543114D01*
X60015778Y-67544036D01*
X60049245Y-67575107D01*
X60065478Y-67616991D01*
X60064444Y-67660198D01*
X60045715Y-67705916D01*
X60009530Y-67740574D01*
X59965334Y-67760491D01*
X59942647Y-67768752D01*
X59926275Y-67780456D01*
X59911973Y-67800483D01*
X59895499Y-67833713D01*
X59888848Y-67848438D01*
X59840672Y-67942558D01*
X59784542Y-68029212D01*
X59724540Y-68102261D01*
X59710554Y-68116558D01*
X59671350Y-68151177D01*
X59634443Y-68173355D01*
X59594312Y-68187631D01*
X59558296Y-68197493D01*
X59534686Y-68202190D01*
X59515457Y-68202177D01*
X59492580Y-68197913D01*
X59477130Y-68194297D01*
X59426038Y-68172971D01*
X59374296Y-68134604D01*
X59326393Y-68082717D01*
X59314920Y-68067159D01*
X59289177Y-68028870D01*
X59268400Y-67993195D01*
X59249752Y-67954269D01*
X59230399Y-67906229D01*
X59209884Y-67849929D01*
X59179807Y-67765156D01*
X59116480Y-67762017D01*
X59076866Y-67758288D01*
X59068440Y-67755674D01*
X59283529Y-67755674D01*
X59288355Y-67782171D01*
X59300528Y-67819513D01*
X59318389Y-67863965D01*
X59340283Y-67911792D01*
X59364553Y-67959256D01*
X59389542Y-68002621D01*
X59413595Y-68038153D01*
X59423839Y-68050781D01*
X59465180Y-68086741D01*
X59509007Y-68102012D01*
X59557311Y-68096965D01*
X59593491Y-68082238D01*
X59614509Y-68067370D01*
X59643073Y-68041882D01*
X59672965Y-68011326D01*
X59699762Y-67978374D01*
X59727797Y-67937986D01*
X59754909Y-67894123D01*
X59778935Y-67850746D01*
X59797710Y-67811816D01*
X59809073Y-67781296D01*
X59810860Y-67763146D01*
X59809616Y-67761063D01*
X59792577Y-67752661D01*
X59759592Y-67742803D01*
X59715766Y-67732495D01*
X59666204Y-67722743D01*
X59616011Y-67714552D01*
X59570289Y-67708928D01*
X59534601Y-67706877D01*
X59497373Y-67708817D01*
X59449085Y-67713952D01*
X59396595Y-67721259D01*
X59346764Y-67729711D01*
X59306450Y-67738285D01*
X59287705Y-67743759D01*
X59283529Y-67755674D01*
X59068440Y-67755674D01*
X59049720Y-67749866D01*
X59026379Y-67733654D01*
G37*
G36*
X61620260Y-66467002D02*
G01*
X61650546Y-66489923D01*
X61690273Y-66528561D01*
X61735846Y-66578339D01*
X61822681Y-66684834D01*
X61903778Y-66800364D01*
X61976535Y-66920432D01*
X62038347Y-67040539D01*
X62086613Y-67156188D01*
X62107929Y-67221365D01*
X62121056Y-67274146D01*
X62133740Y-67337567D01*
X62143975Y-67401131D01*
X62147266Y-67427152D01*
X62153507Y-67478693D01*
X62159504Y-67514250D01*
X62166842Y-67538955D01*
X62177106Y-67557937D01*
X62191884Y-67576326D01*
X62194155Y-67578869D01*
X62242704Y-67648343D01*
X62273974Y-67728228D01*
X62287969Y-67816671D01*
X62284692Y-67911816D01*
X62264147Y-68011809D01*
X62226338Y-68114796D01*
X62192982Y-68181601D01*
X62156342Y-68236695D01*
X62105205Y-68297771D01*
X62043726Y-68360750D01*
X61976063Y-68421556D01*
X61906372Y-68476112D01*
X61862050Y-68506229D01*
X61822549Y-68532084D01*
X61790751Y-68554447D01*
X61770340Y-68570626D01*
X61764685Y-68577364D01*
X61769944Y-68595112D01*
X61784307Y-68626970D01*
X61805647Y-68669075D01*
X61831841Y-68717561D01*
X61860764Y-68768565D01*
X61890290Y-68818223D01*
X61918296Y-68862670D01*
X61935702Y-68888394D01*
X61982782Y-68949421D01*
X62043312Y-69019087D01*
X62113537Y-69093656D01*
X62189700Y-69169396D01*
X62268044Y-69242575D01*
X62344812Y-69309457D01*
X62416248Y-69366311D01*
X62417785Y-69367461D01*
X62558378Y-69467036D01*
X62691817Y-69549805D01*
X62821415Y-69617394D01*
X62950482Y-69671429D01*
X63082327Y-69713535D01*
X63163433Y-69733591D01*
X63233222Y-69745437D01*
X63313547Y-69753091D01*
X63398536Y-69756512D01*
X63482316Y-69755659D01*
X63559016Y-69750492D01*
X63622762Y-69740967D01*
X63639675Y-69736937D01*
X63765812Y-69697725D01*
X63875651Y-69651490D01*
X63973566Y-69595871D01*
X64063934Y-69528507D01*
X64120657Y-69477344D01*
X64218121Y-69369626D01*
X64297125Y-69252225D01*
X64357155Y-69126081D01*
X64397696Y-68992132D01*
X64404389Y-68959357D01*
X64411821Y-68869940D01*
X64403539Y-68769735D01*
X64380010Y-68661641D01*
X64341703Y-68548556D01*
X64335906Y-68534230D01*
X64317537Y-68485983D01*
X64309361Y-68453790D01*
X64311210Y-68435219D01*
X64322917Y-68427839D01*
X64328518Y-68427442D01*
X64349805Y-68436032D01*
X64374690Y-68462362D01*
X64403789Y-68507277D01*
X64437717Y-68571621D01*
X64445440Y-68587526D01*
X64489248Y-68702826D01*
X64513217Y-68823303D01*
X64517531Y-68947197D01*
X64502377Y-69072748D01*
X64467939Y-69198195D01*
X64414404Y-69321778D01*
X64357882Y-69418223D01*
X64333732Y-69450656D01*
X64298740Y-69492248D01*
X64257555Y-69537691D01*
X64214824Y-69581681D01*
X64213918Y-69582577D01*
X64097974Y-69683987D01*
X63974882Y-69765948D01*
X63843493Y-69828956D01*
X63702655Y-69873505D01*
X63551218Y-69900093D01*
X63460137Y-69907380D01*
X63291635Y-69905235D01*
X63122880Y-69882438D01*
X62953703Y-69838916D01*
X62783930Y-69774597D01*
X62613392Y-69689406D01*
X62441915Y-69583272D01*
X62269329Y-69456121D01*
X62135565Y-69343840D01*
X62003128Y-69217306D01*
X61888367Y-69086611D01*
X61787762Y-68947540D01*
X61738267Y-68867787D01*
X61714585Y-68827112D01*
X61695523Y-68793543D01*
X61683292Y-68771030D01*
X61679912Y-68763604D01*
X61675954Y-68752001D01*
X61665665Y-68726914D01*
X61653748Y-68699411D01*
X61627583Y-68640249D01*
X61592817Y-68652029D01*
X61545807Y-68673534D01*
X61508559Y-68704925D01*
X61475822Y-68751039D01*
X61465777Y-68769064D01*
X61442317Y-68807220D01*
X61412997Y-68846556D01*
X61381475Y-68883058D01*
X61351410Y-68912716D01*
X61326460Y-68931516D01*
X61313493Y-68936078D01*
X61295891Y-68929004D01*
X61292225Y-68907461D01*
X61302537Y-68870972D01*
X61323758Y-68825051D01*
X61359008Y-68747725D01*
X61380878Y-68675526D01*
X61391603Y-68599257D01*
X61393679Y-68537390D01*
X61387301Y-68442725D01*
X61367763Y-68364273D01*
X61334859Y-68301477D01*
X61290308Y-68255248D01*
X61243981Y-68232349D01*
X61186331Y-68224775D01*
X61119691Y-68231641D01*
X61046393Y-68252065D01*
X60968770Y-68285163D01*
X60889154Y-68330051D01*
X60809879Y-68385846D01*
X60733275Y-68451665D01*
X60708989Y-68475426D01*
X60628206Y-68571568D01*
X60563181Y-68681062D01*
X60526753Y-68765938D01*
X60509188Y-68830432D01*
X60500354Y-68901437D01*
X60500359Y-68972115D01*
X60509310Y-69035624D01*
X60521913Y-69074334D01*
X60557324Y-69130410D01*
X60608076Y-69180112D01*
X60668373Y-69218613D01*
X60718040Y-69237692D01*
X60755365Y-69246909D01*
X60783877Y-69250327D01*
X60812945Y-69248011D01*
X60851935Y-69240026D01*
X60857872Y-69238656D01*
X60930780Y-69216709D01*
X60986944Y-69187324D01*
X61030299Y-69147705D01*
X61064780Y-69095058D01*
X61067510Y-69089729D01*
X61096340Y-69042402D01*
X61127027Y-69009162D01*
X61157165Y-68991543D01*
X61184346Y-68991077D01*
X61202233Y-69003952D01*
X61208061Y-69017997D01*
X61207516Y-69041750D01*
X61200382Y-69079960D01*
X61198397Y-69088669D01*
X61180138Y-69156806D01*
X61160076Y-69208545D01*
X61136064Y-69248681D01*
X61116327Y-69271850D01*
X61083644Y-69305620D01*
X61138688Y-69439494D01*
X61176087Y-69534783D01*
X61209898Y-69629383D01*
X61239575Y-69721042D01*
X61264572Y-69807504D01*
X61284343Y-69886518D01*
X61298342Y-69955827D01*
X61306025Y-70013180D01*
X61306844Y-70056321D01*
X61300255Y-70082997D01*
X61295786Y-70088277D01*
X61261762Y-70103732D01*
X61227186Y-70100522D01*
X61211024Y-70091304D01*
X61204428Y-70086071D01*
X61198593Y-70080436D01*
X61192801Y-70072466D01*
X61186335Y-70060231D01*
X61178478Y-70041799D01*
X61168511Y-70015237D01*
X61155719Y-69978615D01*
X61139382Y-69930001D01*
X61118784Y-69867463D01*
X61093207Y-69789069D01*
X61061934Y-69692889D01*
X61054137Y-69668901D01*
X60956512Y-69368557D01*
X60907594Y-69377495D01*
X60873412Y-69381589D01*
X60826932Y-69384381D01*
X60777038Y-69385379D01*
X60766533Y-69385309D01*
X60715877Y-69383532D01*
X60678365Y-69378613D01*
X60646006Y-69368977D01*
X60616145Y-69355689D01*
X60534951Y-69304693D01*
X60467835Y-69239020D01*
X60416588Y-69161007D01*
X60383001Y-69072996D01*
X60376077Y-69042044D01*
X60368908Y-69004518D01*
X60362833Y-68974451D01*
X60359422Y-68959380D01*
X60352077Y-68952108D01*
X60332900Y-68950088D01*
X60297838Y-68953016D01*
X60289236Y-68954082D01*
X60245047Y-68957997D01*
X60185556Y-68960693D01*
X60113675Y-68962248D01*
X60032314Y-68962739D01*
X59944383Y-68962244D01*
X59852791Y-68960839D01*
X59760450Y-68958603D01*
X59670268Y-68955612D01*
X59585157Y-68951945D01*
X59508026Y-68947678D01*
X59441785Y-68942888D01*
X59389345Y-68937654D01*
X59353615Y-68932052D01*
X59342296Y-68928903D01*
X59329105Y-68915762D01*
X59331117Y-68897115D01*
X59345943Y-68879277D01*
X59364560Y-68870073D01*
X59382117Y-68867755D01*
X59418314Y-68865128D01*
X59470602Y-68862304D01*
X59536432Y-68859396D01*
X59613254Y-68856514D01*
X59698519Y-68853770D01*
X59789678Y-68851275D01*
X59799019Y-68851044D01*
X59892829Y-68848514D01*
X59982898Y-68845653D01*
X60066325Y-68842586D01*
X60140210Y-68839435D01*
X60201652Y-68836326D01*
X60247750Y-68833381D01*
X60275602Y-68830725D01*
X60275865Y-68830688D01*
X60314527Y-68825413D01*
X60345456Y-68821536D01*
X60362138Y-68819870D01*
X60362368Y-68819863D01*
X60371595Y-68810363D01*
X60383921Y-68785797D01*
X60396635Y-68751605D01*
X60447274Y-68628954D01*
X60516886Y-68514274D01*
X60604355Y-68408785D01*
X60708564Y-68313706D01*
X60828398Y-68230255D01*
X60919964Y-68179915D01*
X61028124Y-68132875D01*
X61126739Y-68104135D01*
X61216774Y-68093594D01*
X61299197Y-68101150D01*
X61374975Y-68126702D01*
X61384091Y-68131189D01*
X61415225Y-68154119D01*
X61449654Y-68190530D01*
X61482349Y-68234415D01*
X61507955Y-68279090D01*
X61524494Y-68326425D01*
X61536346Y-68385538D01*
X61541750Y-68447214D01*
X61541898Y-68456583D01*
X61542989Y-68487674D01*
X61545516Y-68507866D01*
X61547666Y-68512215D01*
X61559202Y-68507070D01*
X61581777Y-68494112D01*
X61592701Y-68487378D01*
X61629887Y-68465822D01*
X61669416Y-68445427D01*
X61674614Y-68442984D01*
X61735682Y-68409815D01*
X61803568Y-68364646D01*
X61871940Y-68312098D01*
X61934466Y-68256789D01*
X61947943Y-68243573D01*
X62015281Y-68164486D01*
X62068528Y-68077954D01*
X62106644Y-67987176D01*
X62128590Y-67895349D01*
X62133327Y-67805671D01*
X62119816Y-67721338D01*
X62118797Y-67717838D01*
X62097189Y-67670563D01*
X62061382Y-67619532D01*
X62016149Y-67570434D01*
X61966261Y-67528958D01*
X61952774Y-67519907D01*
X61923209Y-67497080D01*
X61913326Y-67479337D01*
X61923076Y-67467696D01*
X61952412Y-67463177D01*
X61955423Y-67463154D01*
X61982688Y-67461760D01*
X61994808Y-67454963D01*
X61997782Y-67438844D01*
X61997810Y-67435444D01*
X61994092Y-67404144D01*
X61983812Y-67357593D01*
X61968274Y-67300221D01*
X61948786Y-67236453D01*
X61926653Y-67170719D01*
X61903182Y-67107445D01*
X61895005Y-67086975D01*
X61877148Y-67044010D01*
X61859701Y-67004163D01*
X61841130Y-66964461D01*
X61819901Y-66921937D01*
X61794481Y-66873618D01*
X61763335Y-66816535D01*
X61724930Y-66747717D01*
X61677733Y-66664195D01*
X61666211Y-66643893D01*
X61630090Y-66579212D01*
X61604485Y-66530701D01*
X61588585Y-66496613D01*
X61581580Y-66475206D01*
X61582661Y-66464735D01*
X61582885Y-66464495D01*
X61598134Y-66458844D01*
X61620260Y-66467002D01*
G37*
G36*
X58150548Y-66950317D02*
G01*
X58164072Y-66952904D01*
X58223578Y-66976364D01*
X58272037Y-67016767D01*
X58309002Y-67072701D01*
X58334026Y-67142757D01*
X58346661Y-67225522D01*
X58346459Y-67319588D01*
X58332974Y-67423543D01*
X58325275Y-67460924D01*
X58305934Y-67529340D01*
X58281291Y-67582120D01*
X58250227Y-67623185D01*
X58224463Y-67650760D01*
X58283227Y-67707356D01*
X58319313Y-67745376D01*
X58338053Y-67772407D01*
X58340401Y-67788155D01*
X58327310Y-67792322D01*
X58299732Y-67784611D01*
X58258622Y-67764728D01*
X58204932Y-67732374D01*
X58204234Y-67731922D01*
X58092732Y-67665075D01*
X57975313Y-67604705D01*
X57860005Y-67554800D01*
X57812161Y-67537236D01*
X57755352Y-67516626D01*
X57717019Y-67499919D01*
X57695083Y-67485856D01*
X57687465Y-67473176D01*
X57690189Y-67463333D01*
X57706588Y-67455880D01*
X57741694Y-67456965D01*
X57748121Y-67457792D01*
X57798358Y-67464702D01*
X57804552Y-67365909D01*
X57809512Y-67305404D01*
X57817139Y-67257450D01*
X57829640Y-67213641D01*
X57849223Y-67165569D01*
X57867250Y-67127110D01*
X57909238Y-67059005D01*
X57961117Y-67005774D01*
X58020331Y-66968916D01*
X58084327Y-66949931D01*
X58150548Y-66950317D01*
G37*
G36*
X61036730Y-66982914D02*
G01*
X61074403Y-66996137D01*
X61126069Y-67032659D01*
X61174003Y-67085538D01*
X61214806Y-67149940D01*
X61245081Y-67221032D01*
X61253717Y-67251222D01*
X61268975Y-67315302D01*
X61279272Y-67362431D01*
X61285291Y-67396089D01*
X61287712Y-67419753D01*
X61287839Y-67425460D01*
X61290143Y-67443075D01*
X61301085Y-67450784D01*
X61326704Y-67452553D01*
X61329091Y-67452557D01*
X61362377Y-67456956D01*
X61376550Y-67468731D01*
X61377492Y-67477251D01*
X61371690Y-67485719D01*
X61356552Y-67495458D01*
X61329488Y-67507794D01*
X61287904Y-67524050D01*
X61229210Y-67545550D01*
X61218961Y-67549240D01*
X61138396Y-67581686D01*
X61048811Y-67623588D01*
X60957713Y-67671136D01*
X60872608Y-67720520D01*
X60837484Y-67742842D01*
X60791839Y-67770080D01*
X60754819Y-67786678D01*
X60728854Y-67791886D01*
X60716375Y-67784958D01*
X60715624Y-67780356D01*
X60722838Y-67768434D01*
X60742134Y-67746119D01*
X60769987Y-67717357D01*
X60784198Y-67703531D01*
X60852772Y-67637997D01*
X60824859Y-67611506D01*
X60804722Y-67586931D01*
X60782644Y-67551923D01*
X60769531Y-67526733D01*
X60756778Y-67496639D01*
X60748288Y-67467103D01*
X60743001Y-67432075D01*
X60739857Y-67385501D01*
X60738571Y-67349932D01*
X60738202Y-67294751D01*
X60740042Y-67240720D01*
X60743729Y-67195328D01*
X60747063Y-67173434D01*
X60766907Y-67112221D01*
X60797931Y-67058078D01*
X60836637Y-67016122D01*
X60868532Y-66995765D01*
X60920843Y-66980417D01*
X60979870Y-66976138D01*
X61036730Y-66982914D01*
G37*
G36*
X61584543Y-68273792D02*
G01*
X61579245Y-68279090D01*
X61573946Y-68273792D01*
X61579245Y-68268494D01*
X61584543Y-68273792D01*
G37*
%TO.C,C41*%
X84610000Y-63707836D02*
X84610000Y-63492164D01*
X85330000Y-63707836D02*
X85330000Y-63492164D01*
%TO.C,C3*%
X57132164Y-56620000D02*
X57347836Y-56620000D01*
X57132164Y-55900000D02*
X57347836Y-55900000D01*
%TO.C,C12*%
X68040000Y-81022164D02*
X68040000Y-81237836D01*
X67320000Y-81022164D02*
X67320000Y-81237836D01*
D14*
%TO.C,D1*%
X36805000Y-82940000D02*
G75*
G03*
X36805000Y-82940000I-50000J0D01*
G01*
D11*
%TO.C,C18*%
X71080000Y-69842164D02*
X71080000Y-70057836D01*
X71800000Y-69842164D02*
X71800000Y-70057836D01*
D15*
%TO.C,U2*%
X37104000Y-68275000D02*
X35975000Y-68275000D01*
X44356000Y-68046000D02*
X36204000Y-68046000D01*
X36204000Y-68046000D02*
X36204000Y-61894000D01*
X36204000Y-61894000D02*
X44356000Y-61894000D01*
X44356000Y-61894000D02*
X44356000Y-68046000D01*
X35975000Y-68275000D02*
X35975000Y-67146000D01*
D14*
X37705000Y-68546000D02*
G75*
G03*
X37705000Y-68546000I-50000J0D01*
G01*
G36*
X37104000Y-68046000D02*
G01*
X36204000Y-68046000D01*
X36204000Y-67146000D01*
X37104000Y-68046000D01*
G37*
D11*
X37104000Y-68046000D02*
X36204000Y-68046000D01*
X36204000Y-67146000D01*
X37104000Y-68046000D01*
%TO.C,C21*%
X72800000Y-60102164D02*
X72800000Y-60317836D01*
X72080000Y-60102164D02*
X72080000Y-60317836D01*
%TO.C,C16*%
X54850000Y-83502164D02*
X54850000Y-83717836D01*
X55570000Y-83502164D02*
X55570000Y-83717836D01*
%TO.C,C32*%
X77172164Y-78370000D02*
X77387836Y-78370000D01*
X77172164Y-79090000D02*
X77387836Y-79090000D01*
%TO.C,C38*%
X82650000Y-63707836D02*
X82650000Y-63492164D01*
X83370000Y-63707836D02*
X83370000Y-63492164D01*
%TO.C,SWD*%
X47160000Y-58640000D02*
X43060000Y-58640000D01*
X43060000Y-56640000D02*
X47160000Y-56640000D01*
X43060000Y-58640000D02*
X43060000Y-56640000D01*
X47160000Y-56640000D02*
X47160000Y-58640000D01*
%TO.C,C1*%
X62642164Y-56630000D02*
X62857836Y-56630000D01*
X62642164Y-55910000D02*
X62857836Y-55910000D01*
%TO.C,C6*%
X46690000Y-70557836D02*
X46690000Y-70342164D01*
X47410000Y-70557836D02*
X47410000Y-70342164D01*
%TO.C,C5*%
X46710000Y-65807836D02*
X46710000Y-65592164D01*
X47430000Y-65807836D02*
X47430000Y-65592164D01*
%TO.C,C14*%
X65142164Y-81260000D02*
X65357836Y-81260000D01*
X65142164Y-81980000D02*
X65357836Y-81980000D01*
%TO.C,C15*%
X52890000Y-83502164D02*
X52890000Y-83717836D01*
X53610000Y-83502164D02*
X53610000Y-83717836D01*
%TO.C,C33*%
X76390000Y-71877836D02*
X76390000Y-71662164D01*
X77110000Y-71877836D02*
X77110000Y-71662164D01*
%TO.C,U7*%
X80465000Y-65910000D02*
X80940000Y-65910000D01*
X74195000Y-65910000D02*
X73720000Y-65910000D01*
X74195000Y-58690000D02*
X73720000Y-58690000D01*
X73720000Y-58690000D02*
X73720000Y-59165000D01*
X73720000Y-65910000D02*
X73720000Y-65435000D01*
X80940000Y-58690000D02*
X80940000Y-59165000D01*
X80465000Y-58690000D02*
X80940000Y-58690000D01*
D10*
%TO.C,U4*%
X79700000Y-77650000D02*
X79175000Y-77650000D01*
X75400000Y-77650000D02*
X75400000Y-77125000D01*
X79700000Y-73350000D02*
X79700000Y-73875000D01*
X75400000Y-73350000D02*
X75925000Y-73350000D01*
X75400000Y-73350000D02*
X75400000Y-73875000D01*
X75400000Y-77650000D02*
X75925000Y-77650000D01*
X79700000Y-73350000D02*
X79175000Y-73350000D01*
D11*
%TO.C,J1*%
X77810000Y-55480000D02*
X77810000Y-54880000D01*
X81260000Y-56180000D02*
X78460000Y-56180000D01*
X81060000Y-53980000D02*
X81360000Y-53680000D01*
X81910000Y-54880000D02*
X81910000Y-55480000D01*
X78460000Y-54180000D02*
X81260000Y-54180000D01*
X81360000Y-53680000D02*
X80760000Y-53680000D01*
X81060000Y-53980000D02*
X80760000Y-53680000D01*
X77810000Y-55480000D02*
G75*
G03*
X78510000Y-56180000I700000J0D01*
G01*
X81210000Y-56180000D02*
G75*
G03*
X81910000Y-55480000I1J699999D01*
G01*
X81910000Y-54880000D02*
G75*
G03*
X81210000Y-54180000I-699999J1D01*
G01*
X78510000Y-54180000D02*
G75*
G03*
X77810000Y-54880000I0J-700000D01*
G01*
%TO.C,C40*%
X84350000Y-63707836D02*
X84350000Y-63492164D01*
X83630000Y-63707836D02*
X83630000Y-63492164D01*
D14*
%TO.C,D2*%
X36805000Y-80950000D02*
G75*
G03*
X36805000Y-80950000I-50000J0D01*
G01*
D11*
%TO.C,C22*%
X50857836Y-54900000D02*
X50642164Y-54900000D01*
X50857836Y-55620000D02*
X50642164Y-55620000D01*
%TO.C,C19*%
X71090000Y-64852164D02*
X71090000Y-65067836D01*
X71810000Y-64852164D02*
X71810000Y-65067836D01*
%TO.C,R2*%
X40903641Y-80570000D02*
X40596359Y-80570000D01*
X40903641Y-81330000D02*
X40596359Y-81330000D01*
%TO.C,C20*%
X71080000Y-60102164D02*
X71080000Y-60317836D01*
X71800000Y-60102164D02*
X71800000Y-60317836D01*
%TO.C,C37*%
X82390000Y-61807836D02*
X82390000Y-61592164D01*
X81670000Y-61807836D02*
X81670000Y-61592164D01*
%TO.C,C7*%
X47360000Y-77802164D02*
X47360000Y-78017836D01*
X46640000Y-77802164D02*
X46640000Y-78017836D01*
%TO.C,BOOT*%
X40920000Y-58640000D02*
X36820000Y-58640000D01*
X40920000Y-56640000D02*
X40920000Y-58640000D01*
X36820000Y-58640000D02*
X36820000Y-56640000D01*
X36820000Y-56640000D02*
X40920000Y-56640000D01*
D10*
%TO.C,Y2*%
X53742000Y-80888000D02*
X54821000Y-80888000D01*
X53742000Y-82412000D02*
X54821000Y-82412000D01*
D11*
%TO.C,R6*%
X78180000Y-71943641D02*
X78180000Y-71636359D01*
X77420000Y-71943641D02*
X77420000Y-71636359D01*
%TO.C,C11*%
X47360000Y-76107836D02*
X47360000Y-75892164D01*
X46640000Y-76107836D02*
X46640000Y-75892164D01*
%TO.C,C28*%
X79210000Y-71662164D02*
X79210000Y-71877836D01*
X78490000Y-71662164D02*
X78490000Y-71877836D01*
%TO.C,C8*%
X57967836Y-80990000D02*
X57752164Y-80990000D01*
X57967836Y-80270000D02*
X57752164Y-80270000D01*
%TO.C,AE1*%
X85670000Y-66227500D02*
X82950000Y-66227500D01*
X85670000Y-72937500D02*
X85670000Y-66227500D01*
X82950000Y-66227500D02*
X82950000Y-72937500D01*
%TO.C,C4*%
X50642164Y-55900000D02*
X50857836Y-55900000D01*
X50642164Y-56620000D02*
X50857836Y-56620000D01*
%TO.C,R8*%
X82410000Y-59626359D02*
X82410000Y-59933641D01*
X81650000Y-59626359D02*
X81650000Y-59933641D01*
%TO.C,R5*%
X79360000Y-79353641D02*
X79360000Y-79046359D01*
X80120000Y-79353641D02*
X80120000Y-79046359D01*
%TO.C,C39*%
X81670000Y-63707836D02*
X81670000Y-63492164D01*
X82390000Y-63707836D02*
X82390000Y-63492164D01*
%TO.C,R1*%
X40903641Y-83320000D02*
X40596359Y-83320000D01*
X40903641Y-82560000D02*
X40596359Y-82560000D01*
%TO.C,C11*%
X65142164Y-80990000D02*
X65357836Y-80990000D01*
X65142164Y-80270000D02*
X65357836Y-80270000D01*
%TO.C,U6*%
X75270000Y-56290000D02*
X76070000Y-56290000D01*
X75270000Y-56290000D02*
X74470000Y-56290000D01*
X75270000Y-53170000D02*
X73470000Y-53170000D01*
X75270000Y-53170000D02*
X76070000Y-53170000D01*
%TO.C,C30*%
X73970000Y-73652164D02*
X73970000Y-73867836D01*
X74690000Y-73652164D02*
X74690000Y-73867836D01*
%TO.C,U3*%
X45180000Y-83830000D02*
X46980000Y-83830000D01*
X45180000Y-80710000D02*
X44380000Y-80710000D01*
X45180000Y-80710000D02*
X45980000Y-80710000D01*
X45180000Y-83830000D02*
X44380000Y-83830000D01*
D15*
%TO.C,U5*%
X37184000Y-70324000D02*
X43336000Y-70324000D01*
X43336000Y-75476000D02*
X37184000Y-75476000D01*
D13*
X44310000Y-74805000D02*
G75*
G03*
X44310000Y-74805000I-100000J0D01*
G01*
%TD*%
M02*
