%FSLAX45Y45*%
G04 Gerber Fmt 4.5, Leading zero omitted, Abs format (unit mm)*
G04 Created by KiCad (PCBNEW (6.0.4)) date 2023-02-01 13:33:51*
%MOMM*%
%LPD*%
G01*
G04 APERTURE LIST*
%TA.AperFunction,Profile*%
%ADD10C,0.150000*%
%TD*%
%ADD11C,0.200000*%
%ADD12C,0.030000*%
%ADD13C,0.035000*%
G04 APERTURE END LIST*
D10*
X8369000Y-5119000D02*
X3795000Y-5119000D01*
X8599365Y-8335365D02*
X8599365Y-5349000D01*
X3565000Y-5350000D02*
X3565000Y-8334000D01*
X3565002Y-8334000D02*
G75*
G03*
X3796000Y-8564000I230898J900D01*
G01*
X3796000Y-8564000D02*
X8369365Y-8564000D01*
X3795000Y-5119002D02*
G75*
G03*
X3565000Y-5350000I900J-230898D01*
G01*
X8599360Y-5349000D02*
G75*
G03*
X8369000Y-5119000I-230380J-380D01*
G01*
X8369365Y-8563995D02*
G75*
G03*
X8599365Y-8334000I5J229995D01*
G01*
D11*
D12*
X3721000Y-8080000D02*
X3751000Y-8110000D01*
X3751000Y-8080000D02*
X3721000Y-8110000D01*
X3734000Y-7143500D02*
X3764000Y-7173500D01*
X3764000Y-7143500D02*
X3734000Y-7173500D01*
X3742000Y-5749000D02*
X3772000Y-5779000D01*
X3772000Y-5749000D02*
X3742000Y-5779000D01*
X3750000Y-6295000D02*
X3780000Y-6325000D01*
X3780000Y-6295000D02*
X3750000Y-6325000D01*
X3750000Y-6370000D02*
X3780000Y-6400000D01*
X3780000Y-6370000D02*
X3750000Y-6400000D01*
X3750000Y-6445000D02*
X3780000Y-6475000D01*
X3780000Y-6445000D02*
X3750000Y-6475000D01*
X3750000Y-6520000D02*
X3780000Y-6550000D01*
X3780000Y-6520000D02*
X3750000Y-6550000D01*
X3750000Y-6595000D02*
X3780000Y-6625000D01*
X3780000Y-6595000D02*
X3750000Y-6625000D01*
X3750000Y-6670000D02*
X3780000Y-6700000D01*
X3780000Y-6670000D02*
X3750000Y-6700000D01*
X3807000Y-7465000D02*
X3837000Y-7495000D01*
X3837000Y-7465000D02*
X3807000Y-7495000D01*
X3808000Y-7167000D02*
X3838000Y-7197000D01*
X3838000Y-7167000D02*
X3808000Y-7197000D01*
X3825000Y-6295000D02*
X3855000Y-6325000D01*
X3855000Y-6295000D02*
X3825000Y-6325000D01*
X3825000Y-6370000D02*
X3855000Y-6400000D01*
X3855000Y-6370000D02*
X3825000Y-6400000D01*
X3825000Y-6445000D02*
X3855000Y-6475000D01*
X3855000Y-6445000D02*
X3825000Y-6475000D01*
X3825000Y-6520000D02*
X3855000Y-6550000D01*
X3855000Y-6520000D02*
X3825000Y-6550000D01*
X3825000Y-6595000D02*
X3855000Y-6625000D01*
X3855000Y-6595000D02*
X3825000Y-6625000D01*
X3825000Y-6670000D02*
X3855000Y-6700000D01*
X3855000Y-6670000D02*
X3825000Y-6700000D01*
X3829600Y-6214997D02*
X3859600Y-6244997D01*
X3859600Y-6214997D02*
X3829600Y-6244997D01*
X3879550Y-6215099D02*
X3909550Y-6245099D01*
X3909550Y-6215099D02*
X3879550Y-6245099D01*
X3900000Y-6295000D02*
X3930000Y-6325000D01*
X3930000Y-6295000D02*
X3900000Y-6325000D01*
X3900000Y-6370000D02*
X3930000Y-6400000D01*
X3930000Y-6370000D02*
X3900000Y-6400000D01*
X3900000Y-6445000D02*
X3930000Y-6475000D01*
X3930000Y-6445000D02*
X3900000Y-6475000D01*
X3900000Y-6520000D02*
X3930000Y-6550000D01*
X3930000Y-6520000D02*
X3900000Y-6550000D01*
X3900000Y-6595000D02*
X3930000Y-6625000D01*
X3930000Y-6595000D02*
X3900000Y-6625000D01*
X3900000Y-6670000D02*
X3930000Y-6700000D01*
X3930000Y-6670000D02*
X3900000Y-6700000D01*
X3975000Y-6295000D02*
X4005000Y-6325000D01*
X4005000Y-6295000D02*
X3975000Y-6325000D01*
X3975000Y-6370000D02*
X4005000Y-6400000D01*
X4005000Y-6370000D02*
X3975000Y-6400000D01*
X3975000Y-6445000D02*
X4005000Y-6475000D01*
X4005000Y-6445000D02*
X3975000Y-6475000D01*
X3975000Y-6520000D02*
X4005000Y-6550000D01*
X4005000Y-6520000D02*
X3975000Y-6550000D01*
X3975000Y-6595000D02*
X4005000Y-6625000D01*
X4005000Y-6595000D02*
X3975000Y-6625000D01*
X3975000Y-6670000D02*
X4005000Y-6700000D01*
X4005000Y-6670000D02*
X3975000Y-6700000D01*
X4003000Y-5749000D02*
X4033000Y-5779000D01*
X4033000Y-5749000D02*
X4003000Y-5779000D01*
X4011000Y-7276000D02*
X4041000Y-7306000D01*
X4041000Y-7276000D02*
X4011000Y-7306000D01*
X4050000Y-6295000D02*
X4080000Y-6325000D01*
X4080000Y-6295000D02*
X4050000Y-6325000D01*
X4050000Y-6370000D02*
X4080000Y-6400000D01*
X4080000Y-6370000D02*
X4050000Y-6400000D01*
X4050000Y-6445000D02*
X4080000Y-6475000D01*
X4080000Y-6445000D02*
X4050000Y-6475000D01*
X4050000Y-6520000D02*
X4080000Y-6550000D01*
X4080000Y-6520000D02*
X4050000Y-6550000D01*
X4050000Y-6595000D02*
X4080000Y-6625000D01*
X4080000Y-6595000D02*
X4050000Y-6625000D01*
X4050000Y-6670000D02*
X4080000Y-6700000D01*
X4080000Y-6670000D02*
X4050000Y-6700000D01*
X4122000Y-6083000D02*
X4152000Y-6113000D01*
X4152000Y-6083000D02*
X4122000Y-6113000D01*
X4124906Y-6295000D02*
X4154906Y-6325000D01*
X4154906Y-6295000D02*
X4124906Y-6325000D01*
X4124906Y-6370000D02*
X4154906Y-6400000D01*
X4154906Y-6370000D02*
X4124906Y-6400000D01*
X4124906Y-6445000D02*
X4154906Y-6475000D01*
X4154906Y-6445000D02*
X4124906Y-6475000D01*
X4124906Y-6520000D02*
X4154906Y-6550000D01*
X4154906Y-6520000D02*
X4124906Y-6550000D01*
X4124906Y-6595000D02*
X4154906Y-6625000D01*
X4154906Y-6595000D02*
X4124906Y-6625000D01*
X4124906Y-6670000D02*
X4154906Y-6700000D01*
X4154906Y-6670000D02*
X4124906Y-6700000D01*
X4124907Y-6203098D02*
X4154907Y-6233098D01*
X4154907Y-6203098D02*
X4124907Y-6233098D01*
X4138000Y-5915000D02*
X4168000Y-5945000D01*
X4168000Y-5915000D02*
X4138000Y-5945000D01*
X4175050Y-6083000D02*
X4205050Y-6113000D01*
X4205050Y-6083000D02*
X4175050Y-6113000D01*
X4200000Y-6295000D02*
X4230000Y-6325000D01*
X4230000Y-6295000D02*
X4200000Y-6325000D01*
X4200000Y-6370000D02*
X4230000Y-6400000D01*
X4230000Y-6370000D02*
X4200000Y-6400000D01*
X4200000Y-6445000D02*
X4230000Y-6475000D01*
X4230000Y-6445000D02*
X4200000Y-6475000D01*
X4200000Y-6520000D02*
X4230000Y-6550000D01*
X4230000Y-6520000D02*
X4200000Y-6550000D01*
X4200000Y-6595000D02*
X4230000Y-6625000D01*
X4230000Y-6595000D02*
X4200000Y-6625000D01*
X4200000Y-6670000D02*
X4230000Y-6700000D01*
X4230000Y-6670000D02*
X4200000Y-6700000D01*
X4225000Y-6083000D02*
X4255000Y-6113000D01*
X4255000Y-6083000D02*
X4225000Y-6113000D01*
X4275000Y-6295000D02*
X4305000Y-6325000D01*
X4305000Y-6295000D02*
X4275000Y-6325000D01*
X4275000Y-6370000D02*
X4305000Y-6400000D01*
X4305000Y-6370000D02*
X4275000Y-6400000D01*
X4275000Y-6445000D02*
X4305000Y-6475000D01*
X4305000Y-6445000D02*
X4275000Y-6475000D01*
X4275000Y-6520000D02*
X4305000Y-6550000D01*
X4305000Y-6520000D02*
X4275000Y-6550000D01*
X4275000Y-6595000D02*
X4305000Y-6625000D01*
X4305000Y-6595000D02*
X4275000Y-6625000D01*
X4275000Y-6670000D02*
X4305000Y-6700000D01*
X4305000Y-6670000D02*
X4275000Y-6700000D01*
X4277000Y-6083000D02*
X4307000Y-6113000D01*
X4307000Y-6083000D02*
X4277000Y-6113000D01*
X4281050Y-6205147D02*
X4311050Y-6235147D01*
X4311050Y-6205147D02*
X4281050Y-6235147D01*
X4332050Y-6083000D02*
X4362050Y-6113000D01*
X4362050Y-6083000D02*
X4332050Y-6113000D01*
X4341050Y-6482000D02*
X4371050Y-6512000D01*
X4371050Y-6482000D02*
X4341050Y-6512000D01*
X4348781Y-6702800D02*
X4378781Y-6732800D01*
X4378781Y-6702800D02*
X4348781Y-6732800D01*
X4377098Y-6566407D02*
X4407098Y-6596407D01*
X4407098Y-6566407D02*
X4377098Y-6596407D01*
X4382000Y-6083000D02*
X4412000Y-6113000D01*
X4412000Y-6083000D02*
X4382000Y-6113000D01*
X4388213Y-6204787D02*
X4418213Y-6234787D01*
X4418213Y-6204787D02*
X4388213Y-6234787D01*
X4397050Y-6689951D02*
X4427050Y-6719951D01*
X4427050Y-6689951D02*
X4397050Y-6719951D01*
X4409000Y-7410000D02*
X4439000Y-7440000D01*
X4439000Y-7410000D02*
X4409000Y-7440000D01*
X4412000Y-7081000D02*
X4442000Y-7111000D01*
X4442000Y-7081000D02*
X4412000Y-7111000D01*
X4432500Y-6083500D02*
X4462500Y-6113500D01*
X4462500Y-6083500D02*
X4432500Y-6113500D01*
X4438148Y-6203551D02*
X4468148Y-6233551D01*
X4468148Y-6203551D02*
X4438148Y-6233551D01*
X4469646Y-6242318D02*
X4499646Y-6272318D01*
X4499646Y-6242318D02*
X4469646Y-6272318D01*
X4487950Y-6299657D02*
X4517950Y-6329657D01*
X4517950Y-6299657D02*
X4487950Y-6329657D01*
X4512634Y-6356991D02*
X4542634Y-6386991D01*
X4542634Y-6356991D02*
X4512634Y-6386991D01*
X4524835Y-6163165D02*
X4554835Y-6193165D01*
X4554835Y-6163165D02*
X4524835Y-6193165D01*
X4537273Y-6307549D02*
X4567273Y-6337549D01*
X4567273Y-6307549D02*
X4537273Y-6337549D01*
X4547954Y-6392311D02*
X4577954Y-6422311D01*
X4577954Y-6392311D02*
X4547954Y-6422311D01*
X4565000Y-6918182D02*
X4595000Y-6948182D01*
X4595000Y-6918182D02*
X4565000Y-6948182D01*
X4565000Y-6988083D02*
X4595000Y-7018083D01*
X4595000Y-6988083D02*
X4565000Y-7018083D01*
X4579184Y-6280374D02*
X4609184Y-6310374D01*
X4609184Y-6280374D02*
X4579184Y-6310374D01*
X4581847Y-7279797D02*
X4611847Y-7309797D01*
X4611847Y-7279797D02*
X4581847Y-7309797D01*
X4585000Y-6170050D02*
X4615000Y-6200050D01*
X4615000Y-6170050D02*
X4585000Y-6200050D01*
X4601646Y-7023034D02*
X4631646Y-7053034D01*
X4631646Y-7023034D02*
X4601646Y-7053034D01*
X4603756Y-6953132D02*
X4633756Y-6983132D01*
X4633756Y-6953132D02*
X4603756Y-6983132D01*
X4603835Y-6833285D02*
X4633835Y-6863285D01*
X4633835Y-6833285D02*
X4603835Y-6863285D01*
X4604385Y-6883232D02*
X4634385Y-6913232D01*
X4634385Y-6883232D02*
X4604385Y-6913232D01*
X4621361Y-6307135D02*
X4651361Y-6337135D01*
X4651361Y-6307135D02*
X4621361Y-6337135D01*
X4627000Y-5750000D02*
X4657000Y-5780000D01*
X4657000Y-5750000D02*
X4627000Y-5780000D01*
X4685000Y-7538000D02*
X4715000Y-7568000D01*
X4715000Y-7538000D02*
X4685000Y-7568000D01*
X4685000Y-7633000D02*
X4715000Y-7663000D01*
X4715000Y-7633000D02*
X4685000Y-7663000D01*
X4685000Y-7824000D02*
X4715000Y-7854000D01*
X4715000Y-7824000D02*
X4685000Y-7854000D01*
X4692000Y-6439950D02*
X4722000Y-6469950D01*
X4722000Y-6439950D02*
X4692000Y-6469950D01*
X4702000Y-6366000D02*
X4732000Y-6396000D01*
X4732000Y-6366000D02*
X4702000Y-6396000D01*
X4721000Y-5946000D02*
X4751000Y-5976000D01*
X4751000Y-5946000D02*
X4721000Y-5976000D01*
X4954913Y-7349912D02*
X4984913Y-7379912D01*
X4984913Y-7349912D02*
X4954913Y-7379912D01*
X4959000Y-7556000D02*
X4989000Y-7586000D01*
X4989000Y-7556000D02*
X4959000Y-7586000D01*
X4959000Y-7605950D02*
X4989000Y-7635950D01*
X4989000Y-7605950D02*
X4959000Y-7635950D01*
X4992000Y-6453000D02*
X5022000Y-6483000D01*
X5022000Y-6453000D02*
X4992000Y-6483000D01*
X4992000Y-6513098D02*
X5022000Y-6543098D01*
X5022000Y-6513098D02*
X4992000Y-6543098D01*
X5003000Y-5864000D02*
X5033000Y-5894000D01*
X5033000Y-5864000D02*
X5003000Y-5894000D01*
X5012000Y-5611000D02*
X5042000Y-5641000D01*
X5042000Y-5611000D02*
X5012000Y-5641000D01*
X5021000Y-6891000D02*
X5051000Y-6921000D01*
X5051000Y-6891000D02*
X5021000Y-6921000D01*
X5055392Y-5865161D02*
X5085392Y-5895161D01*
X5085392Y-5865161D02*
X5055392Y-5895161D01*
X5080000Y-7755000D02*
X5110000Y-7785000D01*
X5110000Y-7755000D02*
X5080000Y-7785000D01*
X5084000Y-6909000D02*
X5114000Y-6939000D01*
X5114000Y-6909000D02*
X5084000Y-6939000D01*
X5105318Y-5866725D02*
X5135318Y-5896725D01*
X5135318Y-5866725D02*
X5105318Y-5896725D01*
X5138000Y-7767000D02*
X5168000Y-7797000D01*
X5168000Y-7767000D02*
X5138000Y-7797000D01*
X5145000Y-8032000D02*
X5175000Y-8062000D01*
X5175000Y-8032000D02*
X5145000Y-8062000D01*
X5155251Y-5868033D02*
X5185251Y-5898033D01*
X5185251Y-5868033D02*
X5155251Y-5898033D01*
X5187369Y-7759405D02*
X5217369Y-7789405D01*
X5217369Y-7759405D02*
X5187369Y-7789405D01*
X5205202Y-5867999D02*
X5235202Y-5897999D01*
X5235202Y-5867999D02*
X5205202Y-5897999D01*
X5213000Y-8032000D02*
X5243000Y-8062000D01*
X5243000Y-8032000D02*
X5213000Y-8062000D01*
X5255427Y-5880759D02*
X5285427Y-5910759D01*
X5285427Y-5880759D02*
X5255427Y-5910759D01*
X5262000Y-7757000D02*
X5292000Y-7787000D01*
X5292000Y-7757000D02*
X5262000Y-7787000D01*
X5305377Y-5900711D02*
X5335377Y-5930711D01*
X5335377Y-5900711D02*
X5305377Y-5930711D01*
X5310329Y-5959626D02*
X5340329Y-5989626D01*
X5340329Y-5959626D02*
X5310329Y-5989626D01*
X5337538Y-6348758D02*
X5367538Y-6378758D01*
X5367538Y-6348758D02*
X5337538Y-6378758D01*
X5338000Y-6418658D02*
X5368000Y-6448658D01*
X5368000Y-6418658D02*
X5338000Y-6448658D01*
X5338000Y-6488559D02*
X5368000Y-6518559D01*
X5368000Y-6488559D02*
X5338000Y-6518559D01*
X5358000Y-7756000D02*
X5388000Y-7786000D01*
X5388000Y-7756000D02*
X5358000Y-7786000D01*
X5360279Y-5959626D02*
X5390279Y-5989626D01*
X5390279Y-5959626D02*
X5360279Y-5989626D01*
X5386000Y-6383708D02*
X5416000Y-6413708D01*
X5416000Y-6383708D02*
X5386000Y-6413708D01*
X5387313Y-6453609D02*
X5417313Y-6483609D01*
X5417313Y-6453609D02*
X5387313Y-6483609D01*
X5471000Y-5224200D02*
X5501000Y-5254200D01*
X5501000Y-5224200D02*
X5471000Y-5254200D01*
X5490175Y-7704149D02*
X5520175Y-7734149D01*
X5520175Y-7704149D02*
X5490175Y-7734149D01*
X5505000Y-7097000D02*
X5535000Y-7127000D01*
X5535000Y-7097000D02*
X5505000Y-7127000D01*
X5507117Y-6396667D02*
X5537117Y-6426667D01*
X5537117Y-6396667D02*
X5507117Y-6426667D01*
X5508389Y-6473038D02*
X5538389Y-6503038D01*
X5538389Y-6473038D02*
X5508389Y-6503038D01*
X5535000Y-7774050D02*
X5565000Y-7804050D01*
X5565000Y-7774050D02*
X5535000Y-7804050D01*
X5540000Y-7137000D02*
X5570000Y-7167000D01*
X5570000Y-7137000D02*
X5540000Y-7167000D01*
X5540615Y-6511202D02*
X5570615Y-6541202D01*
X5570615Y-6511202D02*
X5540615Y-6541202D01*
X5542114Y-6432307D02*
X5572114Y-6462307D01*
X5572114Y-6432307D02*
X5542114Y-6462307D01*
X5551000Y-5224200D02*
X5581000Y-5254200D01*
X5581000Y-5224200D02*
X5551000Y-5254200D01*
X5586000Y-7797000D02*
X5616000Y-7827000D01*
X5616000Y-7797000D02*
X5586000Y-7827000D01*
X5611000Y-6513000D02*
X5641000Y-6543000D01*
X5641000Y-6513000D02*
X5611000Y-6543000D01*
X5631000Y-5224200D02*
X5661000Y-5254200D01*
X5661000Y-5224200D02*
X5631000Y-5254200D01*
X5631000Y-8001200D02*
X5661000Y-8031200D01*
X5661000Y-8001200D02*
X5631000Y-8031200D01*
X5631000Y-8430800D02*
X5661000Y-8460800D01*
X5661000Y-8430800D02*
X5631000Y-8460800D01*
X5635928Y-7748072D02*
X5665928Y-7778072D01*
X5665928Y-7748072D02*
X5635928Y-7778072D01*
X5685000Y-7796000D02*
X5715000Y-7826000D01*
X5715000Y-7796000D02*
X5685000Y-7826000D01*
X5686000Y-5502000D02*
X5716000Y-5532000D01*
X5716000Y-5502000D02*
X5686000Y-5532000D01*
X5711000Y-5224200D02*
X5741000Y-5254200D01*
X5741000Y-5224200D02*
X5711000Y-5254200D01*
X5711000Y-8430800D02*
X5741000Y-8460800D01*
X5741000Y-8430800D02*
X5711000Y-8460800D01*
X5735000Y-7762000D02*
X5765000Y-7792000D01*
X5765000Y-7762000D02*
X5735000Y-7792000D01*
X5737000Y-5505000D02*
X5767000Y-5535000D01*
X5767000Y-5505000D02*
X5737000Y-5535000D01*
X5749000Y-7706000D02*
X5779000Y-7736000D01*
X5779000Y-7706000D02*
X5749000Y-7736000D01*
X5791000Y-5224400D02*
X5821000Y-5254400D01*
X5821000Y-5224400D02*
X5791000Y-5254400D01*
X5791000Y-8430800D02*
X5821000Y-8460800D01*
X5821000Y-8430800D02*
X5791000Y-8460800D01*
X5819000Y-7614000D02*
X5849000Y-7644000D01*
X5849000Y-7614000D02*
X5819000Y-7644000D01*
X5845000Y-7793000D02*
X5875000Y-7823000D01*
X5875000Y-7793000D02*
X5845000Y-7823000D01*
X5855472Y-7655367D02*
X5885472Y-7685367D01*
X5885472Y-7655367D02*
X5855472Y-7685367D01*
X5871000Y-5224400D02*
X5901000Y-5254400D01*
X5901000Y-5224400D02*
X5871000Y-5254400D01*
X5871000Y-8430800D02*
X5901000Y-8460800D01*
X5901000Y-8430800D02*
X5871000Y-8460800D01*
X5890422Y-7615221D02*
X5920422Y-7645221D01*
X5920422Y-7615221D02*
X5890422Y-7645221D01*
X5922050Y-5904130D02*
X5952050Y-5934130D01*
X5952050Y-5904130D02*
X5922050Y-5934130D01*
X5923372Y-5954879D02*
X5953372Y-5984879D01*
X5953372Y-5954879D02*
X5923372Y-5984879D01*
X5925372Y-7652470D02*
X5955372Y-7682470D01*
X5955372Y-7652470D02*
X5925372Y-7682470D01*
X5951000Y-5224400D02*
X5981000Y-5254400D01*
X5981000Y-5224400D02*
X5951000Y-5254400D01*
X5951000Y-8430800D02*
X5981000Y-8460800D01*
X5981000Y-8430800D02*
X5951000Y-8460800D01*
X5960322Y-7614000D02*
X5990322Y-7644000D01*
X5990322Y-7614000D02*
X5960322Y-7644000D01*
X5992672Y-5902259D02*
X6022672Y-5932259D01*
X6022672Y-5902259D02*
X5992672Y-5932259D01*
X5995411Y-7649549D02*
X6025411Y-7679549D01*
X6025411Y-7649549D02*
X5995411Y-7679549D01*
X6030934Y-7614433D02*
X6060934Y-7644433D01*
X6060934Y-7614433D02*
X6030934Y-7644433D01*
X6031000Y-5224400D02*
X6061000Y-5254400D01*
X6061000Y-5224400D02*
X6031000Y-5254400D01*
X6031000Y-8430800D02*
X6061000Y-8460800D01*
X6061000Y-8430800D02*
X6031000Y-8460800D01*
X6042619Y-5901728D02*
X6072619Y-5931728D01*
X6072619Y-5901728D02*
X6042619Y-5931728D01*
X6065884Y-7650809D02*
X6095884Y-7680809D01*
X6095884Y-7650809D02*
X6065884Y-7680809D01*
X6100834Y-7615000D02*
X6130834Y-7645000D01*
X6130834Y-7615000D02*
X6100834Y-7645000D01*
X6111000Y-5224400D02*
X6141000Y-5254400D01*
X6141000Y-5224400D02*
X6111000Y-5254400D01*
X6111000Y-8430800D02*
X6141000Y-8460800D01*
X6141000Y-8430800D02*
X6111000Y-8460800D01*
X6132000Y-5871000D02*
X6162000Y-5901000D01*
X6162000Y-5871000D02*
X6132000Y-5901000D01*
X6135784Y-7650911D02*
X6165784Y-7680911D01*
X6165784Y-7650911D02*
X6135784Y-7680911D01*
X6161000Y-8154000D02*
X6191000Y-8184000D01*
X6191000Y-8154000D02*
X6161000Y-8184000D01*
X6171081Y-7610346D02*
X6201081Y-7640346D01*
X6201081Y-7610346D02*
X6171081Y-7640346D01*
X6181934Y-5869720D02*
X6211934Y-5899720D01*
X6211934Y-5869720D02*
X6181934Y-5899720D01*
X6191000Y-5224400D02*
X6221000Y-5254400D01*
X6221000Y-5224400D02*
X6191000Y-5254400D01*
X6191000Y-8430800D02*
X6221000Y-8460800D01*
X6221000Y-8430800D02*
X6191000Y-8460800D01*
X6233000Y-5504000D02*
X6263000Y-5534000D01*
X6263000Y-5504000D02*
X6233000Y-5534000D01*
X6271000Y-5224400D02*
X6301000Y-5254400D01*
X6301000Y-5224400D02*
X6271000Y-5254400D01*
X6271000Y-8430800D02*
X6301000Y-8460800D01*
X6301000Y-8430800D02*
X6271000Y-8460800D01*
X6295000Y-5507000D02*
X6325000Y-5537000D01*
X6325000Y-5507000D02*
X6295000Y-5537000D01*
X6312000Y-5901000D02*
X6342000Y-5931000D01*
X6342000Y-5901000D02*
X6312000Y-5931000D01*
X6351000Y-5224400D02*
X6381000Y-5254400D01*
X6381000Y-5224400D02*
X6351000Y-5254400D01*
X6351000Y-8430800D02*
X6381000Y-8460800D01*
X6381000Y-8430800D02*
X6351000Y-8460800D01*
X6382355Y-7773516D02*
X6412355Y-7803516D01*
X6412355Y-7773516D02*
X6382355Y-7803516D01*
X6383000Y-5865951D02*
X6413000Y-5895951D01*
X6413000Y-5865951D02*
X6383000Y-5895951D01*
X6431000Y-5224400D02*
X6461000Y-5254400D01*
X6461000Y-5224400D02*
X6431000Y-5254400D01*
X6431000Y-8430800D02*
X6461000Y-8460800D01*
X6461000Y-8430800D02*
X6431000Y-8460800D01*
X6432000Y-7768000D02*
X6462000Y-7798000D01*
X6462000Y-7768000D02*
X6432000Y-7798000D01*
X6435153Y-5900901D02*
X6465153Y-5930901D01*
X6465153Y-5900901D02*
X6435153Y-5930901D01*
X6485000Y-7772000D02*
X6515000Y-7802000D01*
X6515000Y-7772000D02*
X6485000Y-7802000D01*
X6485093Y-5901920D02*
X6515093Y-5931920D01*
X6515093Y-5901920D02*
X6485093Y-5931920D01*
X6511000Y-5224400D02*
X6541000Y-5254400D01*
X6541000Y-5224400D02*
X6511000Y-5254400D01*
X6511000Y-8430800D02*
X6541000Y-8460800D01*
X6541000Y-8430800D02*
X6511000Y-8460800D01*
X6535000Y-5904000D02*
X6565000Y-5934000D01*
X6565000Y-5904000D02*
X6535000Y-5934000D01*
X6536000Y-7771000D02*
X6566000Y-7801000D01*
X6566000Y-7771000D02*
X6536000Y-7801000D01*
X6587440Y-5905008D02*
X6617440Y-5935008D01*
X6617440Y-5905008D02*
X6587440Y-5935008D01*
X6591000Y-5224400D02*
X6621000Y-5254400D01*
X6621000Y-5224400D02*
X6591000Y-5254400D01*
X6629000Y-7774000D02*
X6659000Y-7804000D01*
X6659000Y-7774000D02*
X6629000Y-7804000D01*
X6750600Y-5224400D02*
X6780600Y-5254400D01*
X6780600Y-5224400D02*
X6750600Y-5254400D01*
X6756013Y-6809245D02*
X6786013Y-6839245D01*
X6786013Y-6809245D02*
X6756013Y-6839245D01*
X6764601Y-6332501D02*
X6794601Y-6362501D01*
X6794601Y-6332501D02*
X6764601Y-6362501D01*
X6797000Y-6551000D02*
X6827000Y-6581000D01*
X6827000Y-6551000D02*
X6797000Y-6581000D01*
X6798000Y-6606950D02*
X6828000Y-6636950D01*
X6828000Y-6606950D02*
X6798000Y-6636950D01*
X6814265Y-6349642D02*
X6844265Y-6379642D01*
X6844265Y-6349642D02*
X6814265Y-6379642D01*
X6821960Y-6778619D02*
X6851960Y-6808619D01*
X6851960Y-6778619D02*
X6821960Y-6808619D01*
X6842000Y-7614000D02*
X6872000Y-7644000D01*
X6872000Y-7614000D02*
X6842000Y-7644000D01*
X6842000Y-7710000D02*
X6872000Y-7740000D01*
X6872000Y-7710000D02*
X6842000Y-7740000D01*
X6861000Y-6947000D02*
X6891000Y-6977000D01*
X6891000Y-6947000D02*
X6861000Y-6977000D01*
X6862267Y-6496733D02*
X6892267Y-6526733D01*
X6892267Y-6496733D02*
X6862267Y-6526733D01*
X6863000Y-7020050D02*
X6893000Y-7050050D01*
X6893000Y-7020050D02*
X6863000Y-7050050D01*
X6865000Y-6855000D02*
X6895000Y-6885000D01*
X6895000Y-6855000D02*
X6865000Y-6885000D01*
X6865238Y-6443188D02*
X6895238Y-6473188D01*
X6895238Y-6443188D02*
X6865238Y-6473188D01*
X6866000Y-5955000D02*
X6896000Y-5985000D01*
X6896000Y-5955000D02*
X6866000Y-5985000D01*
X6866000Y-6705099D02*
X6896000Y-6735099D01*
X6896000Y-6705099D02*
X6866000Y-6735099D01*
X6866000Y-6755050D02*
X6896000Y-6785050D01*
X6896000Y-6755050D02*
X6866000Y-6785050D01*
X6866000Y-6805000D02*
X6896000Y-6835000D01*
X6896000Y-6805000D02*
X6866000Y-6835000D01*
X6867000Y-6607000D02*
X6897000Y-6637000D01*
X6897000Y-6607000D02*
X6867000Y-6637000D01*
X6868169Y-6552062D02*
X6898169Y-6582062D01*
X6898169Y-6552062D02*
X6868169Y-6582062D01*
X6869000Y-6305000D02*
X6899000Y-6335000D01*
X6899000Y-6305000D02*
X6869000Y-6335000D01*
X6869000Y-6354950D02*
X6899000Y-6384950D01*
X6899000Y-6354950D02*
X6869000Y-6384950D01*
X6870248Y-6255065D02*
X6900248Y-6285065D01*
X6900248Y-6255065D02*
X6870248Y-6285065D01*
X7129000Y-6054000D02*
X7159000Y-6084000D01*
X7159000Y-6054000D02*
X7129000Y-6084000D01*
X7140823Y-6160211D02*
X7170823Y-6190211D01*
X7170823Y-6160211D02*
X7140823Y-6190211D01*
X7168000Y-8341000D02*
X7198000Y-8371000D01*
X7198000Y-8341000D02*
X7168000Y-8371000D01*
X7179000Y-6128000D02*
X7209000Y-6158000D01*
X7209000Y-6128000D02*
X7179000Y-6158000D01*
X7214000Y-6231000D02*
X7244000Y-6261000D01*
X7244000Y-6231000D02*
X7214000Y-6261000D01*
X7251925Y-6198493D02*
X7281925Y-6228493D01*
X7281925Y-6198493D02*
X7251925Y-6228493D01*
X7418000Y-7313000D02*
X7448000Y-7343000D01*
X7448000Y-7313000D02*
X7418000Y-7343000D01*
X7419000Y-7410000D02*
X7449000Y-7440000D01*
X7449000Y-7410000D02*
X7419000Y-7440000D01*
X7424000Y-7661000D02*
X7454000Y-7691000D01*
X7454000Y-7661000D02*
X7424000Y-7691000D01*
X7589000Y-8342000D02*
X7619000Y-8372000D01*
X7619000Y-8342000D02*
X7589000Y-8372000D01*
X7657000Y-5458000D02*
X7687000Y-5488000D01*
X7687000Y-5458000D02*
X7657000Y-5488000D01*
X7719000Y-6218000D02*
X7749000Y-6248000D01*
X7749000Y-6218000D02*
X7719000Y-6248000D01*
X7761000Y-7858000D02*
X7791000Y-7888000D01*
X7791000Y-7858000D02*
X7761000Y-7888000D01*
X7765000Y-7114000D02*
X7795000Y-7144000D01*
X7795000Y-7114000D02*
X7765000Y-7144000D01*
X7816000Y-7657000D02*
X7846000Y-7687000D01*
X7846000Y-7657000D02*
X7816000Y-7687000D01*
X7846000Y-5505000D02*
X7876000Y-5535000D01*
X7876000Y-5505000D02*
X7846000Y-5535000D01*
X7857000Y-7625000D02*
X7887000Y-7655000D01*
X7887000Y-7625000D02*
X7857000Y-7655000D01*
X7858000Y-7956000D02*
X7888000Y-7986000D01*
X7888000Y-7956000D02*
X7858000Y-7986000D01*
X7893000Y-8339000D02*
X7923000Y-8369000D01*
X7923000Y-8339000D02*
X7893000Y-8369000D01*
X8098000Y-5504000D02*
X8128000Y-5534000D01*
X8128000Y-5504000D02*
X8098000Y-5534000D01*
X8113000Y-6652000D02*
X8143000Y-6682000D01*
X8143000Y-6652000D02*
X8113000Y-6682000D01*
X8113000Y-6694000D02*
X8143000Y-6724000D01*
X8143000Y-6694000D02*
X8113000Y-6724000D01*
X8113000Y-6736000D02*
X8143000Y-6766000D01*
X8143000Y-6736000D02*
X8113000Y-6766000D01*
X8113000Y-6778000D02*
X8143000Y-6808000D01*
X8143000Y-6778000D02*
X8113000Y-6808000D01*
X8113000Y-6820000D02*
X8143000Y-6850000D01*
X8143000Y-6820000D02*
X8113000Y-6850000D01*
X8113000Y-6862000D02*
X8143000Y-6892000D01*
X8143000Y-6862000D02*
X8113000Y-6892000D01*
X8113000Y-6904000D02*
X8143000Y-6934000D01*
X8143000Y-6904000D02*
X8113000Y-6934000D01*
X8113000Y-6946000D02*
X8143000Y-6976000D01*
X8143000Y-6946000D02*
X8113000Y-6976000D01*
X8113000Y-6988000D02*
X8143000Y-7018000D01*
X8143000Y-6988000D02*
X8113000Y-7018000D01*
X8113000Y-7072000D02*
X8143000Y-7102000D01*
X8143000Y-7072000D02*
X8113000Y-7102000D01*
X8113000Y-7156000D02*
X8143000Y-7186000D01*
X8143000Y-7156000D02*
X8113000Y-7186000D01*
X8113000Y-7240000D02*
X8143000Y-7270000D01*
X8143000Y-7240000D02*
X8113000Y-7270000D01*
X8113000Y-7282000D02*
X8143000Y-7312000D01*
X8143000Y-7282000D02*
X8113000Y-7312000D01*
X8149000Y-7364000D02*
X8179000Y-7394000D01*
X8179000Y-7364000D02*
X8149000Y-7394000D01*
X8188000Y-5912000D02*
X8218000Y-5942000D01*
X8218000Y-5912000D02*
X8188000Y-5942000D01*
X8194064Y-7364000D02*
X8224064Y-7394000D01*
X8224064Y-7364000D02*
X8194064Y-7394000D01*
X8239129Y-7364000D02*
X8269129Y-7394000D01*
X8269129Y-7364000D02*
X8239129Y-7394000D01*
X8284193Y-7364000D02*
X8314193Y-7394000D01*
X8314193Y-7364000D02*
X8284193Y-7394000D01*
X8286000Y-6393000D02*
X8316000Y-6423000D01*
X8316000Y-6393000D02*
X8286000Y-6423000D01*
X8318000Y-8341000D02*
X8348000Y-8371000D01*
X8348000Y-8341000D02*
X8318000Y-8371000D01*
X8329257Y-7364000D02*
X8359257Y-7394000D01*
X8359257Y-7364000D02*
X8329257Y-7394000D01*
X8374321Y-7364000D02*
X8404322Y-7394000D01*
X8404322Y-7364000D02*
X8374321Y-7394000D01*
X8419386Y-7364000D02*
X8449386Y-7394000D01*
X8449386Y-7364000D02*
X8419386Y-7394000D01*
X8464450Y-7364000D02*
X8494450Y-7394000D01*
X8494450Y-7364000D02*
X8464450Y-7394000D01*
X8481000Y-6298000D02*
X8511000Y-6328000D01*
X8511000Y-6298000D02*
X8481000Y-6328000D01*
X8509514Y-7364000D02*
X8539514Y-7394000D01*
X8539514Y-7364000D02*
X8509514Y-7394000D01*
X8554579Y-7364000D02*
X8584579Y-7394000D01*
X8584579Y-7364000D02*
X8554579Y-7394000D01*
D13*
X3743500Y-7353000D02*
G75*
G03*
X3743500Y-7353000I-17500J0D01*
G01*
X3743500Y-7482000D02*
G75*
G03*
X3743500Y-7482000I-17500J0D01*
G01*
X4343500Y-7226000D02*
G75*
G03*
X4343500Y-7226000I-17500J0D01*
G01*
X4383500Y-8321000D02*
G75*
G03*
X4383500Y-8321000I-17500J0D01*
G01*
X4479500Y-8228000D02*
G75*
G03*
X4479500Y-8228000I-17500J0D01*
G01*
X4670500Y-8224000D02*
G75*
G03*
X4670500Y-8224000I-17500J0D01*
G01*
X4671500Y-8320000D02*
G75*
G03*
X4671500Y-8320000I-17500J0D01*
G01*
X7399500Y-5473000D02*
G75*
G03*
X7399500Y-5473000I-17500J0D01*
G01*
X7400500Y-5377000D02*
G75*
G03*
X7400500Y-5377000I-17500J0D01*
G01*
X7593500Y-5470000D02*
G75*
G03*
X7593500Y-5470000I-17500J0D01*
G01*
X7689500Y-5377000D02*
G75*
G03*
X7689500Y-5377000I-17500J0D01*
G01*
D11*
X3815119Y-8881976D02*
X3815119Y-8681976D01*
X3862738Y-8681976D01*
X3891309Y-8691500D01*
X3910357Y-8710548D01*
X3919881Y-8729595D01*
X3929405Y-8767690D01*
X3929405Y-8796262D01*
X3919881Y-8834357D01*
X3910357Y-8853405D01*
X3891309Y-8872452D01*
X3862738Y-8881976D01*
X3815119Y-8881976D01*
X4015119Y-8881976D02*
X4015119Y-8748643D01*
X4015119Y-8786738D02*
X4024643Y-8767690D01*
X4034167Y-8758167D01*
X4053214Y-8748643D01*
X4072262Y-8748643D01*
X4138928Y-8881976D02*
X4138928Y-8748643D01*
X4138928Y-8681976D02*
X4129405Y-8691500D01*
X4138928Y-8701024D01*
X4148452Y-8691500D01*
X4138928Y-8681976D01*
X4138928Y-8701024D01*
X4262738Y-8881976D02*
X4243690Y-8872452D01*
X4234167Y-8853405D01*
X4234167Y-8681976D01*
X4367500Y-8881976D02*
X4348452Y-8872452D01*
X4338929Y-8853405D01*
X4338929Y-8681976D01*
X4596071Y-8881976D02*
X4596071Y-8681976D01*
X4662738Y-8824833D01*
X4729405Y-8681976D01*
X4729405Y-8881976D01*
X4910357Y-8881976D02*
X4910357Y-8777214D01*
X4900833Y-8758167D01*
X4881786Y-8748643D01*
X4843690Y-8748643D01*
X4824643Y-8758167D01*
X4910357Y-8872452D02*
X4891310Y-8881976D01*
X4843690Y-8881976D01*
X4824643Y-8872452D01*
X4815119Y-8853405D01*
X4815119Y-8834357D01*
X4824643Y-8815310D01*
X4843690Y-8805786D01*
X4891310Y-8805786D01*
X4910357Y-8796262D01*
X5005595Y-8748643D02*
X5005595Y-8948643D01*
X5005595Y-8758167D02*
X5024643Y-8748643D01*
X5062738Y-8748643D01*
X5081786Y-8758167D01*
X5091310Y-8767690D01*
X5100833Y-8786738D01*
X5100833Y-8843881D01*
X5091310Y-8862929D01*
X5081786Y-8872452D01*
X5062738Y-8881976D01*
X5024643Y-8881976D01*
X5005595Y-8872452D01*
X5186548Y-8862929D02*
X5196071Y-8872452D01*
X5186548Y-8881976D01*
X5177024Y-8872452D01*
X5186548Y-8862929D01*
X5186548Y-8881976D01*
X5186548Y-8758167D02*
X5196071Y-8767690D01*
X5186548Y-8777214D01*
X5177024Y-8767690D01*
X5186548Y-8758167D01*
X5186548Y-8777214D01*
D12*
X3527500Y-9196500D02*
X3557500Y-9226500D01*
X3557500Y-9196500D02*
X3527500Y-9226500D01*
D11*
X3853214Y-9101976D02*
X3872262Y-9101976D01*
X3891309Y-9111500D01*
X3900833Y-9121024D01*
X3910357Y-9140071D01*
X3919881Y-9178167D01*
X3919881Y-9225786D01*
X3910357Y-9263881D01*
X3900833Y-9282929D01*
X3891309Y-9292452D01*
X3872262Y-9301976D01*
X3853214Y-9301976D01*
X3834167Y-9292452D01*
X3824643Y-9282929D01*
X3815119Y-9263881D01*
X3805595Y-9225786D01*
X3805595Y-9178167D01*
X3815119Y-9140071D01*
X3824643Y-9121024D01*
X3834167Y-9111500D01*
X3853214Y-9101976D01*
X4005595Y-9282929D02*
X4015119Y-9292452D01*
X4005595Y-9301976D01*
X3996071Y-9292452D01*
X4005595Y-9282929D01*
X4005595Y-9301976D01*
X4081786Y-9101976D02*
X4205595Y-9101976D01*
X4138928Y-9178167D01*
X4167500Y-9178167D01*
X4186548Y-9187690D01*
X4196071Y-9197214D01*
X4205595Y-9216262D01*
X4205595Y-9263881D01*
X4196071Y-9282929D01*
X4186548Y-9292452D01*
X4167500Y-9301976D01*
X4110357Y-9301976D01*
X4091309Y-9292452D01*
X4081786Y-9282929D01*
X4329405Y-9101976D02*
X4348452Y-9101976D01*
X4367500Y-9111500D01*
X4377024Y-9121024D01*
X4386548Y-9140071D01*
X4396071Y-9178167D01*
X4396071Y-9225786D01*
X4386548Y-9263881D01*
X4377024Y-9282929D01*
X4367500Y-9292452D01*
X4348452Y-9301976D01*
X4329405Y-9301976D01*
X4310357Y-9292452D01*
X4300833Y-9282929D01*
X4291310Y-9263881D01*
X4281786Y-9225786D01*
X4281786Y-9178167D01*
X4291310Y-9140071D01*
X4300833Y-9121024D01*
X4310357Y-9111500D01*
X4329405Y-9101976D01*
X4519881Y-9101976D02*
X4538929Y-9101976D01*
X4557976Y-9111500D01*
X4567500Y-9121024D01*
X4577024Y-9140071D01*
X4586548Y-9178167D01*
X4586548Y-9225786D01*
X4577024Y-9263881D01*
X4567500Y-9282929D01*
X4557976Y-9292452D01*
X4538929Y-9301976D01*
X4519881Y-9301976D01*
X4500833Y-9292452D01*
X4491310Y-9282929D01*
X4481786Y-9263881D01*
X4472262Y-9225786D01*
X4472262Y-9178167D01*
X4481786Y-9140071D01*
X4491310Y-9121024D01*
X4500833Y-9111500D01*
X4519881Y-9101976D01*
X4672262Y-9301976D02*
X4672262Y-9168643D01*
X4672262Y-9187690D02*
X4681786Y-9178167D01*
X4700833Y-9168643D01*
X4729405Y-9168643D01*
X4748452Y-9178167D01*
X4757976Y-9197214D01*
X4757976Y-9301976D01*
X4757976Y-9197214D02*
X4767500Y-9178167D01*
X4786548Y-9168643D01*
X4815119Y-9168643D01*
X4834167Y-9178167D01*
X4843690Y-9197214D01*
X4843690Y-9301976D01*
X4938929Y-9301976D02*
X4938929Y-9168643D01*
X4938929Y-9187690D02*
X4948452Y-9178167D01*
X4967500Y-9168643D01*
X4996071Y-9168643D01*
X5015119Y-9178167D01*
X5024643Y-9197214D01*
X5024643Y-9301976D01*
X5024643Y-9197214D02*
X5034167Y-9178167D01*
X5053214Y-9168643D01*
X5081786Y-9168643D01*
X5100833Y-9178167D01*
X5110357Y-9197214D01*
X5110357Y-9301976D01*
X5500833Y-9092452D02*
X5329405Y-9349595D01*
X5757976Y-9101976D02*
X5777024Y-9101976D01*
X5796071Y-9111500D01*
X5805595Y-9121024D01*
X5815119Y-9140071D01*
X5824643Y-9178167D01*
X5824643Y-9225786D01*
X5815119Y-9263881D01*
X5805595Y-9282929D01*
X5796071Y-9292452D01*
X5777024Y-9301976D01*
X5757976Y-9301976D01*
X5738928Y-9292452D01*
X5729405Y-9282929D01*
X5719881Y-9263881D01*
X5710357Y-9225786D01*
X5710357Y-9178167D01*
X5719881Y-9140071D01*
X5729405Y-9121024D01*
X5738928Y-9111500D01*
X5757976Y-9101976D01*
X5910357Y-9282929D02*
X5919881Y-9292452D01*
X5910357Y-9301976D01*
X5900833Y-9292452D01*
X5910357Y-9282929D01*
X5910357Y-9301976D01*
X6043690Y-9101976D02*
X6062738Y-9101976D01*
X6081786Y-9111500D01*
X6091309Y-9121024D01*
X6100833Y-9140071D01*
X6110357Y-9178167D01*
X6110357Y-9225786D01*
X6100833Y-9263881D01*
X6091309Y-9282929D01*
X6081786Y-9292452D01*
X6062738Y-9301976D01*
X6043690Y-9301976D01*
X6024643Y-9292452D01*
X6015119Y-9282929D01*
X6005595Y-9263881D01*
X5996071Y-9225786D01*
X5996071Y-9178167D01*
X6005595Y-9140071D01*
X6015119Y-9121024D01*
X6024643Y-9111500D01*
X6043690Y-9101976D01*
X6300833Y-9301976D02*
X6186548Y-9301976D01*
X6243690Y-9301976D02*
X6243690Y-9101976D01*
X6224643Y-9130548D01*
X6205595Y-9149595D01*
X6186548Y-9159119D01*
X6491309Y-9301976D02*
X6377024Y-9301976D01*
X6434167Y-9301976D02*
X6434167Y-9101976D01*
X6415119Y-9130548D01*
X6396071Y-9149595D01*
X6377024Y-9159119D01*
X6605595Y-9187690D02*
X6586548Y-9178167D01*
X6577024Y-9168643D01*
X6567500Y-9149595D01*
X6567500Y-9140071D01*
X6577024Y-9121024D01*
X6586548Y-9111500D01*
X6605595Y-9101976D01*
X6643690Y-9101976D01*
X6662738Y-9111500D01*
X6672262Y-9121024D01*
X6681786Y-9140071D01*
X6681786Y-9149595D01*
X6672262Y-9168643D01*
X6662738Y-9178167D01*
X6643690Y-9187690D01*
X6605595Y-9187690D01*
X6586548Y-9197214D01*
X6577024Y-9206738D01*
X6567500Y-9225786D01*
X6567500Y-9263881D01*
X6577024Y-9282929D01*
X6586548Y-9292452D01*
X6605595Y-9301976D01*
X6643690Y-9301976D01*
X6662738Y-9292452D01*
X6672262Y-9282929D01*
X6681786Y-9263881D01*
X6681786Y-9225786D01*
X6672262Y-9206738D01*
X6662738Y-9197214D01*
X6643690Y-9187690D01*
X6757976Y-9101976D02*
X6757976Y-9140071D01*
X6834167Y-9101976D02*
X6834167Y-9140071D01*
X7129405Y-9378167D02*
X7119881Y-9368643D01*
X7100833Y-9340071D01*
X7091309Y-9321024D01*
X7081786Y-9292452D01*
X7072262Y-9244833D01*
X7072262Y-9206738D01*
X7081786Y-9159119D01*
X7091309Y-9130548D01*
X7100833Y-9111500D01*
X7119881Y-9082929D01*
X7129405Y-9073405D01*
X7196071Y-9121024D02*
X7205595Y-9111500D01*
X7224643Y-9101976D01*
X7272262Y-9101976D01*
X7291309Y-9111500D01*
X7300833Y-9121024D01*
X7310357Y-9140071D01*
X7310357Y-9159119D01*
X7300833Y-9187690D01*
X7186548Y-9301976D01*
X7310357Y-9301976D01*
X7377024Y-9101976D02*
X7510357Y-9101976D01*
X7424643Y-9301976D01*
X7567500Y-9101976D02*
X7691309Y-9101976D01*
X7624643Y-9178167D01*
X7653214Y-9178167D01*
X7672262Y-9187690D01*
X7681786Y-9197214D01*
X7691309Y-9216262D01*
X7691309Y-9263881D01*
X7681786Y-9282929D01*
X7672262Y-9292452D01*
X7653214Y-9301976D01*
X7596071Y-9301976D01*
X7577024Y-9292452D01*
X7567500Y-9282929D01*
X7929405Y-9301976D02*
X7929405Y-9101976D01*
X8015119Y-9301976D02*
X8015119Y-9197214D01*
X8005595Y-9178167D01*
X7986548Y-9168643D01*
X7957976Y-9168643D01*
X7938928Y-9178167D01*
X7929405Y-9187690D01*
X8138928Y-9301976D02*
X8119881Y-9292452D01*
X8110357Y-9282929D01*
X8100833Y-9263881D01*
X8100833Y-9206738D01*
X8110357Y-9187690D01*
X8119881Y-9178167D01*
X8138928Y-9168643D01*
X8167500Y-9168643D01*
X8186548Y-9178167D01*
X8196071Y-9187690D01*
X8205595Y-9206738D01*
X8205595Y-9263881D01*
X8196071Y-9282929D01*
X8186548Y-9292452D01*
X8167500Y-9301976D01*
X8138928Y-9301976D01*
X8319881Y-9301976D02*
X8300833Y-9292452D01*
X8291309Y-9273405D01*
X8291309Y-9101976D01*
X8472262Y-9292452D02*
X8453214Y-9301976D01*
X8415119Y-9301976D01*
X8396071Y-9292452D01*
X8386548Y-9273405D01*
X8386548Y-9197214D01*
X8396071Y-9178167D01*
X8415119Y-9168643D01*
X8453214Y-9168643D01*
X8472262Y-9178167D01*
X8481786Y-9197214D01*
X8481786Y-9216262D01*
X8386548Y-9235310D01*
X8557976Y-9292452D02*
X8577024Y-9301976D01*
X8615119Y-9301976D01*
X8634167Y-9292452D01*
X8643690Y-9273405D01*
X8643690Y-9263881D01*
X8634167Y-9244833D01*
X8615119Y-9235310D01*
X8586548Y-9235310D01*
X8567500Y-9225786D01*
X8557976Y-9206738D01*
X8557976Y-9197214D01*
X8567500Y-9178167D01*
X8586548Y-9168643D01*
X8615119Y-9168643D01*
X8634167Y-9178167D01*
X8710357Y-9378167D02*
X8719881Y-9368643D01*
X8738929Y-9340071D01*
X8748452Y-9321024D01*
X8757976Y-9292452D01*
X8767500Y-9244833D01*
X8767500Y-9206738D01*
X8757976Y-9159119D01*
X8748452Y-9130548D01*
X8738929Y-9111500D01*
X8719881Y-9082929D01*
X8710357Y-9073405D01*
D13*
X3557500Y-9475500D02*
G75*
G03*
X3557500Y-9475500I-17500J0D01*
G01*
D11*
X3853214Y-9365976D02*
X3872262Y-9365976D01*
X3891309Y-9375500D01*
X3900833Y-9385024D01*
X3910357Y-9404071D01*
X3919881Y-9442167D01*
X3919881Y-9489786D01*
X3910357Y-9527881D01*
X3900833Y-9546929D01*
X3891309Y-9556452D01*
X3872262Y-9565976D01*
X3853214Y-9565976D01*
X3834167Y-9556452D01*
X3824643Y-9546929D01*
X3815119Y-9527881D01*
X3805595Y-9489786D01*
X3805595Y-9442167D01*
X3815119Y-9404071D01*
X3824643Y-9385024D01*
X3834167Y-9375500D01*
X3853214Y-9365976D01*
X4005595Y-9546929D02*
X4015119Y-9556452D01*
X4005595Y-9565976D01*
X3996071Y-9556452D01*
X4005595Y-9546929D01*
X4005595Y-9565976D01*
X4081786Y-9365976D02*
X4205595Y-9365976D01*
X4138928Y-9442167D01*
X4167500Y-9442167D01*
X4186548Y-9451690D01*
X4196071Y-9461214D01*
X4205595Y-9480262D01*
X4205595Y-9527881D01*
X4196071Y-9546929D01*
X4186548Y-9556452D01*
X4167500Y-9565976D01*
X4110357Y-9565976D01*
X4091309Y-9556452D01*
X4081786Y-9546929D01*
X4386548Y-9365976D02*
X4291310Y-9365976D01*
X4281786Y-9461214D01*
X4291310Y-9451690D01*
X4310357Y-9442167D01*
X4357976Y-9442167D01*
X4377024Y-9451690D01*
X4386548Y-9461214D01*
X4396071Y-9480262D01*
X4396071Y-9527881D01*
X4386548Y-9546929D01*
X4377024Y-9556452D01*
X4357976Y-9565976D01*
X4310357Y-9565976D01*
X4291310Y-9556452D01*
X4281786Y-9546929D01*
X4519881Y-9365976D02*
X4538929Y-9365976D01*
X4557976Y-9375500D01*
X4567500Y-9385024D01*
X4577024Y-9404071D01*
X4586548Y-9442167D01*
X4586548Y-9489786D01*
X4577024Y-9527881D01*
X4567500Y-9546929D01*
X4557976Y-9556452D01*
X4538929Y-9565976D01*
X4519881Y-9565976D01*
X4500833Y-9556452D01*
X4491310Y-9546929D01*
X4481786Y-9527881D01*
X4472262Y-9489786D01*
X4472262Y-9442167D01*
X4481786Y-9404071D01*
X4491310Y-9385024D01*
X4500833Y-9375500D01*
X4519881Y-9365976D01*
X4672262Y-9565976D02*
X4672262Y-9432643D01*
X4672262Y-9451690D02*
X4681786Y-9442167D01*
X4700833Y-9432643D01*
X4729405Y-9432643D01*
X4748452Y-9442167D01*
X4757976Y-9461214D01*
X4757976Y-9565976D01*
X4757976Y-9461214D02*
X4767500Y-9442167D01*
X4786548Y-9432643D01*
X4815119Y-9432643D01*
X4834167Y-9442167D01*
X4843690Y-9461214D01*
X4843690Y-9565976D01*
X4938929Y-9565976D02*
X4938929Y-9432643D01*
X4938929Y-9451690D02*
X4948452Y-9442167D01*
X4967500Y-9432643D01*
X4996071Y-9432643D01*
X5015119Y-9442167D01*
X5024643Y-9461214D01*
X5024643Y-9565976D01*
X5024643Y-9461214D02*
X5034167Y-9442167D01*
X5053214Y-9432643D01*
X5081786Y-9432643D01*
X5100833Y-9442167D01*
X5110357Y-9461214D01*
X5110357Y-9565976D01*
X5500833Y-9356452D02*
X5329405Y-9613595D01*
X5757976Y-9365976D02*
X5777024Y-9365976D01*
X5796071Y-9375500D01*
X5805595Y-9385024D01*
X5815119Y-9404071D01*
X5824643Y-9442167D01*
X5824643Y-9489786D01*
X5815119Y-9527881D01*
X5805595Y-9546929D01*
X5796071Y-9556452D01*
X5777024Y-9565976D01*
X5757976Y-9565976D01*
X5738928Y-9556452D01*
X5729405Y-9546929D01*
X5719881Y-9527881D01*
X5710357Y-9489786D01*
X5710357Y-9442167D01*
X5719881Y-9404071D01*
X5729405Y-9385024D01*
X5738928Y-9375500D01*
X5757976Y-9365976D01*
X5910357Y-9546929D02*
X5919881Y-9556452D01*
X5910357Y-9565976D01*
X5900833Y-9556452D01*
X5910357Y-9546929D01*
X5910357Y-9565976D01*
X6043690Y-9365976D02*
X6062738Y-9365976D01*
X6081786Y-9375500D01*
X6091309Y-9385024D01*
X6100833Y-9404071D01*
X6110357Y-9442167D01*
X6110357Y-9489786D01*
X6100833Y-9527881D01*
X6091309Y-9546929D01*
X6081786Y-9556452D01*
X6062738Y-9565976D01*
X6043690Y-9565976D01*
X6024643Y-9556452D01*
X6015119Y-9546929D01*
X6005595Y-9527881D01*
X5996071Y-9489786D01*
X5996071Y-9442167D01*
X6005595Y-9404071D01*
X6015119Y-9385024D01*
X6024643Y-9375500D01*
X6043690Y-9365976D01*
X6300833Y-9565976D02*
X6186548Y-9565976D01*
X6243690Y-9565976D02*
X6243690Y-9365976D01*
X6224643Y-9394548D01*
X6205595Y-9413595D01*
X6186548Y-9423119D01*
X6367500Y-9365976D02*
X6491309Y-9365976D01*
X6424643Y-9442167D01*
X6453214Y-9442167D01*
X6472262Y-9451690D01*
X6481786Y-9461214D01*
X6491309Y-9480262D01*
X6491309Y-9527881D01*
X6481786Y-9546929D01*
X6472262Y-9556452D01*
X6453214Y-9565976D01*
X6396071Y-9565976D01*
X6377024Y-9556452D01*
X6367500Y-9546929D01*
X6605595Y-9451690D02*
X6586548Y-9442167D01*
X6577024Y-9432643D01*
X6567500Y-9413595D01*
X6567500Y-9404071D01*
X6577024Y-9385024D01*
X6586548Y-9375500D01*
X6605595Y-9365976D01*
X6643690Y-9365976D01*
X6662738Y-9375500D01*
X6672262Y-9385024D01*
X6681786Y-9404071D01*
X6681786Y-9413595D01*
X6672262Y-9432643D01*
X6662738Y-9442167D01*
X6643690Y-9451690D01*
X6605595Y-9451690D01*
X6586548Y-9461214D01*
X6577024Y-9470738D01*
X6567500Y-9489786D01*
X6567500Y-9527881D01*
X6577024Y-9546929D01*
X6586548Y-9556452D01*
X6605595Y-9565976D01*
X6643690Y-9565976D01*
X6662738Y-9556452D01*
X6672262Y-9546929D01*
X6681786Y-9527881D01*
X6681786Y-9489786D01*
X6672262Y-9470738D01*
X6662738Y-9461214D01*
X6643690Y-9451690D01*
X6757976Y-9365976D02*
X6757976Y-9404071D01*
X6834167Y-9365976D02*
X6834167Y-9404071D01*
X7129405Y-9642167D02*
X7119881Y-9632643D01*
X7100833Y-9604071D01*
X7091309Y-9585024D01*
X7081786Y-9556452D01*
X7072262Y-9508833D01*
X7072262Y-9470738D01*
X7081786Y-9423119D01*
X7091309Y-9394548D01*
X7100833Y-9375500D01*
X7119881Y-9346929D01*
X7129405Y-9337405D01*
X7310357Y-9565976D02*
X7196071Y-9565976D01*
X7253214Y-9565976D02*
X7253214Y-9365976D01*
X7234167Y-9394548D01*
X7215119Y-9413595D01*
X7196071Y-9423119D01*
X7500833Y-9565976D02*
X7386548Y-9565976D01*
X7443690Y-9565976D02*
X7443690Y-9365976D01*
X7424643Y-9394548D01*
X7405595Y-9413595D01*
X7386548Y-9423119D01*
X7738928Y-9565976D02*
X7738928Y-9365976D01*
X7824643Y-9565976D02*
X7824643Y-9461214D01*
X7815119Y-9442167D01*
X7796071Y-9432643D01*
X7767500Y-9432643D01*
X7748452Y-9442167D01*
X7738928Y-9451690D01*
X7948452Y-9565976D02*
X7929405Y-9556452D01*
X7919881Y-9546929D01*
X7910357Y-9527881D01*
X7910357Y-9470738D01*
X7919881Y-9451690D01*
X7929405Y-9442167D01*
X7948452Y-9432643D01*
X7977024Y-9432643D01*
X7996071Y-9442167D01*
X8005595Y-9451690D01*
X8015119Y-9470738D01*
X8015119Y-9527881D01*
X8005595Y-9546929D01*
X7996071Y-9556452D01*
X7977024Y-9565976D01*
X7948452Y-9565976D01*
X8129405Y-9565976D02*
X8110357Y-9556452D01*
X8100833Y-9537405D01*
X8100833Y-9365976D01*
X8281786Y-9556452D02*
X8262738Y-9565976D01*
X8224643Y-9565976D01*
X8205595Y-9556452D01*
X8196071Y-9537405D01*
X8196071Y-9461214D01*
X8205595Y-9442167D01*
X8224643Y-9432643D01*
X8262738Y-9432643D01*
X8281786Y-9442167D01*
X8291309Y-9461214D01*
X8291309Y-9480262D01*
X8196071Y-9499310D01*
X8367500Y-9556452D02*
X8386548Y-9565976D01*
X8424643Y-9565976D01*
X8443690Y-9556452D01*
X8453214Y-9537405D01*
X8453214Y-9527881D01*
X8443690Y-9508833D01*
X8424643Y-9499310D01*
X8396071Y-9499310D01*
X8377024Y-9489786D01*
X8367500Y-9470738D01*
X8367500Y-9461214D01*
X8377024Y-9442167D01*
X8396071Y-9432643D01*
X8424643Y-9432643D01*
X8443690Y-9442167D01*
X8519881Y-9642167D02*
X8529405Y-9632643D01*
X8548452Y-9604071D01*
X8557976Y-9585024D01*
X8567500Y-9556452D01*
X8577024Y-9508833D01*
X8577024Y-9470738D01*
X8567500Y-9423119D01*
X8557976Y-9394548D01*
X8548452Y-9375500D01*
X8529405Y-9346929D01*
X8519881Y-9337405D01*
M02*
